<?xml version="1.0" encoding="UTF-8" standalone="no"?>
<!-- Created with Inkscape (http://www.inkscape.org/) -->

<svg
   xmlns:dc="http://purl.org/dc/elements/1.1/"
   xmlns:cc="http://creativecommons.org/ns#"
   xmlns:rdf="http://www.w3.org/1999/02/22-rdf-syntax-ns#"
   xmlns:svg="http://www.w3.org/2000/svg"
   xmlns="http://www.w3.org/2000/svg"
   xmlns:xlink="http://www.w3.org/1999/xlink"
   xmlns:sodipodi="http://sodipodi.sourceforge.net/DTD/sodipodi-0.dtd"
   xmlns:inkscape="http://www.inkscape.org/namespaces/inkscape"
   width="90mm"
   height="50mm"
   viewBox="0 0 90 50"
   version="1.1"
   id="SVGRoot"
   inkscape:version="0.92.4 (5da689c313, 2019-01-14)"
   sodipodi:docname="business_card_back.svg">
  <defs
     id="defs6539">
    <linearGradient
       inkscape:collect="always"
       id="linearGradient1125">
      <stop
         style="stop-color:#ffcc13;stop-opacity:1"
         offset="0"
         id="stop1121" />
      <stop
         style="stop-color:#ff49aa;stop-opacity:0.99585062"
         offset="1"
         id="stop1123" />
    </linearGradient>
    <linearGradient
       inkscape:collect="always"
       xlink:href="#linearGradient1125"
       id="linearGradient1135"
       gradientUnits="userSpaceOnUse"
       x1="35.007019"
       y1="32.757634"
       x2="58.847895"
       y2="32.757634"
       gradientTransform="matrix(1.0706265,0,0,1.0706265,-5.7230894,-10.24024)" />
  </defs>
  <sodipodi:namedview
     id="base"
     pagecolor="#ffffff"
     bordercolor="#666666"
     borderopacity="1.0"
     inkscape:pageopacity="0.0"
     inkscape:pageshadow="2"
     inkscape:zoom="2.0000001"
     inkscape:cx="149.50466"
     inkscape:cy="122.55493"
     inkscape:document-units="mm"
     inkscape:current-layer="layer3"
     showgrid="false"
     inkscape:window-width="1600"
     inkscape:window-height="836"
     inkscape:window-x="0"
     inkscape:window-y="27"
     inkscape:window-maximized="1"
     inkscape:snap-bbox="true"
     inkscape:bbox-paths="true"
     inkscape:bbox-nodes="true"
     inkscape:snap-bbox-edge-midpoints="true"
     inkscape:snap-bbox-midpoints="true"
     inkscape:snap-intersection-paths="true"
     inkscape:object-paths="true"
     inkscape:snap-smooth-nodes="true"
     inkscape:snap-midpoints="true"
     inkscape:snap-object-midpoints="true"
     inkscape:snap-center="true"
     inkscape:snap-text-baseline="true"
     inkscape:snap-page="true"
     showguides="true"
     inkscape:guide-bbox="true"
     inkscape:snap-global="true">
    <sodipodi:guide
       position="44.846876,10.980209"
       orientation="1,0"
       id="guide9464"
       inkscape:locked="false" />
    <sodipodi:guide
       position="4.5640627,46.996615"
       orientation="0,1"
       id="guide9514"
       inkscape:locked="false" />
    <sodipodi:guide
       position="2.9930991,45.987891"
       orientation="1,0"
       id="guide9516"
       inkscape:locked="false" />
    <sodipodi:guide
       position="86.981774,51.659896"
       orientation="1,0"
       id="guide9518"
       inkscape:locked="false" />
    <sodipodi:guide
       position="97.730471,3.0096355"
       orientation="0,1"
       id="guide9520"
       inkscape:locked="false" />
    <sodipodi:guide
       position="20.018488,23.573172"
       orientation="1,0"
       id="guide99"
       inkscape:locked="false" />
    <sodipodi:guide
       position="70.064707,23.76026"
       orientation="1,0"
       id="guide101"
       inkscape:locked="false" />
    <sodipodi:guide
       position="58.745842,28.577793"
       orientation="0,1"
       id="guide908"
       inkscape:locked="false" />
    <sodipodi:guide
       position="60.149007,25.958552"
       orientation="0,1"
       id="guide910"
       inkscape:locked="false" />
    <sodipodi:guide
       position="63.65692,23.432855"
       orientation="0,1"
       id="guide912"
       inkscape:locked="false" />
    <sodipodi:guide
       position="63.00211,21.141019"
       orientation="0,1"
       id="guide914"
       inkscape:locked="false" />
  </sodipodi:namedview>
  <metadata
     id="metadata6542">
    <rdf:RDF>
      <cc:Work
         rdf:about="">
        <dc:format>image/svg+xml</dc:format>
        <dc:type
           rdf:resource="http://purl.org/dc/dcmitype/StillImage" />
        <dc:title />
      </cc:Work>
    </rdf:RDF>
  </metadata>
  <g
     inkscape:groupmode="layer"
     id="layer6"
     inkscape:label="Layer 6"
     style="display:none">
    <text
       id="text89"
       y="21.4881"
       x="19.86075"
       style="font-style:normal;font-weight:normal;font-size:2.57450366px;line-height:1.25;font-family:sans-serif;letter-spacing:0px;word-spacing:0px;display:inline;fill:#919191;fill-opacity:1;stroke:none;stroke-width:0.16090648"
       xml:space="preserve"><tspan
         style="font-style:normal;font-variant:normal;font-weight:normal;font-stretch:normal;font-family:'Skyhook Mono';-inkscape-font-specification:'Skyhook Mono';fill:#919191;fill-opacity:1;stroke-width:0.16090648"
         y="21.4881"
         x="19.86075"
         id="tspan87"
         sodipodi:role="line">I have a feeling</tspan></text>
    <text
       xml:space="preserve"
       style="font-style:normal;font-weight:normal;font-size:2.57450366px;line-height:1.25;font-family:sans-serif;letter-spacing:0px;word-spacing:0px;display:inline;fill:#919191;fill-opacity:1;stroke:none;stroke-width:0.16090648"
       x="36.374817"
       y="30.191099"
       id="text93"><tspan
         sodipodi:role="line"
         id="tspan91"
         x="36.374817"
         y="30.191099"
         style="font-style:normal;font-variant:normal;font-weight:normal;font-stretch:normal;font-family:'Skyhook Mono';-inkscape-font-specification:'Skyhook Mono';fill:#919191;fill-opacity:1;stroke-width:0.16090648">that we will get along</tspan></text>
  </g>
  <g
     inkscape:groupmode="layer"
     id="layer5"
     inkscape:label="Layer 5"
     style="display:none;opacity:1">
    <text
       id="text71"
       y="29.330835"
       x="-14.998492"
       style="font-style:normal;font-weight:normal;font-size:2.57450366px;line-height:1.25;font-family:sans-serif;letter-spacing:0px;word-spacing:0px;display:inline;fill:#919191;fill-opacity:1;stroke:none;stroke-width:0.16090648"
       xml:space="preserve"
       transform="rotate(-38.551665)"><tspan
         style="font-style:normal;font-variant:normal;font-weight:normal;font-stretch:normal;font-family:'Skyhook Mono';-inkscape-font-specification:'Skyhook Mono';fill:#919191;fill-opacity:1;stroke-width:0.16090648"
         y="29.330835"
         x="-14.998492"
         id="tspan69"
         sodipodi:role="line">I have a feeling</tspan></text>
    <text
       xml:space="preserve"
       style="font-style:normal;font-weight:normal;font-size:2.57450366px;line-height:1.25;font-family:sans-serif;letter-spacing:0px;word-spacing:0px;display:inline;fill:#919191;fill-opacity:1;stroke:none;stroke-width:0.16090648"
       x="-2.35217"
       y="33.220108"
       id="text75"
       transform="rotate(-38.551665)"><tspan
         sodipodi:role="line"
         id="tspan73"
         x="-2.35217"
         y="33.220108"
         style="font-style:normal;font-variant:normal;font-weight:normal;font-stretch:normal;font-family:'Skyhook Mono';-inkscape-font-specification:'Skyhook Mono';fill:#919191;fill-opacity:1;stroke-width:0.16090648">that we will get along</tspan></text>
    <path
       style="fill:#919191;fill-opacity:1;stroke-width:0.02457479"
       d="m 79.248274,45.259439 c -0.370868,-0.146355 -0.633124,-0.50421 -0.667177,-0.910394 -0.01651,-0.196912 0.02834,-0.355709 0.157514,-0.557638 0.274268,-0.428749 1.158419,-1.405655 1.446695,-1.598466 0.244355,-0.163438 0.389455,-0.209445 0.663296,-0.210325 0.207978,-6.69e-4 0.234354,0.0053 0.405484,0.09037 0.193434,0.09626 0.40632,0.269029 1.011105,0.820589 0.391404,0.35696 0.627108,0.636941 0.763447,0.906863 0.120609,0.23878 0.14647,0.334077 0.14647,0.53975 0,0.482347 -0.275038,0.85821 -0.692879,0.946883 -0.184467,0.03915 -0.32217,0.0236 -0.631176,-0.07125 -0.336021,-0.10315 -0.616479,-0.135099 -1.016012,-0.115768 -0.35818,0.01733 -0.547449,0.05006 -0.859376,0.148603 -0.254314,0.08034 -0.540406,0.08459 -0.727396,0.01083 z m 4.141957,-1.846535 c -0.189367,-0.07965 -0.346808,-0.193184 -0.586156,-0.422672 -0.341972,-0.327888 -0.494541,-0.607824 -0.494541,-0.907395 0,-0.238695 0.08297,-0.353741 0.546435,-0.757678 0.100096,-0.08723 0.256276,-0.271868 0.411154,-0.486037 0.279947,-0.387116 0.424579,-0.519527 0.633969,-0.580399 0.176504,-0.05131 0.404355,-0.03464 0.563301,0.04121 0.159975,0.07634 0.421059,0.345613 0.507,0.522919 0.111485,0.230022 0.173074,0.513234 0.155872,0.716813 -0.02131,0.2522 -0.121068,0.568695 -0.285869,0.907004 -0.183424,0.37655 -0.311027,0.568542 -0.481278,0.724144 -0.300557,0.274691 -0.671987,0.367409 -0.96988,0.242105 z m -5.68847,-0.05067 c -0.230397,-0.07693 -0.422776,-0.23237 -0.621798,-0.502417 -0.257985,-0.350049 -0.346065,-0.623364 -0.366108,-1.136027 -0.01526,-0.39157 0.0268,-0.685432 0.140464,-0.980164 0.296946,-0.770004 1.05087,-0.678104 1.874841,0.228532 0.512022,0.563389 0.622021,0.723669 0.685561,0.998944 0.108023,0.468008 -0.37066,1.143682 -0.947424,1.337296 -0.233641,0.07844 -0.612149,0.105053 -0.765538,0.05384 z m 1.698653,-2.213927 c -0.818118,-0.425537 -1.173867,-1.60081 -0.748037,-2.471261 0.107087,-0.218892 0.446418,-0.562698 0.648038,-0.656574 0.183398,-0.08539 0.402933,-0.08913 0.584552,-0.01001 0.447397,0.19504 0.776081,1.001878 0.777569,1.908736 8.07e-4,0.509893 -0.0787,0.752292 -0.32895,1.002545 -0.1884,0.1884 -0.363704,0.268264 -0.614032,0.279733 -0.175763,0.008 -0.213393,0.0018 -0.31914,-0.05322 z m 2.497073,0.03151 c -0.280381,-0.04523 -0.592357,-0.265067 -0.705125,-0.496892 -0.108532,-0.223107 -0.140103,-0.704635 -0.08643,-1.318228 0.03972,-0.454234 0.122676,-0.675278 0.344417,-0.917902 0.181114,-0.198166 0.439699,-0.323808 0.661309,-0.321315 0.200072,0.0023 0.331597,0.05858 0.538115,0.230441 0.267965,0.223004 0.459013,0.506356 0.584964,0.86759 0.0774,0.22201 0.106202,0.652028 0.0573,0.855846 -0.09916,0.413388 -0.371757,0.774128 -0.736765,0.975033 -0.226315,0.124564 -0.426486,0.162731 -0.657796,0.125433 z m -5.234314,-0.919203 c -0.07466,-0.05229 -0.174108,-0.228746 -0.231848,-0.411374 -0.0484,-0.153083 -0.06726,-0.520889 -0.03236,-0.630863 0.02478,-0.07806 0.09334,-0.05902 0.151721,0.04214 0.02919,0.05058 0.127385,0.180434 0.218203,0.288563 0.189999,0.226215 0.232501,0.311266 0.232501,0.465278 0,0.08858 -0.0151,0.127763 -0.07627,0.197387 -0.08461,0.09636 -0.171095,0.112502 -0.261936,0.04887 z m 8.162527,-0.05981 c -0.07266,-0.02936 -0.152984,-0.13843 -0.170427,-0.231451 -0.0146,-0.07755 0.05289,-0.391182 0.123874,-0.576103 0.01898,-0.04946 0.04657,-0.13692 0.06129,-0.194359 0.01477,-0.05745 0.03625,-0.104446 0.04783,-0.104446 0.01165,0 0.05453,0.05253 0.09544,0.116736 0.210223,0.329944 0.236352,0.783209 0.05454,0.94613 -0.07808,0.06995 -0.123858,0.07932 -0.212553,0.0435 z m -3.055866,-2.546741 c -0.07443,-0.08477 -0.07885,-0.09959 -0.0637,-0.213717 0.01837,-0.138429 0.238845,-0.735185 0.276234,-0.747648 0.01346,-0.0044 0.05956,0.06833 0.10264,0.161763 0.12906,0.280009 0.144239,0.663417 0.0322,0.814054 -0.03525,0.04739 -0.07207,0.06367 -0.156726,0.06928 -0.100917,0.0067 -0.117704,-6.81e-4 -0.190634,-0.08374 z m -2.458397,0.02107 C 79.17967,37.609283 79.1501,37.523248 79.182738,37.30069 c 0.02714,-0.185049 0.198101,-0.737529 0.22823,-0.737529 0.02186,0 0.160632,0.308516 0.193445,0.43006 0.0146,0.05407 0.03351,0.187264 0.04204,0.296 0.01862,0.237722 -0.02041,0.339234 -0.151557,0.39403 -0.101393,0.04237 -0.08059,0.04329 -0.18344,-0.008 z"
       id="path4977"
       inkscape:connector-curvature="0"
       sodipodi:nodetypes="ccccccccsccccccccscsccccccccccccscccccccccccccccccccccccccccccscccccccsccccccccccccccsccccc" />
  </g>
  <g
     inkscape:groupmode="layer"
     id="layer9"
     inkscape:label="Layer 9"
     style="display:inline">
    <path
       style="display:inline;opacity:1;fill:#e1e1e1;fill-opacity:1;stroke-width:0.4771764"
       d="M 237.10352 0 C 235.68821 1.9493768 234.46953 4.1216988 233.29102 6.7089844 C 230.59083 12.636792 229.77248 17.368738 230.64453 22.003906 C 231.22526 25.089719 235.25277 31.258427 238.79102 34.480469 C 247.52535 42.434444 263.50968 44.17082 270.42773 37.916016 C 274.49676 34.23702 276.17611 30.856756 280.89453 16.847656 C 283.04455 10.464217 284.13344 4.7992378 284.23828 0 L 237.10352 0 z M 301.0957 0 C 290.92841 6.7477595 283.91395 18.160043 284.25 29.898438 C 284.31603 32.212186 284.56669 32.908546 286.36328 35.814453 C 288.92401 39.951338 291.93408 42.170523 296.91016 43.585938 C 303.5199 45.466143 308.38373 44.525179 317.02539 39.693359 C 328.00603 33.552807 336.51421 25.065899 340.1582 17.277344 L 340.1582 2.8242188 C 339.5504 1.8072515 338.80683 0.87138822 337.96289 0.033203125 C 337.85367 0.018895758 337.74606 0 337.63281 0 L 301.0957 0 z M 340.1582 38.757812 C 337.3969 39.246095 334.39932 40.28273 330.62109 41.974609 C 319.7056 46.862302 311.83477 51.946901 309.07617 55.896484 C 306.20948 59.99994 305.42823 67.369241 307.31055 72.552734 L 307.31055 72.554688 C 308.86365 76.830773 311.40287 79.865347 315.6543 82.527344 C 322.51132 86.820498 331.20539 88.038154 339.1543 85.8125 C 339.46828 85.724662 339.80804 85.606406 340.1582 85.476562 L 340.1582 38.757812 z M 231.48828 43.589844 C 227.73551 43.570568 225.00096 44.372797 222.21484 46.246094 C 215.64653 50.66195 212.05426 58.49204 213.07617 66.166016 L 213.07422 66.166016 C 213.58996 70.034918 216.36495 74.8476 220.13086 78.402344 C 224.74996 82.762361 227.09485 85.664171 230.77344 91.576172 C 234.87659 98.170794 236.98346 103.23 238.41016 109.9043 C 239.72106 116.04225 240.759 118.52601 243.16602 121.28516 C 248.61848 127.53499 257.5934 128.64783 265.77539 124.08984 C 269.26455 122.14661 270.63708 120.80873 273.54688 116.50586 C 276.83726 111.64253 279.35831 104.99872 281.71484 94.986328 C 285.35602 79.515486 286.27511 74.270883 286.08008 70.080078 C 285.90645 66.373182 285.75965 65.869303 283.7832 62.347656 C 281.18072 57.710679 279.02859 55.684636 273.94727 53.083984 C 267.95258 50.015949 243.0266 44.249326 233.16211 43.648438 C 232.58135 43.61291 232.02439 43.592565 231.48828 43.589844 z M 117.08984 70.15625 C 116.58594 69.858952 108.27374 77.411149 105.99414 80.238281 C 103.25236 83.638246 102.89923 85.368337 104.45312 87.769531 L 104.45117 87.771484 C 105.66475 89.644399 105.32576 89.424488 107.43945 89.716797 C 110.17349 90.094523 111.82898 88.782315 113.86328 84.623047 C 114.79327 82.720346 115.79031 80.305951 116.08008 79.257812 C 116.73197 76.901496 117.45577 70.3707 117.08984 70.15625 z M 41.353516 84.419922 C 41.097377 84.440331 40.815706 84.576508 40.519531 84.841797 C 38.850828 86.336626 35.536954 92.67533 34.835938 95.712891 C 33.999646 99.336766 33.921492 103.26763 34.654297 104.87891 C 35.545789 106.83944 37.151852 107.42323 39.517578 106.64648 C 41.22755 106.08589 41.866185 105.57902 42.740234 104.09766 C 44.259793 101.52196 44.388861 99.681228 43.443359 94.023438 C 42.991441 91.319031 42.630042 88.178788 42.640625 87.044922 C 42.656499 85.344331 42.12189 84.358399 41.353516 84.419922 z M 300.4043 86.685547 C 298.73811 86.746548 297.40507 87.230382 295.88672 88.076172 C 290.80502 90.906898 287.49851 96.139836 285.16797 105.03906 C 283.53683 111.26765 283.09888 115.01172 283.53711 118.97656 C 284.22653 125.21365 289.30901 130.63789 296.80859 133.14062 C 301.05682 134.55813 305.52 134.90783 313.64062 134.46094 C 320.93661 134.05959 327.24714 132.76184 331.72656 130.74023 C 334.47851 129.4982 337.57688 127.04315 340.1582 124.15039 L 340.1582 96.421875 C 337.37686 94.451322 333.60482 93.462884 326.0332 92.566406 C 320.93669 91.963107 316.32798 91.058977 313.90234 90.185547 C 306.88241 87.656487 303.18129 86.583851 300.4043 86.685547 z M 100.00195 93.390625 C 95.449837 93.318436 87.248515 95.581885 83.544922 98.023438 C 67.834972 108.37905 62.188617 131.54379 71.671875 146.73242 C 72.897572 148.69595 73.466006 149.17103 76.484375 150.77148 C 80.784045 153.04833 84.50412 153.44234 89.513672 152.15039 C 96.167927 150.43437 99.888753 147.16604 104.90625 138.63086 C 113.82905 123.45023 116.29392 106.71334 110.73633 99.037109 C 108.47968 95.921834 104.77075 93.818953 100.86133 93.4375 C 100.59272 93.411421 100.30543 93.395425 100.00195 93.390625 z M 158.81445 97.693359 C 158.06602 97.532767 148.4916 105.33889 146.81836 107.47266 C 145.43895 109.2317 145.36522 109.52194 145.77344 111.67383 L 145.77539 111.67383 C 146.17551 113.78285 146.38303 114.07122 148.13672 114.95508 C 149.60777 115.69727 150.38446 115.78842 151.44141 115.34375 C 154.8014 113.93002 158.33117 107.36829 158.93555 101.41211 C 159.13681 99.424626 159.08189 97.75376 158.81445 97.693359 z M 43.347656 110.83789 C 40.08414 110.74439 36.619417 112.04606 33.085938 114.84375 C 28.27711 118.65135 24.672776 123.15057 21.064453 129.84961 C 16.341351 138.62096 15.117905 144.06137 15.978516 152.46094 C 16.642396 158.94084 18.325982 163.43817 21.419922 166.99805 C 23.479836 169.36791 30.072701 172.65686 34.753906 173.65039 C 46.309785 176.10315 60.981798 169.52547 63.792969 160.63281 C 65.446402 155.4023 65.187679 151.63795 62.183594 137.16406 C 58.708946 120.42281 51.687758 111.07682 43.347656 110.83789 z M 138.33203 120.88477 C 136.42972 120.9116 134.47845 121.20663 132.60938 121.7793 C 126.50712 123.64892 122.93908 126.52792 117.79297 133.73242 C 110.84125 143.46439 106.6182 151.82875 106.23242 156.63086 C 105.83106 161.62038 108.87826 168.37369 113.12109 171.89648 L 113.12109 171.89844 C 116.62144 174.8044 120.34554 176.14109 125.35938 176.29102 C 133.44587 176.5326 141.56472 173.18992 147.30078 167.25391 C 150.12957 164.32782 153.89097 156.85337 154.78711 152.37695 C 156.24495 145.0931 155.8453 138.46906 153.56445 132.0957 C 151.80642 127.18387 150.16327 124.94386 146.83984 122.93164 C 144.539 121.5381 141.50253 120.83982 138.33203 120.88477 z M 183.61328 166.51953 C 183.3147 166.56402 182.59491 167.0916 181.88281 167.80469 C 181.07073 168.62109 179.74594 169.81026 178.94141 170.45117 C 175.92975 172.84333 171.7065 177.42254 171.18555 178.86328 C 170.55957 180.5911 170.82652 183.20797 171.75195 184.41602 L 171.75 184.41602 C 172.88004 185.89012 173.73849 186.1846 175.73438 185.78516 C 180.38256 184.85442 184.41831 177.01589 184.1582 169.42383 C 184.10786 167.9464 183.90584 166.64728 183.71289 166.53125 C 183.6887 166.51689 183.65595 166.51311 183.61328 166.51953 z M 76.505859 171.875 C 75.872713 171.88256 75.204572 171.90713 74.492188 171.94727 C 67.768759 172.32744 43.342436 179.94207 34.525391 184.40625 C 31.818467 185.77629 29.900984 187.1992 28.425781 188.97656 L 97.423828 188.97656 C 95.918034 184.80478 94.788964 182.39568 93.548828 180.48633 C 91.526531 177.37481 91.144794 177.01562 87.660156 174.97461 C 83.645395 172.62317 80.937885 171.82262 76.505859 171.875 z M 152.63086 175.83789 C 149.45396 175.79121 145.76461 176.92901 139.38867 179.71289 C 134.6854 181.76656 130.25143 183.31373 127.7168 183.78516 C 118.34226 185.52718 114.8522 186.58815 112.625 188.97656 L 167.21484 188.97656 C 166.58647 186.39062 165.68561 183.92858 164.73047 182.50977 C 162.82083 179.67284 159.17482 177.14515 155.7168 176.26172 C 154.69122 175.99972 153.68983 175.85345 152.63086 175.83789 z "
       transform="scale(0.26458333)"
       id="path4979" />
  </g>
  <g
     inkscape:groupmode="layer"
     id="layer8"
     inkscape:label="Layer 8" />
  <g
     inkscape:groupmode="layer"
     id="layer3"
     inkscape:label="Layer 3"
     style="display:inline">
    <g
       aria-label="FCK NZS"
       transform="rotate(-34.955388)"
       style="font-style:normal;font-variant:normal;font-weight:normal;font-stretch:normal;font-size:2.82222223px;line-height:1.25;font-family:'Skyhook Mono';-inkscape-font-specification:'Skyhook Mono';letter-spacing:0px;word-spacing:0px;fill:#000000;fill-opacity:1;stroke:none;stroke-width:0.26458332"
       id="text6114" />
  </g>
  <g
     inkscape:groupmode="layer"
     id="layer4"
     inkscape:label="Layer 4"
     style="display:none"
     sodipodi:insensitive="true">
    <text
       xml:space="preserve"
       style="font-style:normal;font-variant:normal;font-weight:normal;font-stretch:normal;font-size:2.82222223px;line-height:1.25;font-family:Jellee;-inkscape-font-specification:Jellee;letter-spacing:0px;word-spacing:0px;fill:#000000;fill-opacity:0.18672198;stroke:none;stroke-width:0.26458332"
       x="2.778125"
       y="4.6678925"
       id="text9508"><tspan
         sodipodi:role="line"
         id="tspan9506"
         x="2.778125"
         y="4.6678925"
         style="fill:#000000;fill-opacity:0.18672198;stroke-width:0.26458332">I have a feeling</tspan></text>
    <text
       xml:space="preserve"
       style="font-style:normal;font-variant:normal;font-weight:normal;font-stretch:normal;font-size:2.82222223px;line-height:1.25;font-family:Jellee;-inkscape-font-specification:Jellee;letter-spacing:0px;word-spacing:0px;fill:#000000;fill-opacity:0.18672198;stroke:none;stroke-width:0.26458332"
       x="55.777557"
       y="46.911091"
       id="text9512"><tspan
         sodipodi:role="line"
         id="tspan9510"
         x="55.777557"
         y="46.911091"
         style="fill:#000000;fill-opacity:0.18672198;stroke-width:0.26458332">that we will get along</tspan></text>
  </g>
  <g
     inkscape:groupmode="layer"
     id="layer7"
     inkscape:label="Layer 7"
     style="display:none">
    <g
       aria-label="en de ru uk"
       style="font-style:normal;font-variant:normal;font-weight:normal;font-stretch:normal;font-size:2.36617446px;line-height:1.25;font-family:Comfortaa;-inkscape-font-specification:Comfortaa;letter-spacing:0px;word-spacing:0px;display:inline;fill:#ffccaa;fill-opacity:1;stroke:none;stroke-width:0.12675935"
       id="text7271"
       transform="matrix(1.904827,0,0,1.904827,-28.08269,-32.174328)">
      <path
         d="m 31.452344,30.203203 c 0,0.414081 0.274476,0.676726 0.721683,0.676726 0.231885,0 0.485066,-0.07572 0.485066,-0.269744 0,-0.101745 -0.08045,-0.182195 -0.177463,-0.182195 -0.146703,0 -0.165632,0.14197 -0.343095,0.14197 -0.149069,0 -0.248449,-0.09938 -0.265012,-0.25318 h 0.698021 c 0.151436,0 0.194027,-0.07572 0.194027,-0.208224 0,-0.276842 -0.227153,-0.586811 -0.645966,-0.586811 -0.411714,0 -0.667261,0.288673 -0.667261,0.681458 z m 0.423545,-0.144336 c 0.01656,-0.151435 0.104112,-0.246082 0.236618,-0.246082 0.132505,0 0.22242,0.09465 0.229519,0.246082 z"
         style="fill:#ffccaa;fill-opacity:1;stroke-width:0.12675935"
         id="path861"
         inkscape:connector-curvature="0" />
      <path
         d="m 32.992945,30.643312 c 0,0.120675 0.09938,0.220054 0.220055,0.220054 0.120674,0 0.220054,-0.09938 0.220054,-0.220054 v -0.489798 c 0,-0.246082 0.123041,-0.29104 0.212955,-0.29104 0.07572,0 0.186928,0.03786 0.186928,0.236618 v 0.54422 c 0,0.120675 0.09938,0.220054 0.220054,0.220054 0.120675,0 0.220055,-0.09938 0.220055,-0.220054 v -0.612839 c 0,-0.295772 -0.125408,-0.501629 -0.454306,-0.501629 -0.220054,0 -0.35256,0.118308 -0.416446,0.243716 v -0.03313 c 0,-0.11121 -0.09228,-0.203491 -0.205858,-0.203491 -0.11121,0 -0.203491,0.09228 -0.203491,0.203491 z"
         style="fill:#ffccaa;fill-opacity:1;stroke-width:0.12675935"
         id="path863"
         inkscape:connector-curvature="0" />
      <path
         d="m 35.096511,30.2174 c 0,0.395152 0.203491,0.653065 0.551319,0.653065 0.184562,0 0.312335,-0.07335 0.390419,-0.170365 0.01893,0.09701 0.101745,0.167998 0.201125,0.167998 0.125407,0 0.203491,-0.106477 0.203491,-0.250814 v -1.412606 c 0,-0.120675 -0.09938,-0.220054 -0.220055,-0.220054 -0.120674,0 -0.220054,0.09938 -0.220054,0.220054 v 0.46377 c -0.05206,-0.05679 -0.134872,-0.139604 -0.331264,-0.139604 -0.366757,0 -0.574981,0.288673 -0.574981,0.688556 z m 0.442475,-0.0095 c 0,-0.220055 0.07808,-0.37149 0.24135,-0.37149 0.163266,0 0.234251,0.151435 0.234251,0.369124 0,0.220054 -0.07335,0.371489 -0.236617,0.371489 -0.163266,0 -0.238984,-0.153801 -0.238984,-0.369123 z"
         style="fill:#ffccaa;fill-opacity:1;stroke-width:0.12675935"
         id="path865"
         inkscape:connector-curvature="0" />
      <path
         d="m 36.679186,30.203203 c 0,0.414081 0.274477,0.676726 0.721684,0.676726 0.231885,0 0.485065,-0.07572 0.485065,-0.269744 0,-0.101745 -0.08045,-0.182195 -0.177463,-0.182195 -0.146703,0 -0.165632,0.14197 -0.343095,0.14197 -0.149069,0 -0.248448,-0.09938 -0.265012,-0.25318 h 0.698022 c 0.151435,0 0.194026,-0.07572 0.194026,-0.208224 0,-0.276842 -0.227153,-0.586811 -0.645965,-0.586811 -0.411715,0 -0.667262,0.288673 -0.667262,0.681458 z m 0.423546,-0.144336 c 0.01656,-0.151435 0.104111,-0.246082 0.236617,-0.246082 0.132506,0 0.22242,0.09465 0.229519,0.246082 z"
         style="fill:#ffccaa;fill-opacity:1;stroke-width:0.12675935"
         id="path867"
         inkscape:connector-curvature="0" />
      <path
         d="m 38.811331,30.643312 c 0,0.120675 0.09938,0.220054 0.220054,0.220054 0.120675,0 0.220055,-0.09938 0.220055,-0.220054 v -0.388053 c 0,-0.170364 0.05442,-0.340729 0.250814,-0.340729 0.115943,0 0.184562,-0.09701 0.184562,-0.186928 0,-0.07572 -0.04732,-0.19166 -0.205857,-0.19166 -0.141971,0 -0.203491,0.146703 -0.250815,0.260279 h -0.0095 v -0.05679 c 0,-0.11121 -0.09228,-0.203491 -0.205857,-0.203491 -0.11121,0 -0.203491,0.09228 -0.203491,0.203491 z"
         style="fill:#ffccaa;fill-opacity:1;stroke-width:0.12675935"
         id="path869"
         inkscape:connector-curvature="0" />
      <path
         d="m 39.871673,30.373568 c 0,0.279209 0.111211,0.501629 0.454306,0.501629 0.210589,0 0.328898,-0.125407 0.392785,-0.265012 v 0.04969 c 0,0.11121 0.09228,0.203491 0.203491,0.203491 0.113576,0 0.205857,-0.09228 0.205857,-0.203491 v -0.903879 c 0,-0.120675 -0.09938,-0.220054 -0.220054,-0.220054 -0.120675,0 -0.220054,0.09938 -0.220054,0.220054 v 0.501629 c 0,0.191661 -0.08045,0.286307 -0.201125,0.286307 -0.06862,0 -0.175097,-0.04022 -0.175097,-0.238983 v -0.548953 c 0,-0.120675 -0.09938,-0.220054 -0.220054,-0.220054 -0.120675,0 -0.220055,0.09938 -0.220055,0.220054 z"
         style="fill:#ffccaa;fill-opacity:1;stroke-width:0.12675935"
         id="path871"
         inkscape:connector-curvature="0" />
      <path
         d="m 42.016019,30.373568 c 0,0.279209 0.11121,0.501629 0.454305,0.501629 0.21059,0 0.328898,-0.125407 0.392785,-0.265012 v 0.04969 c 0,0.11121 0.09228,0.203491 0.203491,0.203491 0.113577,0 0.205857,-0.09228 0.205857,-0.203491 v -0.903879 c 0,-0.120675 -0.09938,-0.220054 -0.220054,-0.220054 -0.120675,0 -0.220054,0.09938 -0.220054,0.220054 v 0.501629 c 0,0.191661 -0.08045,0.286307 -0.201125,0.286307 -0.06862,0 -0.175097,-0.04022 -0.175097,-0.238983 v -0.548953 c 0,-0.120675 -0.09938,-0.220054 -0.220054,-0.220054 -0.120675,0 -0.220054,0.09938 -0.220054,0.220054 z"
         style="fill:#ffccaa;fill-opacity:1;stroke-width:0.12675935"
         id="path873"
         inkscape:connector-curvature="0" />
      <path
         d="m 43.580652,30.645678 c 0,0.120675 0.09701,0.217688 0.217688,0.217688 0.123041,0 0.220054,-0.09701 0.220054,-0.217688 V 30.45875 l 0.113576,-0.127773 0.262646,0.43301 c 0.03549,0.05915 0.101745,0.09938 0.177463,0.09938 0.113576,0 0.205857,-0.09228 0.205857,-0.205857 0,-0.04022 -0.01183,-0.07808 -0.03076,-0.108844 l -0.305237,-0.492164 0.201125,-0.222421 c 0.02839,-0.03313 0.04732,-0.07335 0.04732,-0.120675 0,-0.09701 -0.08045,-0.177463 -0.177463,-0.177463 -0.05442,0 -0.104111,0.0213 -0.137238,0.06152 l -0.357292,0.421179 v -0.81633 c 0,-0.120675 -0.09701,-0.217688 -0.217688,-0.217688 -0.123041,0 -0.220054,0.09701 -0.220054,0.217688 z"
         style="fill:#ffccaa;fill-opacity:1;stroke-width:0.12675935"
         id="path875"
         inkscape:connector-curvature="0" />
    </g>
  </g>
  <g
     inkscape:label="Layer 1"
     inkscape:groupmode="layer"
     id="layer1"
     style="display:inline">
    <text
       xml:space="preserve"
       style="font-style:normal;font-variant:normal;font-weight:normal;font-stretch:normal;font-size:10.58333302px;line-height:1.25;font-family:Jellee;-inkscape-font-specification:Jellee;letter-spacing:0px;word-spacing:0px;fill:#000000;fill-opacity:1;stroke:none;stroke-width:0.26458332"
       x="43.920834"
       y="38.490623"
       id="text48"><tspan
         sodipodi:role="line"
         id="tspan46"
         x="43.920834"
         y="48.047375"
         style="stroke-width:0.26458332" /></text>
    <text
       xml:space="preserve"
       style="font-style:normal;font-variant:normal;font-weight:normal;font-stretch:normal;font-size:4.53231859px;line-height:1.25;font-family:Jellee;-inkscape-font-specification:Jellee;letter-spacing:0px;word-spacing:0px;fill:url(#linearGradient1135);fill-opacity:1;fill-rule:nonzero;stroke:none;stroke-width:0.28326991"
       x="31.597723"
       y="26.578157"
       id="text930"><tspan
         sodipodi:role="line"
         id="tspan928"
         x="31.597723"
         y="26.578157"
         style="fill:url(#linearGradient1135);fill-opacity:1;fill-rule:nonzero;stroke-width:0.28326991"><tspan
   style="fill:url(#linearGradient1135);fill-opacity:1;fill-rule:nonzero;stroke-width:0.28326991"
   id="tspan1006">en</tspan> de ru uk</tspan></text>
  </g>
  <g
     inkscape:groupmode="layer"
     id="layer2"
     inkscape:label="Layer 2"
     sodipodi:insensitive="true"
     style="display:none">
    <path
       style="fill:none;stroke:#000000;stroke-width:0.26458332px;stroke-linecap:butt;stroke-linejoin:miter;stroke-opacity:1"
       d="M 0,0 89.999999,50"
       id="path42"
       inkscape:connector-curvature="0" />
    <path
       style="fill:none;stroke:#000000;stroke-width:0.26458332px;stroke-linecap:butt;stroke-linejoin:miter;stroke-opacity:1"
       d="M 0,50 89.999999,0"
       id="path44"
       inkscape:connector-curvature="0" />
  </g>
</svg>
