<?xml version="1.0" encoding="UTF-8" standalone="no"?>
<!-- Created with Inkscape (http://www.inkscape.org/) -->

<svg
   xmlns:dc="http://purl.org/dc/elements/1.1/"
   xmlns:cc="http://creativecommons.org/ns#"
   xmlns:rdf="http://www.w3.org/1999/02/22-rdf-syntax-ns#"
   xmlns:svg="http://www.w3.org/2000/svg"
   xmlns="http://www.w3.org/2000/svg"
   xmlns:sodipodi="http://sodipodi.sourceforge.net/DTD/sodipodi-0.dtd"
   xmlns:inkscape="http://www.inkscape.org/namespaces/inkscape"
   width="90mm"
   height="50mm"
   viewBox="0 0 90 50"
   version="1.1"
   id="SVGRoot"
   inkscape:version="0.92.4 (5da689c313, 2019-01-14)"
   sodipodi:docname="business_card_back.svg">
  <defs
     id="defs6539" />
  <sodipodi:namedview
     id="base"
     pagecolor="#ffffff"
     bordercolor="#666666"
     borderopacity="1.0"
     inkscape:pageopacity="0.0"
     inkscape:pageshadow="2"
     inkscape:zoom="2"
     inkscape:cx="127.85162"
     inkscape:cy="129.2912"
     inkscape:document-units="mm"
     inkscape:current-layer="layer1"
     showgrid="false"
     inkscape:window-width="1600"
     inkscape:window-height="836"
     inkscape:window-x="0"
     inkscape:window-y="27"
     inkscape:window-maximized="1"
     inkscape:snap-bbox="true"
     inkscape:bbox-paths="true"
     inkscape:bbox-nodes="true"
     inkscape:snap-bbox-edge-midpoints="true"
     inkscape:snap-bbox-midpoints="true"
     inkscape:snap-intersection-paths="true"
     inkscape:object-paths="true"
     inkscape:snap-smooth-nodes="true"
     inkscape:snap-midpoints="true"
     inkscape:snap-object-midpoints="true"
     inkscape:snap-center="true"
     inkscape:snap-text-baseline="true"
     inkscape:snap-page="true"
     showguides="true"
     inkscape:guide-bbox="true" />
  <metadata
     id="metadata6542">
    <rdf:RDF>
      <cc:Work
         rdf:about="">
        <dc:format>image/svg+xml</dc:format>
        <dc:type
           rdf:resource="http://purl.org/dc/dcmitype/StillImage" />
        <dc:title />
      </cc:Work>
    </rdf:RDF>
  </metadata>
  <g
     inkscape:label="Layer 1"
     inkscape:groupmode="layer"
     id="layer1">
    <g
       aria-label="I don't bite"
       style="font-style:normal;font-variant:normal;font-weight:normal;font-stretch:normal;font-size:4.93888855px;line-height:1.25;font-family:Comfortaa;-inkscape-font-specification:Comfortaa;letter-spacing:0px;word-spacing:0px;fill:#ffb380;fill-opacity:1;stroke:none;stroke-width:0.26458332"
       id="text7262">
      <path
         d="m 31.467831,26.46932 c 0,0.261761 0.212372,0.474133 0.474133,0.474133 0.261761,0 0.474133,-0.212372 0.474133,-0.474133 v -2.859617 c 0,-0.261761 -0.212372,-0.474133 -0.474133,-0.474133 -0.261761,0 -0.474133,0.212372 -0.474133,0.474133 z"
         style="font-style:normal;font-variant:normal;font-weight:normal;font-stretch:normal;font-family:Jellee;-inkscape-font-specification:Jellee;fill:#ffb380;stroke-width:0.26458332"
         id="path878" />
      <path
         d="m 34.20791,25.595137 c 0,0.824794 0.424745,1.363133 1.150761,1.363133 0.385234,0 0.651934,-0.153106 0.814917,-0.3556 0.03951,0.202494 0.212372,0.350661 0.419806,0.350661 0.261761,0 0.424744,-0.22225 0.424744,-0.523522 v -2.948517 c 0,-0.251883 -0.207433,-0.459316 -0.459317,-0.459316 -0.251883,0 -0.459316,0.207433 -0.459316,0.459316 v 0.968022 C 35.990849,24.330781 35.817988,24.15792 35.40806,24.15792 c -0.765527,0 -1.20015,0.602544 -1.20015,1.437217 z m 0.923573,-0.01976 c 0,-0.459317 0.162983,-0.775405 0.503766,-0.775405 0.340784,0 0.48895,0.316088 0.48895,0.770466 0,0.459317 -0.153105,0.775406 -0.493889,0.775406 -0.340783,0 -0.498827,-0.321028 -0.498827,-0.770467 z"
         style="font-style:normal;font-variant:normal;font-weight:normal;font-stretch:normal;font-family:Jellee;-inkscape-font-specification:Jellee;fill:#ffb380;stroke-width:0.26458332"
         id="path880" />
      <path
         d="m 37.51141,25.565503 c 0,0.805039 0.493889,1.412522 1.402644,1.412522 0.908756,0 1.432278,-0.602544 1.432278,-1.422399 0,-0.8001 -0.493889,-1.412523 -1.412522,-1.412523 -0.908756,0 -1.4224,0.602545 -1.4224,1.4224 z m 0.918633,-0.0099 c 0,-0.454378 0.153106,-0.75565 0.493889,-0.75565 0.345722,0 0.498828,0.306211 0.498828,0.760588 0,0.459317 -0.153106,0.760589 -0.493889,0.760589 -0.340784,0 -0.498828,-0.301272 -0.498828,-0.765527 z"
         style="font-style:normal;font-variant:normal;font-weight:normal;font-stretch:normal;font-family:Jellee;-inkscape-font-specification:Jellee;fill:#ffb380;stroke-width:0.26458332"
         id="path882" />
      <path
         d="m 40.842844,26.484137 c 0,0.251883 0.207433,0.459316 0.459317,0.459316 0.251883,0 0.459316,-0.207433 0.459316,-0.459316 v -1.02235 c 0,-0.513645 0.256822,-0.607484 0.4445,-0.607484 0.158045,0 0.390172,0.07902 0.390172,0.493889 v 1.135945 c 0,0.251883 0.207434,0.459316 0.459317,0.459316 0.251883,0 0.459317,-0.207433 0.459317,-0.459316 v -1.279173 c 0,-0.617361 -0.261761,-1.047044 -0.948267,-1.047044 -0.459317,0 -0.735894,0.246945 -0.869244,0.508706 v -0.06915 c 0,-0.232128 -0.192617,-0.424744 -0.429684,-0.424744 -0.232127,0 -0.424744,0.192616 -0.424744,0.424744 z"
         style="font-style:normal;font-variant:normal;font-weight:normal;font-stretch:normal;font-family:Jellee;-inkscape-font-specification:Jellee;fill:#ffb380;stroke-width:0.26458332"
         id="path884" />
      <path
         d="m 44.147038,23.594887 0.167922,1.145822 c 0.01482,0.113594 0.113595,0.192617 0.227189,0.192617 0.113594,0 0.212372,-0.07902 0.227189,-0.192617 l 0.167922,-1.145822 c 0.03457,-0.237067 -0.153105,-0.459317 -0.395111,-0.459317 -0.242006,0 -0.429683,0.22225 -0.395111,0.459317 z"
         style="font-style:normal;font-variant:normal;font-weight:normal;font-stretch:normal;font-family:Jellee;-inkscape-font-specification:Jellee;fill:#ffb380;stroke-width:0.26458332"
         id="path886" />
      <path
         d="m 45.311998,24.518459 c 0,0.162983 0.13335,0.301272 0.301272,0.301272 h 0.138289 l -0.0049,1.180395 c -0.0049,0.637116 0.217311,0.963083 0.864306,0.963083 0.31115,0 0.671689,-0.0099 0.671689,-0.375356 0,-0.172861 -0.148167,-0.237066 -0.3556,-0.296333 -0.113595,-0.02963 -0.2667,-0.0889 -0.2667,-0.370417 v -1.101372 h 0.271638 c 0.167923,0 0.301273,-0.138289 0.301273,-0.306211 0,-0.162983 -0.13335,-0.301272 -0.301273,-0.301272 h -0.291394 v -0.340783 c 0,-0.232128 -0.187678,-0.419806 -0.419806,-0.419806 -0.22225,0 -0.409927,0.1778 -0.419805,0.395111 l -0.01976,0.365478 H 45.61327 c -0.167922,0 -0.301272,0.138289 -0.301272,0.306211 z"
         style="font-style:normal;font-variant:normal;font-weight:normal;font-stretch:normal;font-family:Jellee;-inkscape-font-specification:Jellee;fill:#ffb380;stroke-width:0.26458332"
         id="path888" />
      <path
         d="m 48.945709,26.523648 c 0,0.232127 0.187678,0.419805 0.419806,0.419805 0.207433,0 0.385233,-0.143228 0.424744,-0.330905 0.113595,0.138289 0.316089,0.350661 0.805039,0.350661 0.651933,0 1.160639,-0.548217 1.160639,-1.456972 0,-0.735895 -0.350661,-1.348317 -1.11125,-1.348317 -0.4445,0 -0.66675,0.232128 -0.780345,0.439561 v -1.116189 c 0,-0.251883 -0.207433,-0.459316 -0.459316,-0.459316 -0.251883,0 -0.459317,0.207433 -0.459317,0.459316 z m 0.893939,-0.968022 c 0,-0.528462 0.212372,-0.75565 0.503767,-0.75565 0.251883,0 0.48895,0.197555 0.48895,0.75565 0,0.558094 -0.232128,0.790222 -0.498828,0.790222 -0.2667,0 -0.493889,-0.202495 -0.493889,-0.790222 z"
         style="font-style:normal;font-variant:normal;font-weight:normal;font-stretch:normal;font-family:Jellee;-inkscape-font-specification:Jellee;fill:#ffb380;stroke-width:0.26458332"
         id="path890" />
      <path
         d="m 52.224514,23.44672 c 0,0.212372 0.172861,0.385233 0.385233,0.385233 h 0.227189 c 0.212372,0 0.385233,-0.172861 0.385233,-0.385233 0,-0.212372 -0.172861,-0.385233 -0.385233,-0.385233 h -0.227189 c -0.212372,0 -0.385233,0.172861 -0.385233,0.385233 z m 0.03951,3.037417 c 0,0.251883 0.207433,0.459316 0.459316,0.459316 0.251884,0 0.459317,-0.207433 0.459317,-0.459316 v -1.852084 c 0,-0.251883 -0.207433,-0.459316 -0.459317,-0.459316 -0.251883,0 -0.459316,0.207433 -0.459316,0.459316 z"
         style="font-style:normal;font-variant:normal;font-weight:normal;font-stretch:normal;font-family:Jellee;-inkscape-font-specification:Jellee;fill:#ffb380;stroke-width:0.26458332"
         id="path892" />
      <path
         d="m 53.540264,24.518459 c 0,0.162983 0.13335,0.301272 0.301272,0.301272 h 0.138289 l -0.0049,1.180395 c -0.0049,0.637116 0.217311,0.963083 0.864305,0.963083 0.31115,0 0.671689,-0.0099 0.671689,-0.375356 0,-0.172861 -0.148166,-0.237066 -0.3556,-0.296333 -0.113594,-0.02963 -0.2667,-0.0889 -0.2667,-0.370417 v -1.101372 h 0.271639 c 0.167922,0 0.301272,-0.138289 0.301272,-0.306211 0,-0.162983 -0.13335,-0.301272 -0.301272,-0.301272 h -0.291394 v -0.340783 c 0,-0.232128 -0.187678,-0.419806 -0.419806,-0.419806 -0.22225,0 -0.409928,0.1778 -0.419805,0.395111 l -0.01976,0.365478 h -0.167922 c -0.167922,0 -0.301272,0.138289 -0.301272,0.306211 z"
         style="font-style:normal;font-variant:normal;font-weight:normal;font-stretch:normal;font-family:Jellee;-inkscape-font-specification:Jellee;fill:#ffb380;stroke-width:0.26458332"
         id="path894" />
      <path
         d="m 55.791084,25.565503 c 0,0.864306 0.572911,1.412522 1.506361,1.412522 0.484011,0 1.012472,-0.158044 1.012472,-0.563033 0,-0.212372 -0.167922,-0.380294 -0.370416,-0.380294 -0.306211,0 -0.345722,0.296333 -0.716139,0.296333 -0.31115,0 -0.518583,-0.207433 -0.553156,-0.528461 h 1.456973 c 0.316088,0 0.404988,-0.158044 0.404988,-0.434622 0,-0.57785 -0.474133,-1.224845 -1.348316,-1.224845 -0.859367,0 -1.392767,0.602545 -1.392767,1.4224 z m 0.884061,-0.301272 c 0.03457,-0.316089 0.217311,-0.513644 0.493889,-0.513644 0.276578,0 0.464256,0.197555 0.479072,0.513644 z"
         style="font-style:normal;font-variant:normal;font-weight:normal;font-stretch:normal;font-family:Jellee;-inkscape-font-specification:Jellee;fill:#ffb380;stroke-width:0.26458332"
         id="path896" />
    </g>
    <g
       aria-label="en de ru uk"
       style="font-style:normal;font-variant:normal;font-weight:normal;font-stretch:normal;font-size:2.36617446px;line-height:1.25;font-family:Comfortaa;-inkscape-font-specification:Comfortaa;letter-spacing:0px;word-spacing:0px;fill:#ffb380;fill-opacity:1;stroke:none;stroke-width:0.12675935"
       id="text7271">
      <path
         d="m 31.452344,30.203203 c 0,0.414081 0.274476,0.676726 0.721683,0.676726 0.231885,0 0.485066,-0.07572 0.485066,-0.269744 0,-0.101745 -0.08045,-0.182195 -0.177463,-0.182195 -0.146703,0 -0.165632,0.14197 -0.343095,0.14197 -0.149069,0 -0.248449,-0.09938 -0.265012,-0.25318 h 0.698021 c 0.151436,0 0.194027,-0.07572 0.194027,-0.208224 0,-0.276842 -0.227153,-0.586811 -0.645966,-0.586811 -0.411714,0 -0.667261,0.288673 -0.667261,0.681458 z m 0.423545,-0.144336 c 0.01656,-0.151435 0.104112,-0.246082 0.236618,-0.246082 0.132505,0 0.22242,0.09465 0.229519,0.246082 z"
         style="fill:#ff8080;stroke-width:0.12675935"
         id="path861" />
      <path
         d="m 32.992945,30.643312 c 0,0.120675 0.09938,0.220054 0.220055,0.220054 0.120674,0 0.220054,-0.09938 0.220054,-0.220054 v -0.489798 c 0,-0.246082 0.123041,-0.29104 0.212955,-0.29104 0.07572,0 0.186928,0.03786 0.186928,0.236618 v 0.54422 c 0,0.120675 0.09938,0.220054 0.220054,0.220054 0.120675,0 0.220055,-0.09938 0.220055,-0.220054 v -0.612839 c 0,-0.295772 -0.125408,-0.501629 -0.454306,-0.501629 -0.220054,0 -0.35256,0.118308 -0.416446,0.243716 v -0.03313 c 0,-0.11121 -0.09228,-0.203491 -0.205858,-0.203491 -0.11121,0 -0.203491,0.09228 -0.203491,0.203491 z"
         style="fill:#ff8080;stroke-width:0.12675935"
         id="path863" />
      <path
         d="m 35.096511,30.2174 c 0,0.395152 0.203491,0.653065 0.551319,0.653065 0.184562,0 0.312335,-0.07335 0.390419,-0.170365 0.01893,0.09701 0.101745,0.167998 0.201125,0.167998 0.125407,0 0.203491,-0.106477 0.203491,-0.250814 v -1.412606 c 0,-0.120675 -0.09938,-0.220054 -0.220055,-0.220054 -0.120674,0 -0.220054,0.09938 -0.220054,0.220054 v 0.46377 c -0.05206,-0.05679 -0.134872,-0.139604 -0.331264,-0.139604 -0.366757,0 -0.574981,0.288673 -0.574981,0.688556 z m 0.442475,-0.0095 c 0,-0.220055 0.07808,-0.37149 0.24135,-0.37149 0.163266,0 0.234251,0.151435 0.234251,0.369124 0,0.220054 -0.07335,0.371489 -0.236617,0.371489 -0.163266,0 -0.238984,-0.153801 -0.238984,-0.369123 z"
         style="fill:#ac9d93;stroke-width:0.12675935"
         id="path865" />
      <path
         d="m 36.679186,30.203203 c 0,0.414081 0.274477,0.676726 0.721684,0.676726 0.231885,0 0.485065,-0.07572 0.485065,-0.269744 0,-0.101745 -0.08045,-0.182195 -0.177463,-0.182195 -0.146703,0 -0.165632,0.14197 -0.343095,0.14197 -0.149069,0 -0.248448,-0.09938 -0.265012,-0.25318 h 0.698022 c 0.151435,0 0.194026,-0.07572 0.194026,-0.208224 0,-0.276842 -0.227153,-0.586811 -0.645965,-0.586811 -0.411715,0 -0.667262,0.288673 -0.667262,0.681458 z m 0.423546,-0.144336 c 0.01656,-0.151435 0.104111,-0.246082 0.236617,-0.246082 0.132506,0 0.22242,0.09465 0.229519,0.246082 z"
         style="fill:#ac9d93;stroke-width:0.12675935"
         id="path867" />
      <path
         d="m 38.811331,30.643312 c 0,0.120675 0.09938,0.220054 0.220054,0.220054 0.120675,0 0.220055,-0.09938 0.220055,-0.220054 v -0.388053 c 0,-0.170364 0.05442,-0.340729 0.250814,-0.340729 0.115943,0 0.184562,-0.09701 0.184562,-0.186928 0,-0.07572 -0.04732,-0.19166 -0.205857,-0.19166 -0.141971,0 -0.203491,0.146703 -0.250815,0.260279 h -0.0095 v -0.05679 c 0,-0.11121 -0.09228,-0.203491 -0.205857,-0.203491 -0.11121,0 -0.203491,0.09228 -0.203491,0.203491 z"
         style="fill:#00aad4;stroke-width:0.12675935"
         id="path869" />
      <path
         d="m 39.871673,30.373568 c 0,0.279209 0.111211,0.501629 0.454306,0.501629 0.210589,0 0.328898,-0.125407 0.392785,-0.265012 v 0.04969 c 0,0.11121 0.09228,0.203491 0.203491,0.203491 0.113576,0 0.205857,-0.09228 0.205857,-0.203491 v -0.903879 c 0,-0.120675 -0.09938,-0.220054 -0.220054,-0.220054 -0.120675,0 -0.220054,0.09938 -0.220054,0.220054 v 0.501629 c 0,0.191661 -0.08045,0.286307 -0.201125,0.286307 -0.06862,0 -0.175097,-0.04022 -0.175097,-0.238983 v -0.548953 c 0,-0.120675 -0.09938,-0.220054 -0.220054,-0.220054 -0.120675,0 -0.220055,0.09938 -0.220055,0.220054 z"
         style="fill:#00aad4;stroke-width:0.12675935"
         id="path871" />
      <path
         d="m 42.016019,30.373568 c 0,0.279209 0.11121,0.501629 0.454305,0.501629 0.21059,0 0.328898,-0.125407 0.392785,-0.265012 v 0.04969 c 0,0.11121 0.09228,0.203491 0.203491,0.203491 0.113577,0 0.205857,-0.09228 0.205857,-0.203491 v -0.903879 c 0,-0.120675 -0.09938,-0.220054 -0.220054,-0.220054 -0.120675,0 -0.220054,0.09938 -0.220054,0.220054 v 0.501629 c 0,0.191661 -0.08045,0.286307 -0.201125,0.286307 -0.06862,0 -0.175097,-0.04022 -0.175097,-0.238983 v -0.548953 c 0,-0.120675 -0.09938,-0.220054 -0.220054,-0.220054 -0.120675,0 -0.220054,0.09938 -0.220054,0.220054 z"
         style="fill:#ff55dd;stroke-width:0.12675935"
         id="path873" />
      <path
         d="m 43.580652,30.645678 c 0,0.120675 0.09701,0.217688 0.217688,0.217688 0.123041,0 0.220054,-0.09701 0.220054,-0.217688 V 30.45875 l 0.113576,-0.127773 0.262646,0.43301 c 0.03549,0.05915 0.101745,0.09938 0.177463,0.09938 0.113576,0 0.205857,-0.09228 0.205857,-0.205857 0,-0.04022 -0.01183,-0.07808 -0.03076,-0.108844 l -0.305237,-0.492164 0.201125,-0.222421 c 0.02839,-0.03313 0.04732,-0.07335 0.04732,-0.120675 0,-0.09701 -0.08045,-0.177463 -0.177463,-0.177463 -0.05442,0 -0.104111,0.0213 -0.137238,0.06152 l -0.357292,0.421179 v -0.81633 c 0,-0.120675 -0.09701,-0.217688 -0.217688,-0.217688 -0.123041,0 -0.220054,0.09701 -0.220054,0.217688 z"
         style="fill:#ff55dd;stroke-width:0.12675935"
         id="path875" />
    </g>
    <g
       aria-label="write anything"
       style="font-style:normal;font-variant:normal;font-weight:normal;font-stretch:normal;font-size:2.36617446px;line-height:1.25;font-family:Comfortaa;-inkscape-font-specification:Comfortaa;letter-spacing:0px;word-spacing:0px;fill:#ffb380;fill-opacity:1;stroke:none;stroke-width:0.12675935"
       id="text7303">
      <path
         d="m 40.770031,20.28511 c 0,0.01656 0.0047,0.03313 0.0071,0.04732 l 0.198758,0.825795 c 0.03313,0.14197 0.1609,0.248448 0.314702,0.248448 0.153801,0 0.281574,-0.106478 0.314701,-0.25318 l 0.07099,-0.317068 c 0.0142,-0.06389 0.02603,-0.137238 0.03549,-0.194026 l 0.01656,-0.09938 h 0.01656 c 0.0024,0.03313 0.0071,0.06625 0.0142,0.09938 0.0095,0.05679 0.0213,0.132506 0.03549,0.196392 l 0.06862,0.309969 c 0.03313,0.149069 0.163266,0.257913 0.3218,0.257913 0.153801,0 0.283941,-0.106478 0.319433,-0.250814 l 0.201125,-0.83526 c 0.0024,-0.0142 0.0071,-0.03076 0.0071,-0.04496 0,-0.108844 -0.08755,-0.196393 -0.196392,-0.196393 -0.09465,0 -0.175097,0.06625 -0.19166,0.158534 l -0.08282,0.437742 c -0.0142,0.07808 -0.02839,0.175097 -0.04022,0.257913 l -0.01893,0.141971 h -0.0142 l -0.02366,-0.141971 c -0.0142,-0.08282 -0.03076,-0.179829 -0.04969,-0.257913 l -0.08992,-0.390418 c -0.02603,-0.115943 -0.132505,-0.205858 -0.257913,-0.205858 -0.125407,0 -0.231885,0.08992 -0.257913,0.205858 l -0.08991,0.390418 c -0.01893,0.07808 -0.03549,0.165633 -0.04732,0.238984 l -0.0213,0.123041 h -0.0142 l -0.01656,-0.123041 c -0.01183,-0.07335 -0.02603,-0.1609 -0.04022,-0.238984 l -0.08282,-0.430643 c -0.01893,-0.09465 -0.101745,-0.165633 -0.201125,-0.165633 -0.113576,0 -0.205857,0.09228 -0.205857,0.205858 z"
         style="font-style:normal;font-variant:normal;font-weight:normal;font-stretch:normal;font-family:Jellee;-inkscape-font-specification:Jellee;fill:#999999;stroke-width:0.12675935"
         id="path834" />
      <path
         d="m 42.934859,21.186622 c 0,0.120675 0.09938,0.220054 0.220054,0.220054 0.120675,0 0.220055,-0.09938 0.220055,-0.220054 v -0.388053 c 0,-0.170364 0.05442,-0.340729 0.250814,-0.340729 0.115943,0 0.184562,-0.09701 0.184562,-0.186928 0,-0.07572 -0.04732,-0.19166 -0.205857,-0.19166 -0.141971,0 -0.203491,0.146703 -0.250815,0.26028 h -0.0095 v -0.05679 c 0,-0.11121 -0.09228,-0.203491 -0.205857,-0.203491 -0.11121,0 -0.203491,0.09228 -0.203491,0.203491 z"
         style="font-style:normal;font-variant:normal;font-weight:normal;font-stretch:normal;font-family:Jellee;-inkscape-font-specification:Jellee;fill:#999999;stroke-width:0.12675935"
         id="path836" />
      <path
         d="m 43.988102,19.731425 c 0,0.101745 0.08282,0.184561 0.184562,0.184561 h 0.108844 c 0.101746,0 0.184562,-0.08282 0.184562,-0.184561 0,-0.101746 -0.08282,-0.184562 -0.184562,-0.184562 h -0.108844 c -0.101745,0 -0.184562,0.08282 -0.184562,0.184562 z m 0.01893,1.455197 c 0,0.120675 0.09938,0.220054 0.220054,0.220054 0.120675,0 0.220054,-0.09938 0.220054,-0.220054 v -0.887315 c 0,-0.120675 -0.09938,-0.220055 -0.220054,-0.220055 -0.120675,0 -0.220054,0.09938 -0.220054,0.220055 z"
         style="font-style:normal;font-variant:normal;font-weight:normal;font-stretch:normal;font-family:Jellee;-inkscape-font-specification:Jellee;fill:#999999;stroke-width:0.12675935"
         id="path838" />
      <path
         d="m 44.618466,20.244885 c 0,0.07808 0.06389,0.144336 0.144337,0.144336 h 0.06625 l -0.0024,0.565516 c -0.0024,0.305236 0.104111,0.461404 0.41408,0.461404 0.149069,0 0.3218,-0.0047 0.3218,-0.179829 0,-0.08282 -0.07099,-0.113577 -0.170365,-0.141971 -0.05442,-0.0142 -0.127773,-0.04259 -0.127773,-0.177463 v -0.527657 h 0.130139 c 0.08045,0 0.144337,-0.06625 0.144337,-0.146703 0,-0.07808 -0.06389,-0.144336 -0.144337,-0.144336 h -0.139604 v -0.163266 c 0,-0.111211 -0.08991,-0.201125 -0.201125,-0.201125 -0.106478,0 -0.196392,0.08518 -0.201125,0.189294 l -0.0095,0.175097 h -0.08045 c -0.08045,0 -0.144337,0.06625 -0.144337,0.146703 z"
         style="font-style:normal;font-variant:normal;font-weight:normal;font-stretch:normal;font-family:Jellee;-inkscape-font-specification:Jellee;fill:#999999;stroke-width:0.12675935"
         id="path840" />
      <path
         d="m 45.696813,20.746514 c 0,0.41408 0.274476,0.676725 0.721683,0.676725 0.231885,0 0.485066,-0.07572 0.485066,-0.269743 0,-0.101746 -0.08045,-0.182196 -0.177463,-0.182196 -0.146703,0 -0.165632,0.141971 -0.343095,0.141971 -0.149069,0 -0.248449,-0.09938 -0.265012,-0.253181 h 0.698022 c 0.151435,0 0.194026,-0.07572 0.194026,-0.208223 0,-0.276843 -0.227153,-0.586812 -0.645966,-0.586812 -0.411714,0 -0.667261,0.288674 -0.667261,0.681459 z m 0.423545,-0.144337 c 0.01656,-0.151435 0.104112,-0.246082 0.236618,-0.246082 0.132506,0 0.22242,0.09465 0.229519,0.246082 z"
         style="font-style:normal;font-variant:normal;font-weight:normal;font-stretch:normal;font-family:Jellee;-inkscape-font-specification:Jellee;fill:#999999;stroke-width:0.12675935"
         id="path842" />
      <path
         d="m 47.757973,21.025722 c 0,0.253181 0.201125,0.392785 0.440109,0.392785 0.170364,0 0.30287,-0.04732 0.404615,-0.186928 0.0142,0.09938 0.09938,0.175097 0.203491,0.175097 0.115943,0 0.203491,-0.09465 0.203491,-0.210589 v -0.59391 c 0,-0.395151 -0.227152,-0.537122 -0.598642,-0.537122 -0.227152,0 -0.570248,0.06389 -0.570248,0.288674 0,0.106477 0.08518,0.17273 0.189294,0.17273 0.144337,0 0.175097,-0.149069 0.376222,-0.149069 0.165632,0 0.179829,0.09228 0.179829,0.229519 h -0.1609 c -0.293405,0 -0.667261,0.04496 -0.667261,0.418813 z m 0.430644,-0.02603 c 0,-0.139604 0.151435,-0.158533 0.260279,-0.158533 H 48.5885 v 0.0213 c 0,0.151435 -0.08518,0.274476 -0.246082,0.274476 -0.08518,0 -0.153801,-0.04732 -0.153801,-0.137238 z"
         style="font-style:normal;font-variant:normal;font-weight:normal;font-stretch:normal;font-family:Jellee;-inkscape-font-specification:Jellee;fill:#999999;stroke-width:0.12675935"
         id="path844" />
      <path
         d="m 49.312438,21.186622 c 0,0.120675 0.09938,0.220054 0.220055,0.220054 0.120675,0 0.220054,-0.09938 0.220054,-0.220054 v -0.489798 c 0,-0.246082 0.123041,-0.29104 0.212956,-0.29104 0.07572,0 0.186927,0.03786 0.186927,0.236618 v 0.54422 c 0,0.120675 0.09938,0.220054 0.220055,0.220054 0.120674,0 0.220054,-0.09938 0.220054,-0.220054 v -0.612839 c 0,-0.295772 -0.125407,-0.501629 -0.454306,-0.501629 -0.220054,0 -0.35256,0.118309 -0.416446,0.243716 v -0.03313 c 0,-0.11121 -0.09228,-0.203491 -0.205858,-0.203491 -0.11121,0 -0.203491,0.09228 -0.203491,0.203491 z"
         style="font-style:normal;font-variant:normal;font-weight:normal;font-stretch:normal;font-family:Jellee;-inkscape-font-specification:Jellee;fill:#999999;stroke-width:0.12675935"
         id="path846" />
      <path
         d="m 50.805532,20.292208 c 0,0.02603 0.0047,0.05206 0.0142,0.07335 l 0.390419,1.041117 -0.09465,0.255547 c -0.0071,0.0213 -0.0142,0.04496 -0.0142,0.07099 0,0.108844 0.08991,0.198759 0.198758,0.198759 0.08755,0 0.158534,-0.05442 0.186928,-0.13014 l 0.54422,-1.455197 c 0.0071,-0.0213 0.01183,-0.04496 0.01183,-0.06862 0,-0.11121 -0.08755,-0.198759 -0.196392,-0.198759 -0.08991,0 -0.163266,0.05916 -0.189294,0.137238 l -0.151435,0.475602 c -0.0213,0.06389 -0.03549,0.127773 -0.04496,0.175096 -0.0071,0.02839 -0.01183,0.05442 -0.0142,0.08045 h -0.0142 c -0.0024,-0.02603 -0.0047,-0.05206 -0.0095,-0.08045 -0.0071,-0.04969 -0.02129,-0.106477 -0.04496,-0.175096 l -0.158534,-0.468503 c -0.02839,-0.08518 -0.108844,-0.144337 -0.201124,-0.144337 -0.118309,0 -0.212956,0.09465 -0.212956,0.212956 z"
         style="font-style:normal;font-variant:normal;font-weight:normal;font-stretch:normal;font-family:Jellee;-inkscape-font-specification:Jellee;fill:#999999;stroke-width:0.12675935"
         id="path848" />
      <path
         d="m 52.132918,20.244885 c 0,0.07808 0.06389,0.144336 0.144337,0.144336 h 0.06625 l -0.0024,0.565516 c -0.0024,0.305236 0.104111,0.461404 0.41408,0.461404 0.149069,0 0.3218,-0.0047 0.3218,-0.179829 0,-0.08282 -0.07099,-0.113577 -0.170365,-0.141971 -0.05442,-0.0142 -0.127773,-0.04259 -0.127773,-0.177463 v -0.527657 h 0.130139 c 0.08045,0 0.144337,-0.06625 0.144337,-0.146703 0,-0.07808 -0.06389,-0.144336 -0.144337,-0.144336 h -0.139604 v -0.163266 c 0,-0.111211 -0.08991,-0.201125 -0.201125,-0.201125 -0.106478,0 -0.196392,0.08518 -0.201125,0.189294 l -0.0095,0.175097 h -0.08045 c -0.08045,0 -0.144337,0.06625 -0.144337,0.146703 z"
         style="font-style:normal;font-variant:normal;font-weight:normal;font-stretch:normal;font-family:Jellee;-inkscape-font-specification:Jellee;fill:#999999;stroke-width:0.12675935"
         id="path850" />
      <path
         d="m 53.282251,21.186622 c 0,0.120675 0.09938,0.220054 0.220054,0.220054 0.120675,0 0.220054,-0.09938 0.220054,-0.220054 v -0.492164 c 0,-0.246082 0.123041,-0.29104 0.212956,-0.29104 0.07572,0 0.186928,0.03786 0.186928,0.236618 v 0.546586 c 0,0.120675 0.09938,0.220054 0.220054,0.220054 0.120675,0 0.220054,-0.09938 0.220054,-0.220054 v -0.615205 c 0,-0.295772 -0.125407,-0.501629 -0.454305,-0.501629 -0.208224,0 -0.326532,0.104111 -0.385687,0.224786 v -0.546586 c 0,-0.120675 -0.09938,-0.220054 -0.220054,-0.220054 -0.120675,0 -0.220054,0.09938 -0.220054,0.220054 z"
         style="font-style:normal;font-variant:normal;font-weight:normal;font-stretch:normal;font-family:Jellee;-inkscape-font-specification:Jellee;fill:#999999;stroke-width:0.12675935"
         id="path852" />
      <path
         d="m 54.839231,19.731425 c 0,0.101745 0.08282,0.184561 0.184562,0.184561 h 0.108844 c 0.101745,0 0.184561,-0.08282 0.184561,-0.184561 0,-0.101746 -0.08282,-0.184562 -0.184561,-0.184562 h -0.108844 c -0.101746,0 -0.184562,0.08282 -0.184562,0.184562 z m 0.01893,1.455197 c 0,0.120675 0.09938,0.220054 0.220055,0.220054 0.120675,0 0.220054,-0.09938 0.220054,-0.220054 v -0.887315 c 0,-0.120675 -0.09938,-0.220055 -0.220054,-0.220055 -0.120675,0 -0.220055,0.09938 -0.220055,0.220055 z"
         style="font-style:normal;font-variant:normal;font-weight:normal;font-stretch:normal;font-family:Jellee;-inkscape-font-specification:Jellee;fill:#999999;stroke-width:0.12675935"
         id="path854" />
      <path
         d="m 55.606832,21.186622 c 0,0.120675 0.09938,0.220054 0.220054,0.220054 0.120675,0 0.220054,-0.09938 0.220054,-0.220054 v -0.489798 c 0,-0.246082 0.123041,-0.29104 0.212956,-0.29104 0.07572,0 0.186928,0.03786 0.186928,0.236618 v 0.54422 c 0,0.120675 0.09938,0.220054 0.220054,0.220054 0.120675,0 0.220054,-0.09938 0.220054,-0.220054 v -0.612839 c 0,-0.295772 -0.125407,-0.501629 -0.454305,-0.501629 -0.220054,0 -0.35256,0.118309 -0.416447,0.243716 v -0.03313 c 0,-0.11121 -0.09228,-0.203491 -0.205857,-0.203491 -0.11121,0 -0.203491,0.09228 -0.203491,0.203491 z"
         style="font-style:normal;font-variant:normal;font-weight:normal;font-stretch:normal;font-family:Jellee;-inkscape-font-specification:Jellee;fill:#999999;stroke-width:0.12675935"
         id="path856" />
      <path
         d="m 57.118855,20.72995 c 0,0.338363 0.151435,0.650698 0.537121,0.650698 0.201125,0 0.300505,-0.07808 0.373856,-0.170364 v 0.14197 c 0,0.186928 -0.09228,0.281575 -0.262645,0.281575 -0.08518,0 -0.144337,-0.02366 -0.194027,-0.08518 -0.03313,-0.04022 -0.08518,-0.06625 -0.14197,-0.06625 -0.09938,0 -0.182196,0.08282 -0.182196,0.184561 0,0.06152 0.02839,0.120675 0.07335,0.153802 0.101745,0.07335 0.24135,0.115942 0.421179,0.115942 0.518192,0 0.721683,-0.25318 0.721683,-0.700387 v -0.955935 c 0,-0.11121 -0.08991,-0.201125 -0.203491,-0.201125 -0.09701,0 -0.184562,0.07099 -0.201125,0.163266 -0.06625,-0.09701 -0.175097,-0.170364 -0.357292,-0.170364 -0.347828,0 -0.584445,0.25318 -0.584445,0.657796 z m 0.442474,-0.0024 c 0,-0.212956 0.08045,-0.364391 0.238984,-0.364391 0.158534,0 0.236618,0.149069 0.236618,0.364391 0,0.215322 -0.07808,0.364391 -0.236618,0.364391 -0.158534,0 -0.238984,-0.149069 -0.238984,-0.364391 z"
         style="font-style:normal;font-variant:normal;font-weight:normal;font-stretch:normal;font-family:Jellee;-inkscape-font-specification:Jellee;fill:#999999;stroke-width:0.12675935"
         id="path858" />
    </g>
  </g>
</svg>
