<?xml version="1.0" encoding="UTF-8" standalone="no"?>
<!-- Created with Inkscape (http://www.inkscape.org/) -->

<svg
   xmlns:dc="http://purl.org/dc/elements/1.1/"
   xmlns:cc="http://creativecommons.org/ns#"
   xmlns:rdf="http://www.w3.org/1999/02/22-rdf-syntax-ns#"
   xmlns:svg="http://www.w3.org/2000/svg"
   xmlns="http://www.w3.org/2000/svg"
   xmlns:xlink="http://www.w3.org/1999/xlink"
   xmlns:sodipodi="http://sodipodi.sourceforge.net/DTD/sodipodi-0.dtd"
   xmlns:inkscape="http://www.inkscape.org/namespaces/inkscape"
   width="90mm"
   height="50mm"
   viewBox="0 0 90 50"
   version="1.1"
   id="SVGRoot"
   inkscape:version="0.92.4 (5da689c313, 2019-01-14)"
   sodipodi:docname="business_card_back.svg">
  <defs
     id="defs6539">
    <linearGradient
       inkscape:collect="always"
       id="linearGradient1125">
      <stop
         style="stop-color:#ffcc13;stop-opacity:1"
         offset="0"
         id="stop1121" />
      <stop
         style="stop-color:#ff49aa;stop-opacity:0.99585062"
         offset="1"
         id="stop1123" />
    </linearGradient>
    <linearGradient
       inkscape:collect="always"
       xlink:href="#linearGradient1125"
       id="linearGradient894"
       gradientUnits="userSpaceOnUse"
       gradientTransform="matrix(1.0706265,0,0,1.0706265,5.6762734,6.1512693)"
       x1="35.007019"
       y1="32.757634"
       x2="58.847895"
       y2="32.757634" />
    <linearGradient
       inkscape:collect="always"
       xlink:href="#linearGradient1125"
       id="linearGradient917"
       gradientUnits="userSpaceOnUse"
       gradientTransform="matrix(1.0706265,0,0,1.0706265,5.6762734,6.1512693)"
       x1="35.007019"
       y1="32.757634"
       x2="58.847895"
       y2="32.757634" />
  </defs>
  <sodipodi:namedview
     id="base"
     pagecolor="#ffffff"
     bordercolor="#666666"
     borderopacity="1.0"
     inkscape:pageopacity="0.0"
     inkscape:pageshadow="2"
     inkscape:zoom="2.0000001"
     inkscape:cx="218.63692"
     inkscape:cy="104.34786"
     inkscape:document-units="mm"
     inkscape:current-layer="layer1"
     showgrid="false"
     inkscape:window-width="1600"
     inkscape:window-height="836"
     inkscape:window-x="0"
     inkscape:window-y="27"
     inkscape:window-maximized="1"
     inkscape:snap-bbox="true"
     inkscape:bbox-paths="true"
     inkscape:bbox-nodes="true"
     inkscape:snap-bbox-edge-midpoints="true"
     inkscape:snap-bbox-midpoints="true"
     inkscape:snap-intersection-paths="true"
     inkscape:object-paths="true"
     inkscape:snap-smooth-nodes="true"
     inkscape:snap-midpoints="true"
     inkscape:snap-object-midpoints="true"
     inkscape:snap-center="true"
     inkscape:snap-text-baseline="true"
     inkscape:snap-page="true"
     showguides="true"
     inkscape:guide-bbox="true"
     inkscape:snap-global="true">
    <sodipodi:guide
       position="44.846876,10.980209"
       orientation="1,0"
       id="guide9464"
       inkscape:locked="false" />
    <sodipodi:guide
       position="4.5640627,46.996615"
       orientation="0,1"
       id="guide9514"
       inkscape:locked="false" />
    <sodipodi:guide
       position="2.9930991,45.987891"
       orientation="1,0"
       id="guide9516"
       inkscape:locked="false" />
    <sodipodi:guide
       position="86.981774,51.659896"
       orientation="1,0"
       id="guide9518"
       inkscape:locked="false" />
    <sodipodi:guide
       position="97.730471,3.0096355"
       orientation="0,1"
       id="guide9520"
       inkscape:locked="false" />
    <sodipodi:guide
       position="20.018488,23.573172"
       orientation="1,0"
       id="guide99"
       inkscape:locked="false" />
    <sodipodi:guide
       position="70.064707,23.76026"
       orientation="1,0"
       id="guide101"
       inkscape:locked="false" />
    <sodipodi:guide
       position="58.745842,28.577793"
       orientation="0,1"
       id="guide908"
       inkscape:locked="false" />
    <sodipodi:guide
       position="60.149007,25.958552"
       orientation="0,1"
       id="guide910"
       inkscape:locked="false" />
    <sodipodi:guide
       position="63.65692,23.432855"
       orientation="0,1"
       id="guide912"
       inkscape:locked="false" />
    <sodipodi:guide
       position="63.00211,21.141019"
       orientation="0,1"
       id="guide914"
       inkscape:locked="false" />
  </sodipodi:namedview>
  <metadata
     id="metadata6542">
    <rdf:RDF>
      <cc:Work
         rdf:about="">
        <dc:format>image/svg+xml</dc:format>
        <dc:type
           rdf:resource="http://purl.org/dc/dcmitype/StillImage" />
        <dc:title />
      </cc:Work>
    </rdf:RDF>
  </metadata>
  <g
     inkscape:groupmode="layer"
     id="layer6"
     inkscape:label="Layer 6"
     style="display:none">
    <text
       id="text89"
       y="21.4881"
       x="19.86075"
       style="font-style:normal;font-weight:normal;font-size:2.57450366px;line-height:1.25;font-family:sans-serif;letter-spacing:0px;word-spacing:0px;display:inline;fill:#919191;fill-opacity:1;stroke:none;stroke-width:0.16090648"
       xml:space="preserve"><tspan
         style="font-style:normal;font-variant:normal;font-weight:normal;font-stretch:normal;font-family:'Skyhook Mono';-inkscape-font-specification:'Skyhook Mono';fill:#919191;fill-opacity:1;stroke-width:0.16090648"
         y="21.4881"
         x="19.86075"
         id="tspan87"
         sodipodi:role="line">I have a feeling</tspan></text>
    <text
       xml:space="preserve"
       style="font-style:normal;font-weight:normal;font-size:2.57450366px;line-height:1.25;font-family:sans-serif;letter-spacing:0px;word-spacing:0px;display:inline;fill:#919191;fill-opacity:1;stroke:none;stroke-width:0.16090648"
       x="36.374817"
       y="30.191099"
       id="text93"><tspan
         sodipodi:role="line"
         id="tspan91"
         x="36.374817"
         y="30.191099"
         style="font-style:normal;font-variant:normal;font-weight:normal;font-stretch:normal;font-family:'Skyhook Mono';-inkscape-font-specification:'Skyhook Mono';fill:#919191;fill-opacity:1;stroke-width:0.16090648">that we will get along</tspan></text>
  </g>
  <g
     inkscape:groupmode="layer"
     id="layer5"
     inkscape:label="Layer 5"
     style="display:none;opacity:1">
    <text
       id="text71"
       y="29.330835"
       x="-14.998492"
       style="font-style:normal;font-weight:normal;font-size:2.57450366px;line-height:1.25;font-family:sans-serif;letter-spacing:0px;word-spacing:0px;display:inline;fill:#919191;fill-opacity:1;stroke:none;stroke-width:0.16090648"
       xml:space="preserve"
       transform="rotate(-38.551665)"><tspan
         style="font-style:normal;font-variant:normal;font-weight:normal;font-stretch:normal;font-family:'Skyhook Mono';-inkscape-font-specification:'Skyhook Mono';fill:#919191;fill-opacity:1;stroke-width:0.16090648"
         y="29.330835"
         x="-14.998492"
         id="tspan69"
         sodipodi:role="line">I have a feeling</tspan></text>
    <text
       xml:space="preserve"
       style="font-style:normal;font-weight:normal;font-size:2.57450366px;line-height:1.25;font-family:sans-serif;letter-spacing:0px;word-spacing:0px;display:inline;fill:#919191;fill-opacity:1;stroke:none;stroke-width:0.16090648"
       x="-2.35217"
       y="33.220108"
       id="text75"
       transform="rotate(-38.551665)"><tspan
         sodipodi:role="line"
         id="tspan73"
         x="-2.35217"
         y="33.220108"
         style="font-style:normal;font-variant:normal;font-weight:normal;font-stretch:normal;font-family:'Skyhook Mono';-inkscape-font-specification:'Skyhook Mono';fill:#919191;fill-opacity:1;stroke-width:0.16090648">that we will get along</tspan></text>
    <path
       style="fill:#919191;fill-opacity:1;stroke-width:0.02457479"
       d="m 79.248274,45.259439 c -0.370868,-0.146355 -0.633124,-0.50421 -0.667177,-0.910394 -0.01651,-0.196912 0.02834,-0.355709 0.157514,-0.557638 0.274268,-0.428749 1.158419,-1.405655 1.446695,-1.598466 0.244355,-0.163438 0.389455,-0.209445 0.663296,-0.210325 0.207978,-6.69e-4 0.234354,0.0053 0.405484,0.09037 0.193434,0.09626 0.40632,0.269029 1.011105,0.820589 0.391404,0.35696 0.627108,0.636941 0.763447,0.906863 0.120609,0.23878 0.14647,0.334077 0.14647,0.53975 0,0.482347 -0.275038,0.85821 -0.692879,0.946883 -0.184467,0.03915 -0.32217,0.0236 -0.631176,-0.07125 -0.336021,-0.10315 -0.616479,-0.135099 -1.016012,-0.115768 -0.35818,0.01733 -0.547449,0.05006 -0.859376,0.148603 -0.254314,0.08034 -0.540406,0.08459 -0.727396,0.01083 z m 4.141957,-1.846535 c -0.189367,-0.07965 -0.346808,-0.193184 -0.586156,-0.422672 -0.341972,-0.327888 -0.494541,-0.607824 -0.494541,-0.907395 0,-0.238695 0.08297,-0.353741 0.546435,-0.757678 0.100096,-0.08723 0.256276,-0.271868 0.411154,-0.486037 0.279947,-0.387116 0.424579,-0.519527 0.633969,-0.580399 0.176504,-0.05131 0.404355,-0.03464 0.563301,0.04121 0.159975,0.07634 0.421059,0.345613 0.507,0.522919 0.111485,0.230022 0.173074,0.513234 0.155872,0.716813 -0.02131,0.2522 -0.121068,0.568695 -0.285869,0.907004 -0.183424,0.37655 -0.311027,0.568542 -0.481278,0.724144 -0.300557,0.274691 -0.671987,0.367409 -0.96988,0.242105 z m -5.68847,-0.05067 c -0.230397,-0.07693 -0.422776,-0.23237 -0.621798,-0.502417 -0.257985,-0.350049 -0.346065,-0.623364 -0.366108,-1.136027 -0.01526,-0.39157 0.0268,-0.685432 0.140464,-0.980164 0.296946,-0.770004 1.05087,-0.678104 1.874841,0.228532 0.512022,0.563389 0.622021,0.723669 0.685561,0.998944 0.108023,0.468008 -0.37066,1.143682 -0.947424,1.337296 -0.233641,0.07844 -0.612149,0.105053 -0.765538,0.05384 z m 1.698653,-2.213927 c -0.818118,-0.425537 -1.173867,-1.60081 -0.748037,-2.471261 0.107087,-0.218892 0.446418,-0.562698 0.648038,-0.656574 0.183398,-0.08539 0.402933,-0.08913 0.584552,-0.01001 0.447397,0.19504 0.776081,1.001878 0.777569,1.908736 8.07e-4,0.509893 -0.0787,0.752292 -0.32895,1.002545 -0.1884,0.1884 -0.363704,0.268264 -0.614032,0.279733 -0.175763,0.008 -0.213393,0.0018 -0.31914,-0.05322 z m 2.497073,0.03151 c -0.280381,-0.04523 -0.592357,-0.265067 -0.705125,-0.496892 -0.108532,-0.223107 -0.140103,-0.704635 -0.08643,-1.318228 0.03972,-0.454234 0.122676,-0.675278 0.344417,-0.917902 0.181114,-0.198166 0.439699,-0.323808 0.661309,-0.321315 0.200072,0.0023 0.331597,0.05858 0.538115,0.230441 0.267965,0.223004 0.459013,0.506356 0.584964,0.86759 0.0774,0.22201 0.106202,0.652028 0.0573,0.855846 -0.09916,0.413388 -0.371757,0.774128 -0.736765,0.975033 -0.226315,0.124564 -0.426486,0.162731 -0.657796,0.125433 z m -5.234314,-0.919203 c -0.07466,-0.05229 -0.174108,-0.228746 -0.231848,-0.411374 -0.0484,-0.153083 -0.06726,-0.520889 -0.03236,-0.630863 0.02478,-0.07806 0.09334,-0.05902 0.151721,0.04214 0.02919,0.05058 0.127385,0.180434 0.218203,0.288563 0.189999,0.226215 0.232501,0.311266 0.232501,0.465278 0,0.08858 -0.0151,0.127763 -0.07627,0.197387 -0.08461,0.09636 -0.171095,0.112502 -0.261936,0.04887 z m 8.162527,-0.05981 c -0.07266,-0.02936 -0.152984,-0.13843 -0.170427,-0.231451 -0.0146,-0.07755 0.05289,-0.391182 0.123874,-0.576103 0.01898,-0.04946 0.04657,-0.13692 0.06129,-0.194359 0.01477,-0.05745 0.03625,-0.104446 0.04783,-0.104446 0.01165,0 0.05453,0.05253 0.09544,0.116736 0.210223,0.329944 0.236352,0.783209 0.05454,0.94613 -0.07808,0.06995 -0.123858,0.07932 -0.212553,0.0435 z m -3.055866,-2.546741 c -0.07443,-0.08477 -0.07885,-0.09959 -0.0637,-0.213717 0.01837,-0.138429 0.238845,-0.735185 0.276234,-0.747648 0.01346,-0.0044 0.05956,0.06833 0.10264,0.161763 0.12906,0.280009 0.144239,0.663417 0.0322,0.814054 -0.03525,0.04739 -0.07207,0.06367 -0.156726,0.06928 -0.100917,0.0067 -0.117704,-6.81e-4 -0.190634,-0.08374 z m -2.458397,0.02107 C 79.17967,37.609283 79.1501,37.523248 79.182738,37.30069 c 0.02714,-0.185049 0.198101,-0.737529 0.22823,-0.737529 0.02186,0 0.160632,0.308516 0.193445,0.43006 0.0146,0.05407 0.03351,0.187264 0.04204,0.296 0.01862,0.237722 -0.02041,0.339234 -0.151557,0.39403 -0.101393,0.04237 -0.08059,0.04329 -0.18344,-0.008 z"
       id="path4977"
       inkscape:connector-curvature="0"
       sodipodi:nodetypes="ccccccccsccccccccscsccccccccccccscccccccccccccccccccccccccccccscccccccsccccccccccccccsccccc" />
  </g>
  <g
     inkscape:groupmode="layer"
     id="layer9"
     inkscape:label="Layer 9"
     style="display:none"
     sodipodi:insensitive="true">
    <path
       style="display:inline;opacity:1;fill:#e1e1e1;fill-opacity:1;stroke-width:0.4771764"
       d="m 237.10352,0 c -1.41531,1.9493768 -2.63399,4.1216988 -3.8125,6.7089844 -2.70019,5.9278076 -3.51854,10.6597536 -2.64649,15.2949216 0.58073,3.085813 4.60824,9.254521 8.14649,12.476563 8.73433,7.953975 24.71866,9.690351 31.63671,3.435547 4.06903,-3.678996 5.74838,-7.05926 10.4668,-21.06836 C 283.04455,10.464217 284.13344,4.7992378 284.23828,0 Z m 63.99218,0 c -10.16729,6.7477595 -17.18175,18.160043 -16.8457,29.898438 0.066,2.313748 0.31669,3.010108 2.11328,5.916015 2.56073,4.136885 5.5708,6.35607 10.54688,7.771485 6.60974,1.880205 11.47357,0.939241 20.11523,-3.892579 10.98064,-6.140552 19.48882,-14.62746 23.13281,-22.416015 V 2.8242188 C 339.5504,1.8072515 338.80683,0.87138822 337.96289,0.03320312 337.85367,0.01889576 337.74606,0 337.63281,0 Z m 39.0625,38.757812 c -2.7613,0.488283 -5.75888,1.524918 -9.53711,3.216797 -10.91549,4.887693 -18.78632,9.972292 -21.54492,13.921875 -2.86669,4.103456 -3.64794,11.472757 -1.76562,16.65625 v 0.002 c 1.5531,4.276085 4.09232,7.310659 8.34375,9.972656 6.85702,4.293154 15.55109,5.51081 23.5,3.285156 0.31398,-0.08784 0.65374,-0.206094 1.0039,-0.335938 z m -108.66992,4.832032 c -3.75277,-0.01928 -6.48732,0.782953 -9.27344,2.65625 -6.56831,4.415856 -10.16058,12.245946 -9.13867,19.919922 h -0.002 c 0.51574,3.868902 3.29073,8.681584 7.05664,12.236328 4.6191,4.360017 6.96399,7.261827 10.64258,13.173828 4.10315,6.594622 6.21002,11.653828 7.63672,18.328128 1.3109,6.13795 2.34884,8.62171 4.75586,11.38086 5.45246,6.24983 14.42738,7.36267 22.60937,2.80468 3.48916,-1.94323 4.86169,-3.28111 7.77149,-7.58398 3.29038,-4.86333 5.81143,-11.50714 8.16796,-21.519532 3.64118,-15.470842 4.56027,-20.715445 4.36524,-24.90625 -0.17363,-3.706896 -0.32043,-4.210775 -2.29688,-7.732422 -2.60248,-4.636977 -4.75461,-6.66302 -9.83593,-9.263672 -5.99469,-3.068035 -30.92067,-8.834658 -40.78516,-9.435546 -0.58076,-0.03553 -1.13772,-0.05587 -1.67383,-0.05859 z M 117.08984,70.15625 c -0.5039,-0.297298 -8.8161,7.254899 -11.0957,10.082031 -2.74178,3.399965 -3.09491,5.130056 -1.54102,7.53125 l -0.002,0.002 c 1.21358,1.872915 0.87459,1.653004 2.98828,1.945313 2.73404,0.377726 4.38953,-0.934482 6.42383,-5.09375 0.92999,-1.902701 1.92703,-4.317096 2.2168,-5.365235 0.65189,-2.356316 1.37569,-8.887112 1.00976,-9.101562 z M 41.353516,84.419922 c -0.256139,0.02041 -0.53781,0.156586 -0.833985,0.421875 -1.668703,1.494829 -4.982577,7.833533 -5.683593,10.871094 -0.836292,3.623875 -0.914446,7.554739 -0.181641,9.166019 0.891492,1.96053 2.497555,2.54432 4.863281,1.76757 1.709972,-0.56059 2.348607,-1.06746 3.222656,-2.54882 1.519559,-2.5757 1.648627,-4.416432 0.703125,-10.074222 -0.451918,-2.704407 -0.813317,-5.84465 -0.802734,-6.978516 0.01587,-1.700591 -0.518735,-2.686523 -1.287109,-2.625 z M 300.4043,86.685547 c -1.66619,0.061 -2.99923,0.544835 -4.51758,1.390625 -5.0817,2.830726 -8.38821,8.063664 -10.71875,16.962888 -1.63114,6.22859 -2.06909,9.97266 -1.63086,13.9375 0.68942,6.23709 5.7719,11.66133 13.27148,14.16406 4.24823,1.41751 8.71141,1.76721 16.83203,1.32032 7.29599,-0.40135 13.60652,-1.6991 18.08594,-3.72071 2.75195,-1.24203 5.85032,-3.69708 8.43164,-6.58984 V 96.421875 c -2.78134,-1.970553 -6.55338,-2.958991 -14.125,-3.855469 -5.09651,-0.603299 -9.70522,-1.507429 -12.13086,-2.380859 -7.01993,-2.52906 -10.72105,-3.601696 -13.49804,-3.5 z m -200.40235,6.705078 c -4.552113,-0.07219 -12.753435,2.19126 -16.457028,4.632813 -15.70995,10.355612 -21.356305,33.520352 -11.873047,48.708982 1.225697,1.96353 1.794131,2.43861 4.8125,4.03906 4.29967,2.27685 8.019745,2.67086 13.029297,1.37891 6.654255,-1.71602 10.375081,-4.98435 15.392578,-13.51953 8.9228,-15.18063 11.38767,-31.91752 5.83008,-39.593751 -2.25665,-3.115275 -5.96558,-5.218156 -9.875,-5.599609 -0.26861,-0.02608 -0.5559,-0.04207 -0.85938,-0.04687 z m 58.8125,4.302734 c -0.74843,-0.160592 -10.32285,7.645531 -11.99609,9.779301 -1.37941,1.75904 -1.45314,2.04928 -1.04492,4.20117 h 0.002 c 0.40012,2.10902 0.60764,2.39739 2.36133,3.28125 1.47105,0.74219 2.24774,0.83334 3.30469,0.38867 3.35999,-1.41373 6.88976,-7.97546 7.49414,-13.93164 0.20126,-1.987484 0.14634,-3.65835 -0.1211,-3.718751 z M 43.347656,110.83789 c -3.263516,-0.0935 -6.728239,1.20817 -10.261718,4.00586 -4.808828,3.8076 -8.413162,8.30682 -12.021485,15.00586 -4.723102,8.77135 -5.946548,14.21176 -5.085937,22.61133 0.66388,6.4799 2.347466,10.97723 5.441406,14.53711 2.059914,2.36986 8.652779,5.65881 13.333984,6.65234 11.555879,2.45276 26.227892,-4.12492 29.039063,-13.01758 1.653433,-5.23051 1.39471,-8.99486 -1.609375,-23.46875 -3.474648,-16.74125 -10.495836,-26.08724 -18.835938,-26.32617 z m 94.984374,10.04688 c -1.90231,0.0268 -3.85358,0.32186 -5.72265,0.89453 -6.10226,1.86962 -9.6703,4.74862 -14.81641,11.95312 -6.95172,9.73197 -11.17477,18.09633 -11.56055,22.89844 -0.40136,4.98952 2.64584,11.74283 6.88867,15.26562 v 0.002 c 3.50035,2.90596 7.22445,4.24265 12.23829,4.39258 8.08649,0.24158 16.20534,-3.1011 21.9414,-9.03711 2.82879,-2.92609 6.59019,-10.40054 7.48633,-14.87696 1.45784,-7.28385 1.05819,-13.90789 -1.22266,-20.28125 -1.75803,-4.91183 -3.40118,-7.15184 -6.72461,-9.16406 -2.30084,-1.39354 -5.33731,-2.09182 -8.50781,-2.04687 z m 45.28125,45.63476 c -0.29858,0.0445 -1.01837,0.57207 -1.73047,1.28516 -0.81208,0.8164 -2.13687,2.00557 -2.9414,2.64648 -3.01166,2.39216 -7.23491,6.97137 -7.75586,8.41211 -0.62598,1.72782 -0.35903,4.34469 0.5664,5.55274 h -0.002 c 1.13004,1.4741 1.98849,1.76858 3.98438,1.36914 4.64818,-0.93074 8.68393,-8.76927 8.42382,-16.36133 -0.0503,-1.47743 -0.25236,-2.77655 -0.44531,-2.89258 -0.0242,-0.0144 -0.0569,-0.0181 -0.0996,-0.0117 z M 76.505859,171.875 c -0.633146,0.008 -1.301287,0.0321 -2.013671,0.0723 -6.723429,0.38017 -31.149752,7.9948 -39.966797,12.45898 -2.706924,1.37004 -4.624407,2.79295 -6.09961,4.57031 h 68.998047 c -1.505794,-4.17178 -2.634864,-6.58088 -3.875,-8.49023 -2.022297,-3.11152 -2.404034,-3.47071 -5.888672,-5.51172 -4.014761,-2.35144 -6.722271,-3.15199 -11.154297,-3.09961 z m 76.125001,3.96289 c -3.1769,-0.0467 -6.86625,1.09112 -13.24219,3.875 -4.70327,2.05367 -9.13724,3.60084 -11.67187,4.07227 -9.37454,1.74202 -12.8646,2.80299 -15.0918,5.1914 h 54.58984 c -0.62837,-2.58594 -1.52923,-5.04798 -2.48437,-6.46679 -1.90964,-2.83693 -5.55565,-5.36462 -9.01367,-6.24805 -1.02558,-0.262 -2.02697,-0.40827 -3.08594,-0.42383 z"
       id="path4979"
       transform="scale(0.26458333)"
       inkscape:connector-curvature="0" />
  </g>
  <g
     inkscape:groupmode="layer"
     id="layer8"
     inkscape:label="Layer 8"
     style="display:none" />
  <g
     inkscape:groupmode="layer"
     id="layer10"
     inkscape:label="Layer 10"
     style="display:none"
     sodipodi:insensitive="true">
    <path
       style="fill:#000000;stroke-width:0.11392684"
       d="M 7.1073684,53.337532 C 6.1974586,52.081646 5.9623469,50.119018 6.5474132,48.66316 c 0.5676135,-1.412502 1.411469,-2.083096 3.4883618,-2.772676 1.890571,-0.627657 7.011427,-1.791447 8.076535,-1.835517 2.434735,-0.100736 4.320678,0.888199 5.118587,2.684033 0.422141,0.950081 0.495953,1.200012 1.064721,3.604884 1.024149,4.330304 1.187689,5.800645 0.86201,7.749938 -0.158041,0.946089 -0.19177,1.023957 -0.850835,1.964932 -0.794313,1.134075 -1.195081,1.480678 -2.142748,1.853174 -1.807191,0.710339 -3.630661,0.06063 -5.032906,-1.793247 -0.950775,-1.257015 -1.699832,-1.96496 -3.142618,-2.970204 C 12.510977,56.118982 11.637062,55.681762 9.9157139,55.110839 8.5845065,54.669277 7.6403157,54.073078 7.1073773,53.33756 Z m 20.7890086,4.277113 c -0.745848,-1.124025 -1.251022,-2.589333 -1.49941,-4.349012 -0.40739,-2.886145 0.552178,-4.765353 2.614341,-5.119908 0.452642,-0.07781 1.388924,-0.207322 2.080587,-0.287771 0.84132,-0.09788 1.75554,-0.32501 2.761967,-0.686263 2.704033,-0.970599 3.689128,-0.990046 4.972429,-0.09817 0.622269,0.432474 0.809508,0.626929 1.111766,1.152303 0.509778,0.887016 0.722373,2.239743 0.535099,3.404836 -0.36323,2.259741 -1.471099,3.7444 -3.905824,5.234243 -2.851062,1.744573 -4.533141,2.255861 -6.416301,1.950317 -0.55441,-0.08995 -0.882833,-0.223089 -1.435968,-0.582119 -0.394289,-0.256182 -0.762833,-0.534328 -0.81879,-0.61827 z M 6.2253222,41.887259 C 5.4776286,40.999533 5.1136986,39.577863 5.1383699,37.640996 c 0.033008,-2.590512 2.107139,-6.101585 4.6339134,-7.844245 1.8702067,-1.28984 3.4520837,-1.169262 4.7379077,0.361143 1.0225,1.216982 1.569812,2.923342 1.981929,6.178977 0.460189,3.635454 0.246083,4.846294 -1.065228,6.024338 C 13.616769,43.98736 10.57898,44.417241 8.3183745,43.367144 7.2666933,42.878606 6.7564858,42.517877 6.2252702,41.887333 Z M 18.490727,37.890446 c -0.51312,-0.958196 -0.873101,-2.795924 -0.785244,-4.008766 0.238075,-3.286632 2.483691,-6.515657 5.266847,-7.573821 0.867889,-0.329877 2.617843,-0.588199 3.32127,-0.490242 0.981514,0.136683 1.957116,0.807873 2.459415,1.692266 0.118237,0.20809 0.281303,0.773091 0.362344,1.255595 0.341951,2.035688 -0.681911,5.231763 -2.518323,7.861146 -1.306808,1.871167 -2.218706,2.578632 -3.735734,2.898383 -1.3367,0.28175 -2.274262,0.149728 -3.255197,-0.45837 -0.67002,-0.415534 -0.757892,-0.508091 -1.115735,-1.176169 z m 8.837319,6.138035 c -0.537501,-0.851035 -0.768343,-1.535731 -0.80264,-2.38063 -0.04936,-1.2162 0.155044,-1.663246 1.852742,-4.05201 2.284691,-3.214736 3.301015,-4.070962 5.236595,-4.412007 1.074127,-0.18925 1.886216,-0.103869 2.781496,0.292448 0.572117,0.253253 0.682671,0.344669 1.0965,0.906498 0.790098,1.072675 1.227049,3.165419 1.018161,4.876577 -0.236376,1.936317 -1.253998,4.024067 -2.468691,5.064745 -1.201217,1.029111 -2.817751,1.670973 -4.340376,1.723343 -1.317446,0.04531 -2.061645,-0.154238 -3.116248,-0.835593 -0.748407,-0.483539 -0.913914,-0.63927 -1.257544,-1.183363 z M 10.428143,27.050227 c -0.129718,-0.887494 0.196233,-2.008082 0.915742,-3.148238 1.028607,-1.629935 1.35252,-1.725826 1.336876,-0.39569 -0.0052,0.436297 0.03562,1.198586 0.09057,1.694003 0.116579,1.051129 0.03539,1.531374 -0.352546,2.085247 -0.21762,0.310704 -0.401388,0.43495 -0.811721,0.548666 -0.709998,0.196829 -1.070634,-0.043 -1.179084,-0.783801 z M 41.68694,48.833615 c -0.414441,-0.598705 -0.25431,-1.381309 0.398983,-1.949954 1.052364,-0.91605 2.677916,-2.121203 2.744154,-2.034525 0.04123,0.05437 0.01348,0.544091 -0.06198,1.088756 -0.137195,0.990016 -0.137439,0.990562 -0.907944,2.090647 -0.717041,1.02375 -0.797244,1.105789 -1.150056,1.179489 -0.43954,0.09167 -0.789072,-0.03621 -1.02315,-0.374427 z M 36.835379,31.260752 c -0.156248,-0.517438 -0.05872,-0.805348 0.452677,-1.336357 0.468114,-0.486042 2.795705,-2.072966 2.916426,-1.988411 0.03976,0.02785 -0.01992,0.471156 -0.132396,0.985233 -0.326212,1.490726 -1.325645,2.956768 -2.109852,3.094971 -0.482416,0.085 -0.972186,-0.243366 -1.126798,-0.755446 z m -9.577544,-7.01984 c -0.09479,-0.372205 -0.06746,-0.449803 0.373994,-1.059816 0.360077,-0.497373 0.778325,-0.888216 1.712807,-1.599956 0.680092,-0.51795 1.27547,-0.914456 1.323076,-0.881111 0.1324,0.09273 -0.05841,1.201711 -0.332585,1.932905 -0.586655,1.564535 -1.326336,2.496059 -1.981925,2.496066 -0.459055,-6e-6 -0.975901,-0.418993 -1.095388,-0.888078 z"
       id="path931"
       inkscape:connector-curvature="0"
       sodipodi:nodetypes="cccscscsccccccccccsccccccccccsccccccccccccccccccsccccccccccccccscccccccscccccscccccccscccc" />
    <path
       sodipodi:nodetypes="cccscscsccccccccccsccccccccccsccccccccccccccccccsccccccccccccccscccccccscccccscccccccscccc"
       inkscape:connector-curvature="0"
       id="path933"
       d="m 57.631853,18.717923 c -0.412617,-1.498999 0.0568,-3.42421 1.117996,-4.585252 1.02957,-1.126478 2.057598,-1.459307 4.249889,-1.376377 1.995597,0.07555 7.212343,0.783656 8.227774,1.116816 2.321178,0.761574 3.743974,2.353166 3.861576,4.319689 0.06222,1.040388 0.04364,1.30098 -0.268044,3.7587 -0.561219,4.425465 -0.924714,5.863344 -1.915911,7.578839 -0.481051,0.832626 -0.540097,0.893868 -1.489717,1.545513 -1.144493,0.785371 -1.642618,0.96984 -2.663282,0.986307 -1.946393,0.0314 -3.42982,-1.219764 -4.09437,-3.453281 -0.450584,-1.514427 -0.904865,-2.442451 -1.905887,-3.893523 -1.025124,-1.486062 -1.691821,-2.203831 -3.107083,-3.345111 -1.094482,-0.882647 -1.771251,-1.774378 -2.012942,-2.652291 z m 18.012944,11.325608 c -0.304959,-1.317515 -0.263965,-2.8708 0.121617,-4.610149 0.632417,-2.852796 2.19407,-4.279597 4.254726,-3.887322 0.452305,0.08612 1.376839,0.293764 2.054468,0.461453 0.824259,0.203949 1.762406,0.312191 2.834281,0.326942 2.879874,0.03963 3.81153,0.367772 4.702688,1.656336 0.432118,0.624825 0.539521,0.873222 0.638543,1.472734 0.166676,1.011997 -0.109402,2.356708 -0.694914,3.384657 -1.135614,1.993743 -2.697756,2.997988 -5.507388,3.540525 -3.290066,0.635283 -5.049008,0.523802 -6.709497,-0.425237 -0.488856,-0.279398 -0.750366,-0.519877 -1.143406,-1.051442 -0.28008,-0.379152 -0.528266,-0.769873 -0.551282,-0.868355 z M 60.830132,7.6581231 C 60.440348,6.5617995 60.5986,5.0991487 61.302838,3.289473 c 0.941912,-2.42039287 4.123755,-4.987282 7.108703,-5.7347995 2.209327,-0.553279 3.65201,0.1161693 4.321006,2.00507434 0.531996,1.50206536 0.445797,3.29647006 -0.312108,6.49781086 -0.846334,3.5748224 -1.473118,4.6362843 -3.118435,5.2811373 -2.27118,0.89014 -5.274251,0.225513 -7.027277,-1.5552437 -0.81554,-0.8284558 -1.167682,-1.3465205 -1.44467,-2.1252781 z m 12.920324,0.5607346 c -0.144784,-1.0799965 0.163477,-2.9318587 0.672439,-4.0395936 1.379213,-3.0018085 4.62287,-5.243607 7.607817,-5.2583587 0.93078,-0.00451 2.664491,0.36832634 3.290431,0.70764145 0.873393,0.47345727 1.553282,1.44663635 1.71386,2.45354195 0.03783,0.2369333 -0.0077,0.8247024 -0.101343,1.3061794 -0.394799,2.0313688 -2.479873,4.6718485 -5.128508,6.4945878 -1.884819,1.297149 -2.98969,1.640666 -4.526328,1.407406 C 75.924841,11.084738 75.091072,10.631111 74.38399,9.7152879 73.901086,9.0895754 73.851137,8.9717833 73.750112,8.2187528 Z m 6.1382,8.8699913 c -0.205355,-0.987966 -0.181306,-1.711938 0.0836,-2.517199 0.381319,-1.15914 0.730418,-1.506954 3.164216,-3.152575 3.275315,-2.2146438 4.530533,-2.6610995 6.4676,-2.3006526 1.07495,0.2000348 1.807324,0.565753 2.508463,1.2526336 0.448055,0.438936 0.519699,0.563633 0.710645,1.236602 0.36456,1.284867 0.03888,3.403207 -0.758929,4.936206 -0.902796,1.734716 -2.592283,3.336883 -4.098592,3.88675 -1.48959,0.543747 -3.232912,0.577898 -4.680785,0.09165 -1.252766,-0.420726 -1.88126,-0.869749 -2.631743,-1.880251 -0.532581,-0.717119 -0.6332,-0.92152 -0.76448,-1.553155 z M 69.993052,-4.7931671 c 0.190296,-0.8788025 0.890344,-1.8162052 1.966748,-2.6335888 1.538815,-1.1685032 1.876627,-1.1446256 1.394213,0.098618 -0.158284,0.4077775 -0.388025,1.1377716 -0.510649,1.6221955 -0.260173,1.0278045 -0.505265,1.4501151 -1.064228,1.8336834 -0.313558,0.2151679 -0.529771,0.2671916 -0.954983,0.2296606 -0.735766,-0.064876 -0.990002,-0.4168457 -0.831323,-1.1504513 z M 91.679268,26.649095 c -0.178553,-0.707803 0.246972,-1.386213 1.060248,-1.690339 1.310089,-0.489946 3.259953,-1.04975 3.291659,-0.945084 0.01958,0.06554 -0.178672,0.515537 -0.441037,1.00034 -0.476928,0.881195 -0.477348,0.881622 -1.587539,1.643454 -1.033155,0.708968 -1.137299,0.757785 -1.494438,0.702914 -0.44488,-0.06849 -0.728058,-0.31146 -0.828882,-0.711295 z M 93.303862,8.4455115 C 93.339132,7.904793 93.53193,7.6687958 94.198755,7.3501041 94.809135,7.0584095 97.552326,6.3870587 97.635927,6.50889 97.663457,6.549015 97.451552,6.9442119 97.165187,7.3872809 96.33474,8.6720824 94.880945,9.6969786 94.096125,9.5509677 93.61334,9.4611292 93.269004,8.9806364 93.303919,8.445522 Z m -6.523055,-9.9581296 c 0.04189,-0.3827631 0.09483,-0.446003 0.72378,-0.8634562 0.512941,-0.340322 1.043031,-0.5601779 2.170608,-0.8997673 0.820609,-0.2471107 1.518981,-0.4099968 1.55195,-0.3619526 0.09169,0.1336122 -0.477401,1.1076411 -0.991917,1.6976822 -1.100909,1.26251214 -2.122889,1.8769362 -2.738365,1.64641238 C 87.0659,-0.45512635 86.728011,-1.0302187 86.780783,-1.5126162 Z"
       style="fill:#000000;stroke-width:0.11421213" />
  </g>
  <g
     style="display:inline"
     inkscape:label="Layer 10 copy"
     id="g939"
     inkscape:groupmode="layer">
    <path
       style="fill:#e1e1e1;stroke-width:0.43166789;fill-opacity:1"
       d="M 253.63477 0 C 250.02727 3.004447 247.11546 6.4044796 245.47656 9.8222656 C 242.30323 16.440131 241.28709 21.906905 242.44141 26.150391 C 243.26177 29.164721 244.43969 31.218041 247.27539 34.574219 C 253.37082 41.788305 264.49784 45.153969 273.3125 42.451172 C 279.69813 40.493154 282.36464 36.674557 286.58008 23.445312 C 290.15089 12.239005 291.09378 5.6051034 289.85352 0 L 253.63477 0 z M 317.07422 0 C 308.12958 2.0937894 299.35726 8.4892086 294.66602 16.941406 C 292.43003 20.969968 290.73696 27.85906 290.97266 31.970703 L 290.9707 31.970703 C 291.13532 34.837576 291.28938 35.296313 292.92969 37.792969 C 295.33158 41.447278 298.34501 43.395474 303.38867 44.558594 C 309.11273 45.878654 313.37418 44.902225 320.84961 40.554688 C 329.3409 35.616561 336.59452 28.558203 340.1582 22.050781 L 340.1582 5.8691406 C 339.27979 4.6947355 338.22221 3.6784179 337.04297 2.9179688 C 335.50645 1.9271248 332.05504 0.74339575 328.89453 0 L 317.07422 0 z M 340.1582 39.810547 C 336.41178 40.821931 331.94312 43.005635 325.42578 46.724609 C 315.78146 52.227855 314.36541 53.438347 312.5957 57.697266 C 311.36628 60.655959 311.06822 63.377957 311.55859 67.160156 C 311.87206 69.578219 312.19285 70.37703 313.99414 73.232422 C 316.53242 77.255997 318.7726 79.129134 323.37305 81.074219 C 328.42352 83.209562 334.60544 83.630208 340.1582 82.279297 L 340.1582 39.810547 z M 243.70508 45.652344 C 238.9161 45.71001 235.89665 46.990781 232.74414 49.953125 C 228.4117 54.024096 226.09004 61.144543 227.21484 66.912109 C 227.87373 70.28999 230.16769 73.845868 234.03906 77.486328 C 239.04511 82.193537 241.35224 85.089778 244.78906 90.984375 C 248.14509 96.740187 249.59006 100.36652 250.85352 106.20312 C 252.71696 114.81111 257.94875 119.95232 265.29297 120.39258 C 269.14419 120.62344 271.07473 120.07076 275.61328 117.43945 C 279.37905 115.25618 279.61807 115.04276 281.66992 112.04297 C 285.89769 105.86239 287.68133 100.54807 291.06641 84.03125 C 292.94637 74.858495 293.0902 73.882039 293.1543 69.943359 C 293.27546 62.498537 288.37086 56.092869 279.8418 52.556641 C 276.11064 51.009672 256.65325 46.843759 249.1543 45.986328 C 247.09477 45.750906 245.3014 45.633122 243.70508 45.652344 z M 115.91016 78.236328 C 115.73023 78.1103 113.47863 79.6088 110.9082 81.566406 C 107.3763 84.256447 105.79647 85.733446 104.43555 87.613281 C 102.76706 89.918842 102.66322 90.212382 103.02148 91.619141 C 103.47309 93.39206 105.4271 94.97654 107.16211 94.976562 C 109.63993 94.976536 112.43507 91.454219 114.65234 85.541016 C 115.6886 82.777448 116.41057 78.586804 115.91016 78.236328 z M 307.97656 83.544922 C 301.60086 83.246299 296.4307 88.175431 293.62891 97.423828 C 291.67661 103.86811 291.07649 109.71094 291.84766 114.76367 C 291.90613 115.14142 292.72908 116.68605 293.67578 118.19531 C 295.00444 120.31138 295.92147 121.29309 297.68359 122.48633 C 303.66898 126.53943 310.26439 127.4636 322.8457 126.01367 C 330.58487 125.12171 335.94721 123.13067 340.1582 119.40625 L 340.1582 90.462891 C 337.60721 89.426009 334.13963 88.833853 328.97656 88.369141 C 324.94131 88.005932 321.43646 87.329373 318.38867 86.324219 C 315.88308 85.497791 312.45915 84.450453 310.7793 83.996094 C 309.82264 83.737379 308.88738 83.587582 307.97656 83.544922 z M 47.152344 85.373047 C 46.405362 85.241901 45.061802 86.872674 42.875 90.337891 C 40.155596 94.647142 38.92379 98.88202 39.414062 102.23633 L 39.412109 102.23828 C 39.821999 105.03816 41.185684 105.94314 43.869141 105.19922 C 45.420006 104.76943 46.114999 104.30127 46.9375 103.12695 C 48.403715 101.03357 48.710145 99.218865 48.269531 95.246094 C 48.061846 93.373652 47.908081 90.490793 47.927734 88.841797 C 47.953602 86.642359 47.733329 85.475049 47.152344 85.373047 z M 98.208984 97.5 C 95.117108 97.455896 89.694403 98.340709 86.824219 99.431641 C 76.305204 103.431 67.81778 115.63472 66.917969 128.05664 C 66.585911 132.64061 67.947368 139.5855 69.886719 143.20703 L 69.884766 143.20898 C 71.237243 145.734 71.569203 146.08377 74.101562 147.6543 C 77.809033 149.95262 81.352202 150.4516 86.404297 149.38672 C 92.137946 148.17821 95.584321 145.50377 100.52344 138.43164 C 107.46421 128.49382 111.33538 116.41464 110.04297 108.7207 C 109.73667 106.89707 109.11876 104.76109 108.67188 103.97461 C 106.77342 100.63202 103.08661 98.094722 99.376953 97.578125 C 99.044625 97.531846 98.650681 97.506301 98.208984 97.5 z M 151.95312 105.58398 C 151.49686 105.26441 142.70089 111.2626 140.93164 113.09961 C 138.9988 115.10657 138.63016 116.19472 139.2207 118.15039 C 139.80506 120.08581 141.65521 121.32712 143.47852 121.00586 C 146.44245 120.48352 150.2202 114.94283 151.45312 109.30859 C 151.87823 107.36563 152.1034 105.68924 151.95312 105.58398 z M 45.583984 109.2793 C 42.911131 109.37163 40.028015 110.48438 36.935547 112.61719 C 27.385533 119.20362 19.544677 132.47471 19.419922 142.26562 C 19.326676 149.58607 20.703368 154.95927 23.529297 158.31445 C 25.537041 160.69761 27.464595 162.06176 31.439453 163.9082 C 39.983474 167.87707 51.465231 166.25155 58.306641 160.10547 C 63.262777 155.65302 64.071328 151.07624 62.332031 137.33594 C 60.774424 125.03118 58.706364 118.58204 54.841797 113.98242 C 52.108155 110.7288 49.02051 109.16059 45.583984 109.2793 z M 131.26562 125.06055 C 129.95298 125.02961 128.56926 125.15169 127.04688 125.41992 C 119.7313 126.70891 115.89091 129.94357 107.25586 142.09375 C 100.83936 151.12215 100.06735 152.81349 100.25391 157.41016 C 100.38353 160.60348 101.25561 163.18974 103.28711 166.40625 C 104.58587 168.46266 105.21044 169.05136 108.03906 170.87891 C 112.02496 173.45411 114.83904 174.20836 119.81836 174.03711 C 125.57316 173.83918 131.68262 171.41299 136.22266 167.52344 C 140.81362 163.59017 144.65934 155.69922 145.55273 148.38086 C 146.34223 141.91349 144.69128 134.00538 141.70508 129.95117 C 140.141 127.82772 139.72288 127.48257 137.56055 126.52539 C 135.44571 125.58921 133.45337 125.11211 131.26562 125.06055 z M 70.15625 166.48438 C 69.597818 166.47626 69.030212 166.48402 68.455078 166.50781 C 64.429473 166.67438 45.075153 171.07307 37.929688 173.44531 C 30.080014 176.0516 26.891405 178.58524 24.746094 183.92383 C 24.117572 185.48782 23.747684 187.20841 23.607422 188.97656 L 91.513672 188.97656 C 89.690702 181.3039 89.303282 180.02756 87.802734 176.65039 C 84.975498 170.2872 78.532733 166.60615 70.15625 166.48438 z M 169.32227 169.50195 C 168.42644 169.74511 162.7933 173.95142 159.06445 177.19727 C 156.59531 179.34648 155.99025 182.30554 157.55664 184.56836 C 158.44134 185.84666 159.76257 186.32889 161.42383 185.98242 C 162.75729 185.70387 163.06141 185.39468 165.77148 181.52539 C 168.68363 177.36759 168.68459 177.36484 169.20312 173.62305 C 169.48833 171.56447 169.59138 169.71331 169.43555 169.50781 C 169.4199 169.48734 169.38199 169.48574 169.32227 169.50195 z M 139.36133 175.46094 C 136.54675 175.5165 133.06116 176.45291 127.95117 178.28711 C 124.14735 179.65248 120.69151 180.51092 117.51172 180.88086 C 114.89756 181.18492 111.35921 181.67466 109.64844 181.96875 C 105.40528 182.69829 102.41051 185.14692 100.79883 188.97656 L 153.02539 188.97656 C 152.70872 186.48472 152.00461 184.11126 150.94727 182.27148 C 149.80487 180.28582 149.09602 179.55056 146.74414 177.91602 C 144.319 176.23058 142.17591 175.40537 139.36133 175.46094 z "
       transform="scale(0.26458333)"
       id="path937" />
  </g>
  <g
     inkscape:groupmode="layer"
     id="layer3"
     inkscape:label="Layer 3"
     style="display:inline">
    <g
       aria-label="FCK NZS"
       transform="rotate(-34.955388)"
       style="font-style:normal;font-variant:normal;font-weight:normal;font-stretch:normal;font-size:2.82222223px;line-height:1.25;font-family:'Skyhook Mono';-inkscape-font-specification:'Skyhook Mono';letter-spacing:0px;word-spacing:0px;fill:#000000;fill-opacity:1;stroke:none;stroke-width:0.26458332"
       id="text6114" />
  </g>
  <g
     inkscape:groupmode="layer"
     id="layer4"
     inkscape:label="Layer 4"
     style="display:none"
     sodipodi:insensitive="true">
    <text
       xml:space="preserve"
       style="font-style:normal;font-variant:normal;font-weight:normal;font-stretch:normal;font-size:2.82222223px;line-height:1.25;font-family:Jellee;-inkscape-font-specification:Jellee;letter-spacing:0px;word-spacing:0px;fill:#000000;fill-opacity:0.18672198;stroke:none;stroke-width:0.26458332"
       x="2.778125"
       y="4.6678925"
       id="text9508"><tspan
         sodipodi:role="line"
         id="tspan9506"
         x="2.778125"
         y="4.6678925"
         style="fill:#000000;fill-opacity:0.18672198;stroke-width:0.26458332">I have a feeling</tspan></text>
    <text
       xml:space="preserve"
       style="font-style:normal;font-variant:normal;font-weight:normal;font-stretch:normal;font-size:2.82222223px;line-height:1.25;font-family:Jellee;-inkscape-font-specification:Jellee;letter-spacing:0px;word-spacing:0px;fill:#000000;fill-opacity:0.18672198;stroke:none;stroke-width:0.26458332"
       x="55.777557"
       y="46.911091"
       id="text9512"><tspan
         sodipodi:role="line"
         id="tspan9510"
         x="55.777557"
         y="46.911091"
         style="fill:#000000;fill-opacity:0.18672198;stroke-width:0.26458332">that we will get along</tspan></text>
  </g>
  <g
     inkscape:groupmode="layer"
     id="layer7"
     inkscape:label="Layer 7"
     style="display:none">
    <g
       aria-label="en de ru uk"
       style="font-style:normal;font-variant:normal;font-weight:normal;font-stretch:normal;font-size:2.36617446px;line-height:1.25;font-family:Comfortaa;-inkscape-font-specification:Comfortaa;letter-spacing:0px;word-spacing:0px;display:inline;fill:#ffccaa;fill-opacity:1;stroke:none;stroke-width:0.12675935"
       id="text7271"
       transform="matrix(1.904827,0,0,1.904827,-28.08269,-32.174328)">
      <path
         d="m 31.452344,30.203203 c 0,0.414081 0.274476,0.676726 0.721683,0.676726 0.231885,0 0.485066,-0.07572 0.485066,-0.269744 0,-0.101745 -0.08045,-0.182195 -0.177463,-0.182195 -0.146703,0 -0.165632,0.14197 -0.343095,0.14197 -0.149069,0 -0.248449,-0.09938 -0.265012,-0.25318 h 0.698021 c 0.151436,0 0.194027,-0.07572 0.194027,-0.208224 0,-0.276842 -0.227153,-0.586811 -0.645966,-0.586811 -0.411714,0 -0.667261,0.288673 -0.667261,0.681458 z m 0.423545,-0.144336 c 0.01656,-0.151435 0.104112,-0.246082 0.236618,-0.246082 0.132505,0 0.22242,0.09465 0.229519,0.246082 z"
         style="fill:#ffccaa;fill-opacity:1;stroke-width:0.12675935"
         id="path861"
         inkscape:connector-curvature="0" />
      <path
         d="m 32.992945,30.643312 c 0,0.120675 0.09938,0.220054 0.220055,0.220054 0.120674,0 0.220054,-0.09938 0.220054,-0.220054 v -0.489798 c 0,-0.246082 0.123041,-0.29104 0.212955,-0.29104 0.07572,0 0.186928,0.03786 0.186928,0.236618 v 0.54422 c 0,0.120675 0.09938,0.220054 0.220054,0.220054 0.120675,0 0.220055,-0.09938 0.220055,-0.220054 v -0.612839 c 0,-0.295772 -0.125408,-0.501629 -0.454306,-0.501629 -0.220054,0 -0.35256,0.118308 -0.416446,0.243716 v -0.03313 c 0,-0.11121 -0.09228,-0.203491 -0.205858,-0.203491 -0.11121,0 -0.203491,0.09228 -0.203491,0.203491 z"
         style="fill:#ffccaa;fill-opacity:1;stroke-width:0.12675935"
         id="path863"
         inkscape:connector-curvature="0" />
      <path
         d="m 35.096511,30.2174 c 0,0.395152 0.203491,0.653065 0.551319,0.653065 0.184562,0 0.312335,-0.07335 0.390419,-0.170365 0.01893,0.09701 0.101745,0.167998 0.201125,0.167998 0.125407,0 0.203491,-0.106477 0.203491,-0.250814 v -1.412606 c 0,-0.120675 -0.09938,-0.220054 -0.220055,-0.220054 -0.120674,0 -0.220054,0.09938 -0.220054,0.220054 v 0.46377 c -0.05206,-0.05679 -0.134872,-0.139604 -0.331264,-0.139604 -0.366757,0 -0.574981,0.288673 -0.574981,0.688556 z m 0.442475,-0.0095 c 0,-0.220055 0.07808,-0.37149 0.24135,-0.37149 0.163266,0 0.234251,0.151435 0.234251,0.369124 0,0.220054 -0.07335,0.371489 -0.236617,0.371489 -0.163266,0 -0.238984,-0.153801 -0.238984,-0.369123 z"
         style="fill:#ffccaa;fill-opacity:1;stroke-width:0.12675935"
         id="path865"
         inkscape:connector-curvature="0" />
      <path
         d="m 36.679186,30.203203 c 0,0.414081 0.274477,0.676726 0.721684,0.676726 0.231885,0 0.485065,-0.07572 0.485065,-0.269744 0,-0.101745 -0.08045,-0.182195 -0.177463,-0.182195 -0.146703,0 -0.165632,0.14197 -0.343095,0.14197 -0.149069,0 -0.248448,-0.09938 -0.265012,-0.25318 h 0.698022 c 0.151435,0 0.194026,-0.07572 0.194026,-0.208224 0,-0.276842 -0.227153,-0.586811 -0.645965,-0.586811 -0.411715,0 -0.667262,0.288673 -0.667262,0.681458 z m 0.423546,-0.144336 c 0.01656,-0.151435 0.104111,-0.246082 0.236617,-0.246082 0.132506,0 0.22242,0.09465 0.229519,0.246082 z"
         style="fill:#ffccaa;fill-opacity:1;stroke-width:0.12675935"
         id="path867"
         inkscape:connector-curvature="0" />
      <path
         d="m 38.811331,30.643312 c 0,0.120675 0.09938,0.220054 0.220054,0.220054 0.120675,0 0.220055,-0.09938 0.220055,-0.220054 v -0.388053 c 0,-0.170364 0.05442,-0.340729 0.250814,-0.340729 0.115943,0 0.184562,-0.09701 0.184562,-0.186928 0,-0.07572 -0.04732,-0.19166 -0.205857,-0.19166 -0.141971,0 -0.203491,0.146703 -0.250815,0.260279 h -0.0095 v -0.05679 c 0,-0.11121 -0.09228,-0.203491 -0.205857,-0.203491 -0.11121,0 -0.203491,0.09228 -0.203491,0.203491 z"
         style="fill:#ffccaa;fill-opacity:1;stroke-width:0.12675935"
         id="path869"
         inkscape:connector-curvature="0" />
      <path
         d="m 39.871673,30.373568 c 0,0.279209 0.111211,0.501629 0.454306,0.501629 0.210589,0 0.328898,-0.125407 0.392785,-0.265012 v 0.04969 c 0,0.11121 0.09228,0.203491 0.203491,0.203491 0.113576,0 0.205857,-0.09228 0.205857,-0.203491 v -0.903879 c 0,-0.120675 -0.09938,-0.220054 -0.220054,-0.220054 -0.120675,0 -0.220054,0.09938 -0.220054,0.220054 v 0.501629 c 0,0.191661 -0.08045,0.286307 -0.201125,0.286307 -0.06862,0 -0.175097,-0.04022 -0.175097,-0.238983 v -0.548953 c 0,-0.120675 -0.09938,-0.220054 -0.220054,-0.220054 -0.120675,0 -0.220055,0.09938 -0.220055,0.220054 z"
         style="fill:#ffccaa;fill-opacity:1;stroke-width:0.12675935"
         id="path871"
         inkscape:connector-curvature="0" />
      <path
         d="m 42.016019,30.373568 c 0,0.279209 0.11121,0.501629 0.454305,0.501629 0.21059,0 0.328898,-0.125407 0.392785,-0.265012 v 0.04969 c 0,0.11121 0.09228,0.203491 0.203491,0.203491 0.113577,0 0.205857,-0.09228 0.205857,-0.203491 v -0.903879 c 0,-0.120675 -0.09938,-0.220054 -0.220054,-0.220054 -0.120675,0 -0.220054,0.09938 -0.220054,0.220054 v 0.501629 c 0,0.191661 -0.08045,0.286307 -0.201125,0.286307 -0.06862,0 -0.175097,-0.04022 -0.175097,-0.238983 v -0.548953 c 0,-0.120675 -0.09938,-0.220054 -0.220054,-0.220054 -0.120675,0 -0.220054,0.09938 -0.220054,0.220054 z"
         style="fill:#ffccaa;fill-opacity:1;stroke-width:0.12675935"
         id="path873"
         inkscape:connector-curvature="0" />
      <path
         d="m 43.580652,30.645678 c 0,0.120675 0.09701,0.217688 0.217688,0.217688 0.123041,0 0.220054,-0.09701 0.220054,-0.217688 V 30.45875 l 0.113576,-0.127773 0.262646,0.43301 c 0.03549,0.05915 0.101745,0.09938 0.177463,0.09938 0.113576,0 0.205857,-0.09228 0.205857,-0.205857 0,-0.04022 -0.01183,-0.07808 -0.03076,-0.108844 l -0.305237,-0.492164 0.201125,-0.222421 c 0.02839,-0.03313 0.04732,-0.07335 0.04732,-0.120675 0,-0.09701 -0.08045,-0.177463 -0.177463,-0.177463 -0.05442,0 -0.104111,0.0213 -0.137238,0.06152 l -0.357292,0.421179 v -0.81633 c 0,-0.120675 -0.09701,-0.217688 -0.217688,-0.217688 -0.123041,0 -0.220054,0.09701 -0.220054,0.217688 z"
         style="fill:#ffccaa;fill-opacity:1;stroke-width:0.12675935"
         id="path875"
         inkscape:connector-curvature="0" />
    </g>
  </g>
  <g
     inkscape:label="Layer 1"
     inkscape:groupmode="layer"
     id="layer1"
     style="display:inline">
    <text
       xml:space="preserve"
       style="font-style:normal;font-variant:normal;font-weight:normal;font-stretch:normal;font-size:10.58333302px;line-height:1.25;font-family:Jellee;-inkscape-font-specification:Jellee;letter-spacing:0px;word-spacing:0px;fill:#000000;fill-opacity:1;stroke:none;stroke-width:0.26458332"
       x="43.920834"
       y="38.490623"
       id="text48"><tspan
         sodipodi:role="line"
         id="tspan46"
         x="43.920834"
         y="48.047375"
         style="stroke-width:0.26458332" /></text>
    <g
       aria-label="en de ru uk"
       style="font-style:normal;font-variant:normal;font-weight:normal;font-stretch:normal;font-size:4.53231859px;line-height:1.25;font-family:Jellee;-inkscape-font-specification:Jellee;letter-spacing:0px;word-spacing:0px;fill:url(#linearGradient894);fill-opacity:1;fill-rule:nonzero;stroke:none;stroke-width:0.28326991"
       id="text892"
       transform="translate(-11.62335,-16.423645)">
      <path
         id="path910"
         style="fill:url(#linearGradient917);fill-opacity:1;fill-rule:nonzero;stroke-width:0.28326991"
         d="m 66.387037,42.588955 c 0,0.231148 0.185825,0.416973 0.416973,0.416973 0.23568,0 0.421505,-0.185825 0.421505,-0.416973 v -0.358054 l 0.217552,-0.244745 0.503087,0.829415 c 0.06798,0.113307 0.19489,0.190357 0.339924,0.190357 0.217551,0 0.394312,-0.176761 0.394312,-0.394312 0,-0.07705 -0.02266,-0.149566 -0.05892,-0.208486 l -0.584669,-0.942723 0.385247,-0.426038 c 0.05439,-0.06345 0.09065,-0.140502 0.09065,-0.231148 0,-0.185825 -0.154099,-0.339924 -0.339924,-0.339924 -0.104243,0 -0.199422,0.04079 -0.262874,0.11784 l -0.684381,0.806753 v -1.56365 c 0,-0.231148 -0.185825,-0.416973 -0.416973,-0.416973 -0.23568,0 -0.421505,0.185825 -0.421505,0.416973 z M 63.39004,42.067738 c 0,0.534814 0.213019,0.960851 0.870205,0.960851 0.403377,0 0.629993,-0.240212 0.752365,-0.507619 v 0.09518 c 0,0.213019 0.176761,0.38978 0.38978,0.38978 0.217551,0 0.394311,-0.176761 0.394311,-0.38978 v -1.731345 c 0,-0.231148 -0.190357,-0.421506 -0.421505,-0.421506 -0.231148,0 -0.421506,0.190358 -0.421506,0.421506 v 0.960851 c 0,0.367118 -0.154099,0.548411 -0.385247,0.548411 -0.131437,0 -0.335392,-0.07705 -0.335392,-0.457764 v -1.051498 c 0,-0.231148 -0.190357,-0.421506 -0.421505,-0.421506 -0.231148,0 -0.421506,0.190358 -0.421506,0.421506 z m -4.107412,0 c 0,0.534814 0.213019,0.960851 0.870205,0.960851 0.403376,0 0.629992,-0.240212 0.752365,-0.507619 v 0.09518 c 0,0.213019 0.17676,0.38978 0.389779,0.38978 0.217552,0 0.394312,-0.176761 0.394312,-0.38978 v -1.731345 c 0,-0.231148 -0.190357,-0.421506 -0.421506,-0.421506 -0.231148,0 -0.421505,0.190358 -0.421505,0.421506 v 0.960851 c 0,0.367118 -0.154099,0.548411 -0.385247,0.548411 -0.131438,0 -0.335392,-0.07705 -0.335392,-0.457764 v -1.051498 c 0,-0.231148 -0.190357,-0.421506 -0.421505,-0.421506 -0.231149,0 -0.421506,0.190358 -0.421506,0.421506 z m -2.031047,0.516684 c 0,0.231149 0.190358,0.421506 0.421506,0.421506 0.231148,0 0.421506,-0.190357 0.421506,-0.421506 v -0.7433 c 0,-0.326327 0.104243,-0.652654 0.480425,-0.652654 0.222084,0 0.353521,-0.185825 0.353521,-0.358053 0,-0.145034 -0.09065,-0.367118 -0.394311,-0.367118 -0.27194,0 -0.38978,0.281004 -0.480426,0.498555 h -0.01813 v -0.108775 c 0,-0.213019 -0.176761,-0.38978 -0.394312,-0.38978 -0.213019,0 -0.38978,0.176761 -0.38978,0.38978 z m -4.084043,-0.843011 c 0,0.793156 0.525748,1.296243 1.382357,1.296243 0.444167,0 0.929125,-0.145034 0.929125,-0.516684 0,-0.19489 -0.154099,-0.348989 -0.339924,-0.348989 -0.281004,0 -0.317262,0.271939 -0.657186,0.271939 -0.285536,0 -0.475894,-0.190357 -0.50762,-0.484958 h 1.337034 c 0.290069,0 0.37165,-0.145034 0.37165,-0.398844 0,-0.530281 -0.435102,-1.124015 -1.237323,-1.124015 -0.788623,0 -1.278113,0.552943 -1.278113,1.305308 z m 0.811285,-0.276471 c 0.03173,-0.290069 0.199422,-0.471362 0.453231,-0.471362 0.25381,0 0.426038,0.181293 0.439635,0.471362 z m -3.84284,0.303665 c 0,0.756897 0.38978,1.25092 1.05603,1.25092 0.353521,0 0.598267,-0.140502 0.747833,-0.326327 0.03626,0.185825 0.19489,0.321795 0.385247,0.321795 0.240213,0 0.38978,-0.203955 0.38978,-0.480426 v -2.705794 c 0,-0.231149 -0.190358,-0.421506 -0.421506,-0.421506 -0.231148,0 -0.421506,0.190357 -0.421506,0.421506 v 0.888334 C 51.77215,40.608331 51.613519,40.4497 51.237337,40.4497 c -0.70251,0 -1.101354,0.552943 -1.101354,1.318905 z m 0.847544,-0.01813 c 0,-0.421506 0.149566,-0.711574 0.462296,-0.711574 0.31273,0 0.4487,0.290068 0.4487,0.707041 0,0.421506 -0.140502,0.711574 -0.453232,0.711574 -0.31273,0 -0.457764,-0.2946 -0.457764,-0.707041 z m -4.876846,0.833947 c 0,0.231149 0.190357,0.421506 0.421506,0.421506 0.231148,0 0.421505,-0.190357 0.421505,-0.421506 v -0.93819 c 0,-0.471361 0.235681,-0.557475 0.407909,-0.557475 0.145034,0 0.358053,0.07252 0.358053,0.453232 v 1.042433 c 0,0.231149 0.190358,0.421506 0.421506,0.421506 0.231148,0 0.421505,-0.190357 0.421505,-0.421506 v -1.17387 c 0,-0.56654 -0.240212,-0.960852 -0.870205,-0.960852 -0.421505,0 -0.675315,0.226616 -0.797688,0.466829 v -0.06345 c 0,-0.213019 -0.17676,-0.38978 -0.394312,-0.38978 -0.213018,0 -0.389779,0.176761 -0.389779,0.38978 z m -2.950964,-0.843011 c 0,0.793156 0.525749,1.296243 1.382357,1.296243 0.444167,0 0.929125,-0.145034 0.929125,-0.516684 0,-0.19489 -0.154099,-0.348989 -0.339924,-0.348989 -0.281003,0 -0.317262,0.271939 -0.657186,0.271939 -0.285536,0 -0.475893,-0.190357 -0.50762,-0.484958 h 1.337034 c 0.290069,0 0.371651,-0.145034 0.371651,-0.398844 0,-0.530281 -0.435103,-1.124015 -1.237323,-1.124015 -0.788624,0 -1.278114,0.552943 -1.278114,1.305308 z m 0.811285,-0.276471 c 0.03173,-0.290069 0.199422,-0.471362 0.453232,-0.471362 0.253809,0 0.426038,0.181293 0.439635,0.471362 z m 18.81058,0.212833 a 0.25631505,0.25631505 0 0 1 -0.256315,0.256315 0.25631505,0.25631505 0 0 1 -0.256315,-0.256315 0.25631505,0.25631505 0 0 1 0.256315,-0.256316 0.25631505,0.25631505 0 0 1 0.256315,0.256316 z m -6.049999,0 a 0.25631505,0.25631505 0 0 1 -0.256315,0.256315 0.25631505,0.25631505 0 0 1 -0.256315,-0.256315 0.25631505,0.25631505 0 0 1 0.256315,-0.256316 0.25631505,0.25631505 0 0 1 0.256315,0.256316 z m -7.079396,0 a 0.25631505,0.25631505 0 0 1 -0.256315,0.256315 0.25631505,0.25631505 0 0 1 -0.256315,-0.256315 0.25631505,0.25631505 0 0 1 0.256315,-0.256316 0.25631505,0.25631505 0 0 1 0.256315,0.256316 z"
         inkscape:connector-curvature="0" />
    </g>
  </g>
  <g
     inkscape:groupmode="layer"
     id="layer2"
     inkscape:label="Layer 2"
     sodipodi:insensitive="true"
     style="display:none">
    <path
       style="fill:none;stroke:#000000;stroke-width:0.26458332px;stroke-linecap:butt;stroke-linejoin:miter;stroke-opacity:1"
       d="M 0,0 89.999999,50"
       id="path42"
       inkscape:connector-curvature="0" />
    <path
       style="fill:none;stroke:#000000;stroke-width:0.26458332px;stroke-linecap:butt;stroke-linejoin:miter;stroke-opacity:1"
       d="M 0,50 89.999999,0"
       id="path44"
       inkscape:connector-curvature="0" />
  </g>
</svg>
