<?xml version="1.0" encoding="UTF-8" standalone="no"?>
<!-- Created with Inkscape (http://www.inkscape.org/) -->

<svg
   xmlns:dc="http://purl.org/dc/elements/1.1/"
   xmlns:cc="http://creativecommons.org/ns#"
   xmlns:rdf="http://www.w3.org/1999/02/22-rdf-syntax-ns#"
   xmlns:svg="http://www.w3.org/2000/svg"
   xmlns="http://www.w3.org/2000/svg"
   xmlns:sodipodi="http://sodipodi.sourceforge.net/DTD/sodipodi-0.dtd"
   xmlns:inkscape="http://www.inkscape.org/namespaces/inkscape"
   width="90mm"
   height="50mm"
   viewBox="0 0 90 50"
   version="1.1"
   id="SVGRoot"
   inkscape:version="0.92.4 (5da689c313, 2019-01-14)"
   sodipodi:docname="business_card_back.svg">
  <defs
     id="defs6539" />
  <sodipodi:namedview
     id="base"
     pagecolor="#ffffff"
     bordercolor="#666666"
     borderopacity="1.0"
     inkscape:pageopacity="0.0"
     inkscape:pageshadow="2"
     inkscape:zoom="1.4142136"
     inkscape:cx="185.87717"
     inkscape:cy="175.78975"
     inkscape:document-units="mm"
     inkscape:current-layer="layer4"
     showgrid="false"
     inkscape:window-width="1600"
     inkscape:window-height="836"
     inkscape:window-x="0"
     inkscape:window-y="27"
     inkscape:window-maximized="1"
     inkscape:snap-bbox="true"
     inkscape:bbox-paths="true"
     inkscape:bbox-nodes="true"
     inkscape:snap-bbox-edge-midpoints="true"
     inkscape:snap-bbox-midpoints="true"
     inkscape:snap-intersection-paths="true"
     inkscape:object-paths="true"
     inkscape:snap-smooth-nodes="true"
     inkscape:snap-midpoints="true"
     inkscape:snap-object-midpoints="true"
     inkscape:snap-center="true"
     inkscape:snap-text-baseline="true"
     inkscape:snap-page="true"
     showguides="true"
     inkscape:guide-bbox="true"
     inkscape:snap-global="false">
    <sodipodi:guide
       position="44.846876,10.980209"
       orientation="1,0"
       id="guide9464"
       inkscape:locked="false" />
    <sodipodi:guide
       position="4.5640627,46.996615"
       orientation="0,1"
       id="guide9514"
       inkscape:locked="false" />
    <sodipodi:guide
       position="2.9930991,45.987891"
       orientation="1,0"
       id="guide9516"
       inkscape:locked="false" />
    <sodipodi:guide
       position="86.981774,51.659896"
       orientation="1,0"
       id="guide9518"
       inkscape:locked="false" />
    <sodipodi:guide
       position="97.730471,3.0096355"
       orientation="0,1"
       id="guide9520"
       inkscape:locked="false" />
  </sodipodi:namedview>
  <metadata
     id="metadata6542">
    <rdf:RDF>
      <cc:Work
         rdf:about="">
        <dc:format>image/svg+xml</dc:format>
        <dc:type
           rdf:resource="http://purl.org/dc/dcmitype/StillImage" />
        <dc:title />
      </cc:Work>
    </rdf:RDF>
  </metadata>
  <g
     inkscape:groupmode="layer"
     id="layer3"
     inkscape:label="Layer 3">
    <g
       aria-label="FCK
NZS"
       transform="rotate(-34.955388)"
       style="font-style:normal;font-variant:normal;font-weight:normal;font-stretch:normal;font-size:2.82222223px;line-height:1.25;font-family:'Skyhook Mono';-inkscape-font-specification:'Skyhook Mono';letter-spacing:0px;word-spacing:0px;fill:#000000;fill-opacity:1;stroke:none;stroke-width:0.26458332"
       id="text6114" />
  </g>
  <g
     inkscape:groupmode="layer"
     id="layer4"
     inkscape:label="Layer 4"
     style="display:inline">
    <text
       xml:space="preserve"
       style="font-style:normal;font-variant:normal;font-weight:normal;font-stretch:normal;font-size:2.82222223px;line-height:1.25;font-family:Jellee;-inkscape-font-specification:Jellee;letter-spacing:0px;word-spacing:0px;fill:#000000;fill-opacity:0.18672198;stroke:none;stroke-width:0.26458332"
       x="2.778125"
       y="4.6678925"
       id="text9508"><tspan
         sodipodi:role="line"
         id="tspan9506"
         x="2.778125"
         y="4.6678925"
         style="fill:#000000;fill-opacity:0.18672198;stroke-width:0.26458332">I have a feeling</tspan></text>
    <text
       xml:space="preserve"
       style="font-style:normal;font-variant:normal;font-weight:normal;font-stretch:normal;font-size:2.82222223px;line-height:1.25;font-family:Jellee;-inkscape-font-specification:Jellee;letter-spacing:0px;word-spacing:0px;fill:#000000;fill-opacity:0.18672198;stroke:none;stroke-width:0.26458332"
       x="55.777557"
       y="46.911091"
       id="text9512"><tspan
         sodipodi:role="line"
         id="tspan9510"
         x="55.777557"
         y="46.911091"
         style="fill:#000000;fill-opacity:0.18672198;stroke-width:0.26458332">that we will get along</tspan></text>
  </g>
  <g
     inkscape:label="Layer 1"
     inkscape:groupmode="layer"
     id="layer1"
     style="display:inline"
     sodipodi:insensitive="true">
    <g
       aria-label="en de ru uk"
       style="font-style:normal;font-variant:normal;font-weight:normal;font-stretch:normal;font-size:2.36617446px;line-height:1.25;font-family:Comfortaa;-inkscape-font-specification:Comfortaa;letter-spacing:0px;word-spacing:0px;fill:#ffb380;fill-opacity:1;stroke:none;stroke-width:0.12675935"
       id="text7271"
       transform="matrix(1.904827,0,0,1.904827,-28.082689,-32.174328)">
      <path
         d="m 31.452344,30.203203 c 0,0.414081 0.274476,0.676726 0.721683,0.676726 0.231885,0 0.485066,-0.07572 0.485066,-0.269744 0,-0.101745 -0.08045,-0.182195 -0.177463,-0.182195 -0.146703,0 -0.165632,0.14197 -0.343095,0.14197 -0.149069,0 -0.248449,-0.09938 -0.265012,-0.25318 h 0.698021 c 0.151436,0 0.194027,-0.07572 0.194027,-0.208224 0,-0.276842 -0.227153,-0.586811 -0.645966,-0.586811 -0.411714,0 -0.667261,0.288673 -0.667261,0.681458 z m 0.423545,-0.144336 c 0.01656,-0.151435 0.104112,-0.246082 0.236618,-0.246082 0.132505,0 0.22242,0.09465 0.229519,0.246082 z"
         style="fill:#ff8080;stroke-width:0.12675935"
         id="path861"
         inkscape:connector-curvature="0" />
      <path
         d="m 32.992945,30.643312 c 0,0.120675 0.09938,0.220054 0.220055,0.220054 0.120674,0 0.220054,-0.09938 0.220054,-0.220054 v -0.489798 c 0,-0.246082 0.123041,-0.29104 0.212955,-0.29104 0.07572,0 0.186928,0.03786 0.186928,0.236618 v 0.54422 c 0,0.120675 0.09938,0.220054 0.220054,0.220054 0.120675,0 0.220055,-0.09938 0.220055,-0.220054 v -0.612839 c 0,-0.295772 -0.125408,-0.501629 -0.454306,-0.501629 -0.220054,0 -0.35256,0.118308 -0.416446,0.243716 v -0.03313 c 0,-0.11121 -0.09228,-0.203491 -0.205858,-0.203491 -0.11121,0 -0.203491,0.09228 -0.203491,0.203491 z"
         style="fill:#ff8080;stroke-width:0.12675935"
         id="path863"
         inkscape:connector-curvature="0" />
      <path
         d="m 35.096511,30.2174 c 0,0.395152 0.203491,0.653065 0.551319,0.653065 0.184562,0 0.312335,-0.07335 0.390419,-0.170365 0.01893,0.09701 0.101745,0.167998 0.201125,0.167998 0.125407,0 0.203491,-0.106477 0.203491,-0.250814 v -1.412606 c 0,-0.120675 -0.09938,-0.220054 -0.220055,-0.220054 -0.120674,0 -0.220054,0.09938 -0.220054,0.220054 v 0.46377 c -0.05206,-0.05679 -0.134872,-0.139604 -0.331264,-0.139604 -0.366757,0 -0.574981,0.288673 -0.574981,0.688556 z m 0.442475,-0.0095 c 0,-0.220055 0.07808,-0.37149 0.24135,-0.37149 0.163266,0 0.234251,0.151435 0.234251,0.369124 0,0.220054 -0.07335,0.371489 -0.236617,0.371489 -0.163266,0 -0.238984,-0.153801 -0.238984,-0.369123 z"
         style="fill:#ac9d93;stroke-width:0.12675935"
         id="path865"
         inkscape:connector-curvature="0" />
      <path
         d="m 36.679186,30.203203 c 0,0.414081 0.274477,0.676726 0.721684,0.676726 0.231885,0 0.485065,-0.07572 0.485065,-0.269744 0,-0.101745 -0.08045,-0.182195 -0.177463,-0.182195 -0.146703,0 -0.165632,0.14197 -0.343095,0.14197 -0.149069,0 -0.248448,-0.09938 -0.265012,-0.25318 h 0.698022 c 0.151435,0 0.194026,-0.07572 0.194026,-0.208224 0,-0.276842 -0.227153,-0.586811 -0.645965,-0.586811 -0.411715,0 -0.667262,0.288673 -0.667262,0.681458 z m 0.423546,-0.144336 c 0.01656,-0.151435 0.104111,-0.246082 0.236617,-0.246082 0.132506,0 0.22242,0.09465 0.229519,0.246082 z"
         style="fill:#ac9d93;stroke-width:0.12675935"
         id="path867"
         inkscape:connector-curvature="0" />
      <path
         d="m 38.811331,30.643312 c 0,0.120675 0.09938,0.220054 0.220054,0.220054 0.120675,0 0.220055,-0.09938 0.220055,-0.220054 v -0.388053 c 0,-0.170364 0.05442,-0.340729 0.250814,-0.340729 0.115943,0 0.184562,-0.09701 0.184562,-0.186928 0,-0.07572 -0.04732,-0.19166 -0.205857,-0.19166 -0.141971,0 -0.203491,0.146703 -0.250815,0.260279 h -0.0095 v -0.05679 c 0,-0.11121 -0.09228,-0.203491 -0.205857,-0.203491 -0.11121,0 -0.203491,0.09228 -0.203491,0.203491 z"
         style="fill:#00aad4;stroke-width:0.12675935"
         id="path869"
         inkscape:connector-curvature="0" />
      <path
         d="m 39.871673,30.373568 c 0,0.279209 0.111211,0.501629 0.454306,0.501629 0.210589,0 0.328898,-0.125407 0.392785,-0.265012 v 0.04969 c 0,0.11121 0.09228,0.203491 0.203491,0.203491 0.113576,0 0.205857,-0.09228 0.205857,-0.203491 v -0.903879 c 0,-0.120675 -0.09938,-0.220054 -0.220054,-0.220054 -0.120675,0 -0.220054,0.09938 -0.220054,0.220054 v 0.501629 c 0,0.191661 -0.08045,0.286307 -0.201125,0.286307 -0.06862,0 -0.175097,-0.04022 -0.175097,-0.238983 v -0.548953 c 0,-0.120675 -0.09938,-0.220054 -0.220054,-0.220054 -0.120675,0 -0.220055,0.09938 -0.220055,0.220054 z"
         style="fill:#00aad4;stroke-width:0.12675935"
         id="path871"
         inkscape:connector-curvature="0" />
      <path
         d="m 42.016019,30.373568 c 0,0.279209 0.11121,0.501629 0.454305,0.501629 0.21059,0 0.328898,-0.125407 0.392785,-0.265012 v 0.04969 c 0,0.11121 0.09228,0.203491 0.203491,0.203491 0.113577,0 0.205857,-0.09228 0.205857,-0.203491 v -0.903879 c 0,-0.120675 -0.09938,-0.220054 -0.220054,-0.220054 -0.120675,0 -0.220054,0.09938 -0.220054,0.220054 v 0.501629 c 0,0.191661 -0.08045,0.286307 -0.201125,0.286307 -0.06862,0 -0.175097,-0.04022 -0.175097,-0.238983 v -0.548953 c 0,-0.120675 -0.09938,-0.220054 -0.220054,-0.220054 -0.120675,0 -0.220054,0.09938 -0.220054,0.220054 z"
         style="fill:#ff55dd;stroke-width:0.12675935"
         id="path873"
         inkscape:connector-curvature="0" />
      <path
         d="m 43.580652,30.645678 c 0,0.120675 0.09701,0.217688 0.217688,0.217688 0.123041,0 0.220054,-0.09701 0.220054,-0.217688 V 30.45875 l 0.113576,-0.127773 0.262646,0.43301 c 0.03549,0.05915 0.101745,0.09938 0.177463,0.09938 0.113576,0 0.205857,-0.09228 0.205857,-0.205857 0,-0.04022 -0.01183,-0.07808 -0.03076,-0.108844 l -0.305237,-0.492164 0.201125,-0.222421 c 0.02839,-0.03313 0.04732,-0.07335 0.04732,-0.120675 0,-0.09701 -0.08045,-0.177463 -0.177463,-0.177463 -0.05442,0 -0.104111,0.0213 -0.137238,0.06152 l -0.357292,0.421179 v -0.81633 c 0,-0.120675 -0.09701,-0.217688 -0.217688,-0.217688 -0.123041,0 -0.220054,0.09701 -0.220054,0.217688 z"
         style="fill:#ff55dd;stroke-width:0.12675935"
         id="path875"
         inkscape:connector-curvature="0" />
    </g>
    <text
       xml:space="preserve"
       style="font-style:normal;font-variant:normal;font-weight:normal;font-stretch:normal;font-size:10.58333302px;line-height:1.25;font-family:Jellee;-inkscape-font-specification:Jellee;letter-spacing:0px;word-spacing:0px;fill:#000000;fill-opacity:1;stroke:none;stroke-width:0.26458332"
       x="43.920834"
       y="38.490623"
       id="text48"><tspan
         sodipodi:role="line"
         id="tspan46"
         x="43.920834"
         y="48.047375"
         style="stroke-width:0.26458332" /></text>
  </g>
  <g
     inkscape:groupmode="layer"
     id="layer2"
     inkscape:label="Layer 2"
     sodipodi:insensitive="true"
     style="display:none">
    <path
       style="fill:none;stroke:#000000;stroke-width:0.26458332px;stroke-linecap:butt;stroke-linejoin:miter;stroke-opacity:1"
       d="M 0,0 89.999999,50"
       id="path42"
       inkscape:connector-curvature="0" />
    <path
       style="fill:none;stroke:#000000;stroke-width:0.26458332px;stroke-linecap:butt;stroke-linejoin:miter;stroke-opacity:1"
       d="M 0,50 89.999999,0"
       id="path44"
       inkscape:connector-curvature="0" />
  </g>
</svg>
