<?xml version="1.0" encoding="UTF-8" standalone="no"?>
<!-- Created with Inkscape (http://www.inkscape.org/) -->

<svg
   xmlns:dc="http://purl.org/dc/elements/1.1/"
   xmlns:cc="http://creativecommons.org/ns#"
   xmlns:rdf="http://www.w3.org/1999/02/22-rdf-syntax-ns#"
   xmlns:svg="http://www.w3.org/2000/svg"
   xmlns="http://www.w3.org/2000/svg"
   xmlns:sodipodi="http://sodipodi.sourceforge.net/DTD/sodipodi-0.dtd"
   xmlns:inkscape="http://www.inkscape.org/namespaces/inkscape"
   width="135mm"
   height="42mm"
   viewBox="0 0 135 42"
   version="1.1"
   id="svg8"
   inkscape:version="0.92.5 (2060ec1f9f, 2020-04-08)"
   sodipodi:docname="coin.svg">
  <defs
     id="defs2">
    <linearGradient
       y2="180"
       x2="100.008"
       y1="40.007999"
       x1="160.008"
       id="b"
       gradientUnits="userSpaceOnUse">
      <stop
         id="stop817"
         offset="0"
         stop-color="#37aee2" />
      <stop
         id="stop819"
         offset="1"
         stop-color="#1e96c8" />
    </linearGradient>
    <linearGradient
       y2="174.70815"
       x2="146.52715"
       y1="131.02763"
       x1="123.64119"
       id="w"
       gradientTransform="scale(1.0919081,0.91582798)"
       gradientUnits="userSpaceOnUse">
      <stop
         id="stop822"
         offset="0"
         stop-color="#eff7fc" />
      <stop
         id="stop824"
         offset="1"
         stop-color="#fff" />
    </linearGradient>
  </defs>
  <sodipodi:namedview
     id="base"
     pagecolor="#ffffff"
     bordercolor="#666666"
     borderopacity="1.0"
     inkscape:pageopacity="0.0"
     inkscape:pageshadow="2"
     inkscape:zoom="0.9899495"
     inkscape:cx="269.9262"
     inkscape:cy="75.984138"
     inkscape:document-units="mm"
     inkscape:current-layer="layer1"
     showgrid="false"
     fit-margin-top="0"
     fit-margin-left="0"
     fit-margin-right="0"
     fit-margin-bottom="0"
     inkscape:window-width="1600"
     inkscape:window-height="836"
     inkscape:window-x="0"
     inkscape:window-y="27"
     inkscape:window-maximized="1"
     inkscape:snap-bbox="true"
     inkscape:bbox-paths="true"
     inkscape:bbox-nodes="true"
     inkscape:snap-bbox-edge-midpoints="true"
     inkscape:snap-bbox-midpoints="true"
     inkscape:object-paths="true"
     inkscape:snap-intersection-paths="true"
     inkscape:snap-smooth-nodes="true"
     inkscape:snap-midpoints="true"
     inkscape:snap-object-midpoints="true"
     inkscape:snap-center="true"
     inkscape:snap-text-baseline="true"
     inkscape:snap-page="true"
     showguides="true"
     inkscape:guide-bbox="true"
     inkscape:snap-global="false">
    <sodipodi:guide
       position="12.000744,63.452753"
       orientation="1,0"
       id="guide867"
       inkscape:locked="false" />
    <sodipodi:guide
       position="39.970981,61.988095"
       orientation="1,0"
       id="guide871"
       inkscape:locked="false" />
    <sodipodi:guide
       position="121.474,20.980658"
       orientation="0,1"
       id="guide879"
       inkscape:locked="false" />
    <sodipodi:guide
       position="50.501162,58.107933"
       orientation="1,0"
       id="guide881"
       inkscape:locked="false" />
  </sodipodi:namedview>
  <metadata
     id="metadata5">
    <rdf:RDF>
      <cc:Work
         rdf:about="">
        <dc:format>image/svg+xml</dc:format>
        <dc:type
           rdf:resource="http://purl.org/dc/dcmitype/StillImage" />
        <dc:title></dc:title>
      </cc:Work>
    </rdf:RDF>
  </metadata>
  <g
     inkscape:label="Layer 1"
     inkscape:groupmode="layer"
     id="layer1"
     transform="translate(-45.130598,-86.649168)"
     style="display:inline">
    <rect
       style="fill:#012dff;fill-opacity:1;stroke:none;stroke-width:1.95799994;stroke-miterlimit:4;stroke-dasharray:none;stroke-opacity:1"
       id="rect831"
       width="2.5"
       height="16"
       x="85.101578"
       y="99.66851"
       ry="1.25" />
    <g
       id="g6181"
       transform="matrix(0.03911274,0,0,0.03911274,57.192222,97.754027)">
      <circle
         id="circle6143"
         r="256"
         cy="256"
         cx="256"
         style="fill:#fee55a" />
      <path
         id="path6145"
         d="M 39.147,256 C 39.147,121.201 143.334,10.737 275.574,0.739 269.113,0.25 262.586,0 256,0 114.615,0 0,114.615 0,256 c 0,141.385 114.615,256 256,256 6.586,0 13.113,-0.25 19.573,-0.739 C 143.334,501.263 39.147,390.799 39.147,256 Z"
         inkscape:connector-curvature="0"
         style="fill:#ffd301" />
      <circle
         id="circle6147"
         r="220.535"
         cy="256"
         cx="256"
         style="fill:#ffd301" />
      <path
         id="path6149"
         d="m 83.38,256 c 0,-113.702 86.05,-207.293 196.577,-219.235 -7.87,-0.85 -15.861,-1.3 -23.957,-1.3 -121.798,0 -220.535,98.737 -220.535,220.535 0,121.798 98.737,220.535 220.535,220.535 8.097,0 16.087,-0.449 23.957,-1.3 C 169.43,463.293 83.38,369.702 83.38,256 Z"
         inkscape:connector-curvature="0"
         style="fill:#ffc20c" />
      <path
         id="path6151"
         d="m 359.072,301.838 c 0.073,-21.326 -10.717,-40.183 -27.14,-51.343 -1.397,-0.949 -1.731,-2.85 -0.747,-4.222 7.259,-10.124 11.546,-22.515 11.546,-35.895 0,-29.015 -20.108,-53.421 -47.121,-60.016 -1.327,-0.324 -2.246,-1.535 -2.246,-2.901 v -24.806 c 0,-8.696 -6.682,-16.178 -15.368,-16.587 -9.274,-0.437 -16.93,6.953 -16.93,16.131 v 23.407 c 0,1.658 -1.344,3.001 -3,3.001 h -21.452 c -1.657,0 -3.001,-1.343 -3.001,-3.001 v -22.951 c 0,-8.696 -6.682,-16.178 -15.368,-16.587 -9.274,-0.437 -16.93,6.953 -16.93,16.131 v 23.407 c 0,1.658 -1.343,3.001 -3,3.001 h -20.398 c -8.696,0 -16.178,6.683 -16.587,15.368 -0.437,9.274 6.953,16.93 16.131,16.93 h 6.045 c 1.657,0 3.001,1.343 3.001,3.001 v 144.188 c 0,1.657 -1.344,3.001 -3.001,3.001 h -5.588 c -8.696,0 -16.178,6.682 -16.587,15.368 -0.437,9.274 6.953,16.93 16.131,16.93 h 20.854 c 1.657,0 3,1.343 3,3.001 v 22.951 c 0,8.696 6.682,16.178 15.368,16.587 9.274,0.437 16.93,-6.953 16.93,-16.131 v -23.408 c 0,-1.658 1.344,-3.001 3.001,-3.001 h 21.452 c 1.657,0 3,1.343 3,3.001 v 22.951 c 0,8.696 6.682,16.178 15.368,16.587 9.274,0.437 16.93,-6.953 16.93,-16.131 v -23.408 c 0,-1.658 1.344,-3.001 3,-3.001 34.183,0.002 62.589,-27.368 62.707,-61.553 z M 218.803,185.34 c 0,-2.449 1.985,-4.434 4.434,-4.434 h 57.096 c 16.037,0 29.61,12.55 30.086,28.581 0.494,16.656 -12.911,30.364 -29.459,30.364 h -57.723 c -2.449,0 -4.434,-1.985 -4.434,-4.434 z m 107.958,117.174 c -0.476,16.03 -14.049,28.58 -30.086,28.58 h -73.438 c -2.449,0 -4.434,-1.985 -4.434,-4.434 v -50.078 c 0,-2.448 1.985,-4.434 4.434,-4.434 h 74.065 c 16.548,10e-4 29.953,13.709 29.459,30.366 z"
         inkscape:connector-curvature="0"
         style="fill:#e49824" />
      <path
         id="path6153"
         d="m 280.831,145.606 v -23.407 c 0,-5.16 2.421,-9.755 6.188,-12.712 -2.512,-1.992 -5.608,-3.259 -9.024,-3.419 -9.274,-0.437 -16.93,6.953 -16.93,16.131 v 23.407 c 0,1.658 -1.344,3.001 -3,3.001 h 19.766 c 1.657,0 3,-1.343 3,-3.001 z"
         inkscape:connector-curvature="0"
         style="fill:#df751c" />
      <path
         id="path6155"
         d="m 181.095,346.462 c 0.409,-8.686 7.891,-15.368 16.587,-15.368 h 5.588 c 1.657,0 3.001,-1.343 3.001,-3.001 V 183.906 c 0,-1.657 -1.344,-3.001 -3.001,-3.001 h -6.045 c -9.178,0 -16.568,-7.656 -16.131,-16.93 0.409,-8.686 7.891,-15.368 16.587,-15.368 h -19.766 c -8.696,0 -16.178,6.683 -16.587,15.368 -0.437,9.274 6.953,16.93 16.131,16.93 h 6.045 c 1.657,0 3.001,1.343 3.001,3.001 v 144.188 c 0,1.657 -1.344,3.001 -3.001,3.001 h -5.588 c -8.696,0 -16.178,6.682 -16.587,15.368 -0.437,9.274 6.953,16.93 16.131,16.93 h 19.766 c -9.178,0 -16.568,-7.657 -16.131,-16.931 z"
         inkscape:connector-curvature="0"
         style="fill:#df751c" />
      <path
         id="path6157"
         d="m 221.08,145.606 v -23.407 c 0,-5.16 2.421,-9.755 6.188,-12.712 -2.512,-1.992 -5.608,-3.259 -9.024,-3.419 -9.274,-0.437 -16.93,6.953 -16.93,16.131 v 23.407 c 0,1.658 -1.343,3.001 -3,3.001 h 19.766 c 1.657,0 3,-1.343 3,-3.001 z"
         inkscape:connector-curvature="0"
         style="fill:#df751c" />
      <path
         id="path6159"
         d="m 280.831,389.345 v -22.951 c 0,-1.658 -1.344,-3.001 -3,-3.001 h -19.766 c 1.657,0 3,1.343 3,3.001 v 22.951 c 0,8.696 6.682,16.178 15.368,16.587 4.06,0.191 7.809,-1.117 10.742,-3.419 -3.874,-3.074 -6.344,-7.892 -6.344,-13.168 z"
         inkscape:connector-curvature="0"
         style="fill:#df751c" />
      <path
         id="path6161"
         d="m 221.08,389.345 v -22.951 c 0,-1.658 -1.343,-3.001 -3.001,-3.001 h -19.766 c 1.657,0 3,1.343 3,3.001 v 22.951 c 0,8.696 6.682,16.178 15.368,16.587 4.06,0.191 7.809,-1.117 10.742,-3.419 -3.873,-3.074 -6.343,-7.892 -6.343,-13.168 z"
         inkscape:connector-curvature="0"
         style="fill:#df751c" />
      <g
         id="g6179"
         style="fill:#fee55a">
        <path
           id="path6163"
           d="m 476.535,248.274 h -27.599 v -3.744 c 0,-4.267 -3.459,-7.726 -7.726,-7.726 -4.267,0 -7.726,3.459 -7.726,7.726 v 22.941 c 0,4.267 3.459,7.726 7.726,7.726 4.267,0 7.726,-3.459 7.726,-7.726 v -3.744 h 27.599 c 4.267,0 7.726,-3.459 7.726,-7.726 0,-4.268 -3.459,-7.727 -7.726,-7.727 z"
           inkscape:connector-curvature="0" />
        <path
           id="path6165"
           d="m 244.53,78.517 h 22.941 c 4.267,0 7.726,-3.459 7.726,-7.726 0,-4.267 -3.459,-7.726 -7.726,-7.726 h -3.744 v -27.6 c 0,-4.267 -3.459,-7.726 -7.726,-7.726 -4.267,0 -7.726,3.459 -7.726,7.726 v 27.599 h -3.744 c -4.267,0 -7.726,3.459 -7.726,7.726 -0.002,4.268 3.458,7.727 7.725,7.727 z"
           inkscape:connector-curvature="0" />
        <path
           id="path6167"
           d="m 267.47,433.483 h -22.94 c -4.267,0 -7.726,3.459 -7.726,7.726 0,4.267 3.459,7.726 7.726,7.726 h 3.744 v 27.599 c 0,4.267 3.459,7.726 7.726,7.726 4.267,0 7.726,-3.459 7.726,-7.726 v -27.599 h 3.744 c 4.267,0 7.726,-3.459 7.726,-7.726 10e-4,-4.267 -3.459,-7.726 -7.726,-7.726 z"
           inkscape:connector-curvature="0" />
        <path
           id="path6169"
           d="m 63.065,267.47 c 0,4.267 3.459,7.726 7.726,7.726 4.267,0 7.726,-3.459 7.726,-7.726 v -22.94 c 0,-4.267 -3.459,-7.726 -7.726,-7.726 -4.267,0 -7.726,3.459 -7.726,7.726 v 3.744 h -27.45 c -0.089,2.566 -0.149,5.139 -0.149,7.726 0,2.587 0.061,5.16 0.149,7.726 h 27.45 z"
           inkscape:connector-curvature="0" />
        <path
           id="path6171"
           d="m 89.172,220.676 c 0.649,0.168 1.3,0.248 1.941,0.248 3.437,0 6.573,-2.311 7.475,-5.792 10.512,-40.608 37.215,-76.429 73.263,-98.278 3.649,-2.212 4.814,-6.963 2.602,-10.613 -2.211,-3.649 -6.962,-4.815 -10.612,-2.603 -40.044,24.272 -68.531,62.493 -80.212,107.622 -1.07,4.131 1.412,8.347 5.543,9.416 z"
           inkscape:connector-curvature="0" />
        <path
           id="path6173"
           d="m 334.876,96.344 c -3.825,-1.892 -8.459,-0.327 -10.352,3.497 -1.893,3.824 -0.327,8.459 3.497,10.352 42.441,21.007 73.565,59.256 85.39,104.94 0.901,3.482 4.038,5.792 7.474,5.792 0.641,0 1.292,-0.08 1.942,-0.248 4.131,-1.069 6.613,-5.285 5.544,-9.416 C 415.42,161.227 381.343,119.342 334.876,96.344 Z"
           inkscape:connector-curvature="0" />
        <path
           id="path6175"
           d="m 422.828,291.324 c -4.13,-1.07 -8.347,1.412 -9.416,5.544 -11.825,45.684 -42.949,83.933 -85.39,104.94 -3.824,1.893 -5.39,6.528 -3.497,10.352 1.348,2.723 4.085,4.3 6.931,4.3 1.151,0 2.32,-0.258 3.422,-0.803 46.466,-22.999 80.544,-64.884 93.495,-114.917 1.068,-4.131 -1.414,-8.347 -5.545,-9.416 z"
           inkscape:connector-curvature="0" />
        <path
           id="path6177"
           d="m 171.846,395.143 c -36.575,-22.171 -62.592,-57.073 -73.258,-98.276 -1.07,-4.131 -5.285,-6.613 -9.416,-5.544 -4.131,1.069 -6.613,5.285 -5.544,9.416 11.681,45.126 40.166,83.346 80.207,107.618 1.252,0.759 2.633,1.12 3.997,1.12 2.613,0 5.161,-1.325 6.615,-3.722 2.213,-3.648 1.048,-8.4 -2.601,-10.612 z"
           inkscape:connector-curvature="0" />
      </g>
    </g>
    <g
       aria-label="A coin"
       style="font-style:normal;font-variant:normal;font-weight:normal;font-stretch:normal;font-size:12.64356518px;line-height:1.25;font-family:Carlito;-inkscape-font-specification:Carlito;letter-spacing:0px;word-spacing:0px;fill:#ffba01;fill-opacity:1;stroke:none;stroke-width:0.19755571"
       id="text6212">
      <path
         d="m 95.175796,111.58401 c 0,0.60689 0.493099,1.09999 1.09999,1.09999 0.505742,0 0.92298,-0.31609 1.062059,-0.77126 l 0.417238,-1.35286 h 3.439047 l 0.41724,1.32757 c 0.15172,0.45517 0.5816,0.79655 1.09999,0.79655 0.63218,0 1.15056,-0.51839 1.15056,-1.15057 0,-0.12643 -0.0253,-0.25287 -0.0632,-0.37931 l -2.37699,-6.87809 c -0.26552,-0.78391 -1.01149,-1.34022 -1.883895,-1.34022 -0.885049,0 -1.631019,0.55631 -1.896534,1.34022 l -2.402278,6.95396 c -0.03793,0.11379 -0.06322,0.22758 -0.06322,0.35402 z m 3.173534,-2.89538 0.606891,-1.93447 c 0.189654,-0.60689 0.303446,-1.04941 0.442525,-1.60573 h 0.151723 c 0.126436,0.55632 0.240228,0.99884 0.442525,1.60573 l 0.606886,1.93447 z"
         style="font-style:normal;font-variant:normal;font-weight:normal;font-stretch:normal;font-family:Jellee;-inkscape-font-specification:Jellee;fill:#ffba01;fill-opacity:1;stroke-width:0.19755571"
         id="path6233" />
      <path
         d="m 107.80668,109.15644 c 0,2.19998 1.13792,3.61606 3.55285,3.61606 1.30228,0 2.90802,-0.46781 2.90802,-1.68159 0,-0.60689 -0.36667,-0.96091 -0.96092,-0.96091 -0.89769,0 -0.92298,0.96091 -1.93446,0.96091 -0.67011,0 -1.21378,-0.53103 -1.21378,-1.94711 0,-1.36551 0.51838,-1.94711 1.21378,-1.94711 1.01148,0 0.9862,0.84712 1.87125,0.84712 0.56896,0 0.91033,-0.32873 0.91033,-0.91034 0,-1.17585 -1.49194,-1.61838 -2.69308,-1.61838 -2.38963,0 -3.65399,1.61838 -3.65399,3.64135 z"
         style="font-style:normal;font-variant:normal;font-weight:normal;font-stretch:normal;font-family:Jellee;-inkscape-font-specification:Jellee;fill:#ffba01;fill-opacity:1;stroke-width:0.19755571"
         id="path6235" />
      <path
         d="m 114.74797,109.15644 c 0,2.0609 1.26436,3.61606 3.59078,3.61606 2.32641,0 3.66663,-1.54251 3.66663,-3.64135 0,-2.04825 -1.26436,-3.61606 -3.61606,-3.61606 -2.32642,0 -3.64135,1.54252 -3.64135,3.64135 z m 2.35171,-0.0253 c 0,-1.1632 0.39195,-1.93446 1.26435,-1.93446 0.88505,0 1.277,0.7839 1.277,1.94711 0,1.17585 -0.39195,1.94711 -1.26435,1.94711 -0.87241,0 -1.277,-0.77126 -1.277,-1.95976 z"
         style="font-style:normal;font-variant:normal;font-weight:normal;font-stretch:normal;font-family:Jellee;-inkscape-font-specification:Jellee;fill:#ffba01;fill-opacity:1;stroke-width:0.19755571"
         id="path6237" />
      <path
         d="m 123.16858,103.73235 c 0,0.54368 0.44252,0.9862 0.98619,0.9862 h 0.58161 c 0.54367,0 0.9862,-0.44252 0.9862,-0.9862 0,-0.54367 -0.44253,-0.9862 -0.9862,-0.9862 h -0.58161 c -0.54367,0 -0.98619,0.44253 -0.98619,0.9862 z m 0.10114,7.77579 c 0,0.64483 0.53103,1.17586 1.17586,1.17586 0.64482,0 1.17585,-0.53103 1.17585,-1.17586 v -4.74133 c 0,-0.64482 -0.53103,-1.17585 -1.17585,-1.17585 -0.64483,0 -1.17586,0.53103 -1.17586,1.17585 z"
         style="font-style:normal;font-variant:normal;font-weight:normal;font-stretch:normal;font-family:Jellee;-inkscape-font-specification:Jellee;fill:#ffba01;fill-opacity:1;stroke-width:0.19755571"
         id="path6239" />
      <path
         d="m 127.26509,111.50814 c 0,0.64483 0.53103,1.17586 1.17585,1.17586 0.64483,0 1.17586,-0.53103 1.17586,-1.17586 v -2.61721 c 0,-1.31493 0.65746,-1.55516 1.13792,-1.55516 0.40459,0 0.99884,0.2023 0.99884,1.26435 v 2.90802 c 0,0.64483 0.53103,1.17586 1.17585,1.17586 0.64482,0 1.17585,-0.53103 1.17585,-1.17586 v -3.27468 c 0,-1.58044 -0.67011,-2.68043 -2.42756,-2.68043 -1.17586,0 -1.8839,0.63217 -2.22527,1.30228 v -0.17701 c 0,-0.59424 -0.4931,-1.08734 -1.09999,-1.08734 -0.59425,0 -1.08735,0.4931 -1.08735,1.08734 z"
         style="font-style:normal;font-variant:normal;font-weight:normal;font-stretch:normal;font-family:Jellee;-inkscape-font-specification:Jellee;fill:#ffba01;fill-opacity:1;stroke-width:0.19755571"
         id="path6241" />
    </g>
  </g>
  <g
     inkscape:groupmode="layer"
     id="layer2"
     inkscape:label="Layer 2"
     style="display:none">
    <path
       style="fill:none;stroke:#000000;stroke-width:0.26458332px;stroke-linecap:butt;stroke-linejoin:miter;stroke-opacity:1"
       d="M 0,0 128,42"
       id="path881"
       inkscape:connector-curvature="0" />
    <path
       style="fill:none;stroke:#000000;stroke-width:0.26458332px;stroke-linecap:butt;stroke-linejoin:miter;stroke-opacity:1"
       d="M 0,42 128,1.5894571e-7"
       id="path883"
       inkscape:connector-curvature="0" />
  </g>
</svg>
