<?xml version="1.0" encoding="UTF-8" standalone="no"?>
<!-- Created with Inkscape (http://www.inkscape.org/) -->

<svg
   xmlns:dc="http://purl.org/dc/elements/1.1/"
   xmlns:cc="http://creativecommons.org/ns#"
   xmlns:rdf="http://www.w3.org/1999/02/22-rdf-syntax-ns#"
   xmlns:svg="http://www.w3.org/2000/svg"
   xmlns="http://www.w3.org/2000/svg"
   xmlns:sodipodi="http://sodipodi.sourceforge.net/DTD/sodipodi-0.dtd"
   xmlns:inkscape="http://www.inkscape.org/namespaces/inkscape"
   width="128mm"
   height="25mm"
   viewBox="0 0 128 25"
   version="1.1"
   id="svg8"
   inkscape:version="0.92.4 (5da689c313, 2019-01-14)"
   sodipodi:docname="de.svg">
  <defs
     id="defs2">
    <linearGradient
       y2="180"
       x2="100.008"
       y1="40.007999"
       x1="160.008"
       id="b"
       gradientUnits="userSpaceOnUse">
      <stop
         id="stop817"
         offset="0"
         stop-color="#37aee2" />
      <stop
         id="stop819"
         offset="1"
         stop-color="#1e96c8" />
    </linearGradient>
    <linearGradient
       y2="174.70815"
       x2="146.52715"
       y1="131.02763"
       x1="123.64119"
       id="w"
       gradientTransform="scale(1.0919081,0.91582798)"
       gradientUnits="userSpaceOnUse">
      <stop
         id="stop822"
         offset="0"
         stop-color="#eff7fc" />
      <stop
         id="stop824"
         offset="1"
         stop-color="#fff" />
    </linearGradient>
  </defs>
  <sodipodi:namedview
     id="base"
     pagecolor="#ffffff"
     bordercolor="#666666"
     borderopacity="1.0"
     inkscape:pageopacity="0.0"
     inkscape:pageshadow="2"
     inkscape:zoom="2.8"
     inkscape:cx="-13.901657"
     inkscape:cy="103.34774"
     inkscape:document-units="mm"
     inkscape:current-layer="layer1"
     showgrid="false"
     fit-margin-top="0"
     fit-margin-left="0"
     fit-margin-right="0"
     fit-margin-bottom="0"
     inkscape:window-width="1600"
     inkscape:window-height="836"
     inkscape:window-x="0"
     inkscape:window-y="27"
     inkscape:window-maximized="1"
     inkscape:snap-bbox="true"
     inkscape:bbox-paths="true"
     inkscape:bbox-nodes="true"
     inkscape:snap-bbox-edge-midpoints="true"
     inkscape:snap-bbox-midpoints="true"
     inkscape:object-paths="true"
     inkscape:snap-intersection-paths="true"
     inkscape:snap-smooth-nodes="true"
     inkscape:snap-midpoints="true"
     inkscape:snap-object-midpoints="true"
     inkscape:snap-center="true"
     inkscape:snap-text-baseline="true"
     inkscape:snap-page="true"
     showguides="true"
     inkscape:guide-bbox="true"
     inkscape:snap-global="true">
    <sodipodi:guide
       position="-59.333834,64.411955"
       orientation="1,0"
       id="guide867"
       inkscape:locked="false" />
    <sodipodi:guide
       position="-45.435819,65.748302"
       orientation="1,0"
       id="guide871"
       inkscape:locked="false" />
    <sodipodi:guide
       position="121.474,20.980658"
       orientation="0,1"
       id="guide879"
       inkscape:locked="false" />
    <sodipodi:guide
       position="-31.537804,73.499118"
       orientation="1,0"
       id="guide881"
       inkscape:locked="false" />
    <sodipodi:guide
       position="10.016369,18.048363"
       orientation="1,0"
       id="guide833"
       inkscape:locked="false" />
  </sodipodi:namedview>
  <metadata
     id="metadata5">
    <rdf:RDF>
      <cc:Work
         rdf:about="">
        <dc:format>image/svg+xml</dc:format>
        <dc:type
           rdf:resource="http://purl.org/dc/dcmitype/StillImage" />
        <dc:title></dc:title>
      </cc:Work>
    </rdf:RDF>
  </metadata>
  <g
     inkscape:label="Layer 1"
     inkscape:groupmode="layer"
     id="layer1"
     transform="translate(-45.130598,-103.64917)"
     style="display:inline">
    <g
       aria-label="Deutsch"
       style="font-style:normal;font-variant:normal;font-weight:normal;font-stretch:normal;font-size:12.69999981px;line-height:1.25;font-family:'Old Standard TT';-inkscape-font-specification:'Old Standard TT';letter-spacing:0px;word-spacing:0px;fill:#5f5f5f;fill-opacity:1;stroke:none;stroke-width:0.26458332"
       id="text876"
       transform="translate(-27.614768,8.5605267)">
      <path
         d="m 82.761735,110.94298 c 0,0.6985 0.381,1.0795 1.0795,1.0795 h 2.2098 c 3.2004,0 5.206999,-1.6129 5.206999,-4.8133 0,-3.5052 -2.400299,-4.7752 -5.206999,-4.7752 h -2.2098 c -0.6985,0 -1.0795,0.381 -1.0795,1.0795 z m 2.413,-0.8509 v -5.7404 h 0.8763 c 1.6637,0 2.6797,0.7493 2.6797,2.8194 0,2.286 -1.1049,2.921 -2.6797,2.921 z"
         style="font-style:normal;font-variant:normal;font-weight:normal;font-stretch:normal;font-family:Jellee;-inkscape-font-specification:Jellee;fill:#5f5f5f;fill-opacity:1;stroke-width:0.26458332"
         id="path827"
         inkscape:connector-curvature="0" />
      <path
         d="m 92.200414,108.58078 c 0,2.2225 1.4732,3.6322 3.8735,3.6322 1.2446,0 2.6035,-0.4064 2.6035,-1.4478 0,-0.5461 -0.4318,-0.9779 -0.9525,-0.9779 -0.7874,0 -0.889,0.762 -1.8415,0.762 -0.8001,0 -1.3335,-0.5334 -1.4224,-1.3589 h 3.7465 c 0.8128,0 1.0414,-0.4064 1.0414,-1.1176 0,-1.4859 -1.2192,-3.1496 -3.4671,-3.1496 -2.2098,0 -3.5814,1.5494 -3.5814,3.6576 z m 2.2733,-0.7747 c 0.0889,-0.8128 0.5588,-1.3208 1.27,-1.3208 0.7112,0 1.1938,0.508 1.2319,1.3208 z"
         style="font-style:normal;font-variant:normal;font-weight:normal;font-stretch:normal;font-family:Jellee;-inkscape-font-specification:Jellee;fill:#5f5f5f;fill-opacity:1;stroke-width:0.26458332"
         id="path829"
         inkscape:connector-curvature="0" />
      <path
         d="m 100.4058,109.49518 c 0,1.4986 0.5969,2.6924 2.4384,2.6924 1.1303,0 1.7653,-0.6731 2.1082,-1.4224 v 0.2667 c 0,0.5969 0.4953,1.0922 1.0922,1.0922 0.6096,0 1.1049,-0.4953 1.1049,-1.0922 v -4.8514 c 0,-0.6477 -0.5334,-1.1811 -1.1811,-1.1811 -0.6477,0 -1.1811,0.5334 -1.1811,1.1811 v 2.6924 c 0,1.0287 -0.4318,1.5367 -1.0795,1.5367 -0.3683,0 -0.9398,-0.2159 -0.9398,-1.2827 v -2.9464 c 0,-0.6477 -0.5334,-1.1811 -1.1811,-1.1811 -0.6477,0 -1.1811,0.5334 -1.1811,1.1811 z"
         style="font-style:normal;font-variant:normal;font-weight:normal;font-stretch:normal;font-family:Jellee;-inkscape-font-specification:Jellee;fill:#5f5f5f;fill-opacity:1;stroke-width:0.26458332"
         id="path831"
         inkscape:connector-curvature="0" />
      <path
         d="m 108.06708,105.88838 c 0,0.4191 0.3429,0.7747 0.7747,0.7747 h 0.3556 l -0.0127,3.0353 c -0.0127,1.6383 0.5588,2.4765 2.2225,2.4765 0.8001,0 1.7272,-0.0254 1.7272,-0.9652 0,-0.4445 -0.381,-0.6096 -0.9144,-0.762 -0.2921,-0.0762 -0.6858,-0.2286 -0.6858,-0.9525 v -2.8321 h 0.6985 c 0.4318,0 0.7747,-0.3556 0.7747,-0.7874 0,-0.4191 -0.3429,-0.7747 -0.7747,-0.7747 h -0.7493 v -0.8763 c 0,-0.5969 -0.4826,-1.0795 -1.0795,-1.0795 -0.5715,0 -1.0541,0.4572 -1.0795,1.016 l -0.0508,0.9398 h -0.4318 c -0.4318,0 -0.7747,0.3556 -0.7747,0.7874 z"
         style="font-style:normal;font-variant:normal;font-weight:normal;font-stretch:normal;font-family:Jellee;-inkscape-font-specification:Jellee;fill:#5f5f5f;fill-opacity:1;stroke-width:0.26458332"
         id="path833"
         inkscape:connector-curvature="0" />
      <path
         d="m 116.9283,112.23838 c 2.413,0 3.1623,-0.8763 3.1623,-2.2987 0,-1.143 -0.6477,-1.8669 -2.1717,-2.1844 l -0.9906,-0.2032 c -0.5588,-0.1143 -0.7874,-0.2413 -0.7874,-0.5334 0,-0.3683 0.3429,-0.5842 0.8001,-0.5842 1.3208,0 1.1684,0.8382 2.0955,0.8382 0.4318,0 0.7366,-0.3683 0.7366,-0.762 0,-0.9779 -1.524,-1.5875 -2.7178,-1.5875 -1.8796,0 -3.1369,0.7747 -3.1369,2.2479 0,1.1303 0.7493,1.8542 2.3114,2.1717 l 0.8636,0.1778 c 0.6223,0.127 0.7366,0.2921 0.7366,0.5461 0,0.4191 -0.3302,0.6096 -0.8128,0.6096 -1.2319,0 -1.4351,-0.9906 -2.3114,-0.9906 -0.6223,0 -0.9398,0.3429 -0.9398,1.0414 0,1.0541 1.3716,1.5113 3.1623,1.5113 z"
         style="font-style:normal;font-variant:normal;font-weight:normal;font-stretch:normal;font-family:Jellee;-inkscape-font-specification:Jellee;fill:#5f5f5f;fill-opacity:1;stroke-width:0.26458332"
         id="path835"
         inkscape:connector-curvature="0" />
      <path
         d="m 121.02346,108.58078 c 0,2.2098 1.143,3.6322 3.5687,3.6322 1.3081,0 2.921,-0.4699 2.921,-1.6891 0,-0.6096 -0.3683,-0.9652 -0.9652,-0.9652 -0.9017,0 -0.9271,0.9652 -1.9431,0.9652 -0.6731,0 -1.2192,-0.5334 -1.2192,-1.9558 0,-1.3716 0.5207,-1.9558 1.2192,-1.9558 1.016,0 0.9906,0.8509 1.8796,0.8509 0.5715,0 0.9144,-0.3302 0.9144,-0.9144 0,-1.1811 -1.4986,-1.6256 -2.7051,-1.6256 -2.4003,0 -3.6703,1.6256 -3.6703,3.6576 z"
         style="font-style:normal;font-variant:normal;font-weight:normal;font-stretch:normal;font-family:Jellee;-inkscape-font-specification:Jellee;fill:#5f5f5f;fill-opacity:1;stroke-width:0.26458332"
         id="path837"
         inkscape:connector-curvature="0" />
      <path
         d="m 128.74665,110.94298 c 0,0.6477 0.5334,1.1811 1.1811,1.1811 0.6477,0 1.1811,-0.5334 1.1811,-1.1811 v -2.6416 c 0,-1.3208 0.6604,-1.5621 1.143,-1.5621 0.4064,0 1.0033,0.2032 1.0033,1.27 v 2.9337 c 0,0.6477 0.5334,1.1811 1.1811,1.1811 0.6477,0 1.1811,-0.5334 1.1811,-1.1811 v -3.302 c 0,-1.5875 -0.6731,-2.6924 -2.4384,-2.6924 -1.1176,0 -1.7526,0.5588 -2.0701,1.2065 v -2.9337 c 0,-0.6477 -0.5334,-1.1811 -1.1811,-1.1811 -0.6477,0 -1.1811,0.5334 -1.1811,1.1811 z"
         style="font-style:normal;font-variant:normal;font-weight:normal;font-stretch:normal;font-family:Jellee;-inkscape-font-specification:Jellee;fill:#5f5f5f;fill-opacity:1;stroke-width:0.26458332"
         id="path839"
         inkscape:connector-curvature="0" />
    </g>
  </g>
  <g
     inkscape:groupmode="layer"
     id="layer2"
     inkscape:label="Layer 2"
     style="display:none"
     transform="translate(0,-17)">
    <path
       style="fill:none;stroke:#000000;stroke-width:0.26458332px;stroke-linecap:butt;stroke-linejoin:miter;stroke-opacity:1"
       d="M 0,0 128,42"
       id="path881"
       inkscape:connector-curvature="0" />
    <path
       style="fill:none;stroke:#000000;stroke-width:0.26458332px;stroke-linecap:butt;stroke-linejoin:miter;stroke-opacity:1"
       d="M 0,42 128,1.5894571e-7"
       id="path883"
       inkscape:connector-curvature="0" />
  </g>
</svg>
