<?xml version="1.0" encoding="UTF-8" standalone="no"?>
<!-- Created with Inkscape (http://www.inkscape.org/) -->

<svg
   xmlns:dc="http://purl.org/dc/elements/1.1/"
   xmlns:cc="http://creativecommons.org/ns#"
   xmlns:rdf="http://www.w3.org/1999/02/22-rdf-syntax-ns#"
   xmlns:svg="http://www.w3.org/2000/svg"
   xmlns="http://www.w3.org/2000/svg"
   xmlns:sodipodi="http://sodipodi.sourceforge.net/DTD/sodipodi-0.dtd"
   xmlns:inkscape="http://www.inkscape.org/namespaces/inkscape"
   width="135mm"
   height="42mm"
   viewBox="0 0 135 42"
   version="1.1"
   id="svg8"
   inkscape:version="0.92.5 (2060ec1f9f, 2020-04-08)"
   sodipodi:docname="dollar.svg">
  <defs
     id="defs2">
    <linearGradient
       y2="180"
       x2="100.008"
       y1="40.007999"
       x1="160.008"
       id="b"
       gradientUnits="userSpaceOnUse">
      <stop
         id="stop817"
         offset="0"
         stop-color="#37aee2" />
      <stop
         id="stop819"
         offset="1"
         stop-color="#1e96c8" />
    </linearGradient>
    <linearGradient
       y2="174.70815"
       x2="146.52715"
       y1="131.02763"
       x1="123.64119"
       id="w"
       gradientTransform="scale(1.0919081,0.91582798)"
       gradientUnits="userSpaceOnUse">
      <stop
         id="stop822"
         offset="0"
         stop-color="#eff7fc" />
      <stop
         id="stop824"
         offset="1"
         stop-color="#fff" />
    </linearGradient>
  </defs>
  <sodipodi:namedview
     id="base"
     pagecolor="#ffffff"
     bordercolor="#666666"
     borderopacity="1.0"
     inkscape:pageopacity="0.0"
     inkscape:pageshadow="2"
     inkscape:zoom="1.979899"
     inkscape:cx="41.148527"
     inkscape:cy="28.522836"
     inkscape:document-units="mm"
     inkscape:current-layer="layer1"
     showgrid="false"
     fit-margin-top="0"
     fit-margin-left="0"
     fit-margin-right="0"
     fit-margin-bottom="0"
     inkscape:window-width="1600"
     inkscape:window-height="836"
     inkscape:window-x="0"
     inkscape:window-y="27"
     inkscape:window-maximized="1"
     inkscape:snap-bbox="true"
     inkscape:bbox-paths="true"
     inkscape:bbox-nodes="true"
     inkscape:snap-bbox-edge-midpoints="true"
     inkscape:snap-bbox-midpoints="true"
     inkscape:object-paths="true"
     inkscape:snap-intersection-paths="true"
     inkscape:snap-smooth-nodes="true"
     inkscape:snap-midpoints="true"
     inkscape:snap-object-midpoints="true"
     inkscape:snap-center="true"
     inkscape:snap-text-baseline="true"
     inkscape:snap-page="true"
     showguides="true"
     inkscape:guide-bbox="true"
     inkscape:snap-global="false">
    <sodipodi:guide
       position="12.000744,63.452753"
       orientation="1,0"
       id="guide867"
       inkscape:locked="false" />
    <sodipodi:guide
       position="39.970981,61.988095"
       orientation="1,0"
       id="guide871"
       inkscape:locked="false" />
    <sodipodi:guide
       position="121.474,20.980658"
       orientation="0,1"
       id="guide879"
       inkscape:locked="false" />
    <sodipodi:guide
       position="50.501162,58.107933"
       orientation="1,0"
       id="guide881"
       inkscape:locked="false" />
  </sodipodi:namedview>
  <metadata
     id="metadata5">
    <rdf:RDF>
      <cc:Work
         rdf:about="">
        <dc:format>image/svg+xml</dc:format>
        <dc:type
           rdf:resource="http://purl.org/dc/dcmitype/StillImage" />
        <dc:title></dc:title>
      </cc:Work>
    </rdf:RDF>
  </metadata>
  <g
     inkscape:label="Layer 1"
     inkscape:groupmode="layer"
     id="layer1"
     transform="translate(-45.130598,-86.649168)"
     style="display:inline">
    <g
       aria-label="Instagram"
       style="font-style:normal;font-variant:normal;font-weight:normal;font-stretch:normal;font-size:12.69999981px;line-height:1.25;font-family:'Old Standard TT';-inkscape-font-specification:'Old Standard TT';letter-spacing:0px;word-spacing:0px;fill:#6a951f;fill-opacity:1;stroke:none;stroke-width:0.26458332"
       id="text857"
       transform="translate(2.5086748,0.23734967)">
      <g
         style="font-style:normal;font-variant:normal;font-weight:normal;font-stretch:normal;font-size:16.93333244px;line-height:1.25;font-family:Jellee;-inkscape-font-specification:Jellee;letter-spacing:0px;word-spacing:0px;fill:#6a951f;fill-opacity:1;stroke:none;stroke-width:0.07000434"
         id="text4828" />
      <g
         aria-label="A dollar"
         style="font-style:normal;font-variant:normal;font-weight:normal;font-stretch:normal;font-size:12.67293072px;line-height:1.25;font-family:Carlito;-inkscape-font-specification:Carlito;letter-spacing:0px;word-spacing:0px;fill:#6a951f;fill-opacity:1;stroke:none;stroke-width:0.05239134"
         id="text4832">
        <path
           d="m 92.621687,110.91771 c 0,0.6083 0.494245,1.10254 1.102545,1.10254 0.506917,0 0.925124,-0.31682 1.064526,-0.77305 l 0.418207,-1.356 h 3.447037 l 0.418207,1.33066 c 0.152075,0.45622 0.582955,0.79839 1.102541,0.79839 0.63365,0 1.15324,-0.51959 1.15324,-1.15323 0,-0.12673 -0.0254,-0.25346 -0.0634,-0.38019 l -2.382515,-6.89408 c -0.266132,-0.78572 -1.013834,-1.34333 -1.888267,-1.34333 -0.887105,0 -1.634808,0.55761 -1.900939,1.34333 l -2.407857,6.97012 c -0.03802,0.11405 -0.06337,0.22811 -0.06337,0.35484 z m 3.180906,-2.9021 0.608301,-1.93896 c 0.190094,-0.6083 0.30415,-1.05186 0.443552,-1.60946 h 0.152075 c 0.12673,0.5576 0.240786,1.00116 0.443553,1.60946 l 0.608301,1.93896 z"
           style="font-style:normal;font-variant:normal;font-weight:normal;font-stretch:normal;font-family:Jellee;-inkscape-font-specification:Jellee;fill:#6a951f;fill-opacity:1;stroke-width:0.05239134"
           id="path5152" />
        <path
           d="m 105.31993,108.56054 c 0,2.11638 1.08987,3.49773 2.95279,3.49773 0.98849,0 1.67283,-0.39286 2.09104,-0.91245 0.10138,0.51959 0.54493,0.89978 1.07719,0.89978 0.67167,0 1.08988,-0.57028 1.08988,-1.34333 v -7.56574 c 0,-0.64632 -0.53227,-1.17858 -1.17859,-1.17858 -0.64632,0 -1.17858,0.53226 -1.17858,1.17858 v 2.48389 c -0.2788,-0.30415 -0.72236,-0.7477 -1.77421,-0.7477 -1.9643,0 -3.07952,1.5461 -3.07952,3.68782 z m 2.36984,-0.0507 c 0,-1.17858 0.4182,-1.98965 1.29264,-1.98965 0.87443,0 1.25462,0.81107 1.25462,1.97698 0,1.17858 -0.39286,1.98965 -1.2673,1.98965 -0.87443,0 -1.27996,-0.82374 -1.27996,-1.97698 z"
           style="font-style:normal;font-variant:normal;font-weight:normal;font-stretch:normal;font-family:Jellee;-inkscape-font-specification:Jellee;fill:#6a951f;fill-opacity:1;stroke-width:0.05239134"
           id="path5154" />
        <path
           d="m 113.79811,108.4845 c 0,2.06569 1.26729,3.62446 3.59911,3.62446 2.33182,0 3.67515,-1.54609 3.67515,-3.6498 0,-2.05302 -1.26729,-3.62446 -3.62446,-3.62446 -2.33182,0 -3.6498,1.5461 -3.6498,3.6498 z m 2.35716,-0.0253 c 0,-1.16591 0.39286,-1.93896 1.2673,-1.93896 0.8871,0 1.27996,0.78572 1.27996,1.95163 0,1.17858 -0.39286,1.95163 -1.26729,1.95163 -0.87443,0 -1.27997,-0.77305 -1.27997,-1.9643 z"
           style="font-style:normal;font-variant:normal;font-weight:normal;font-stretch:normal;font-family:Jellee;-inkscape-font-specification:Jellee;fill:#6a951f;fill-opacity:1;stroke-width:0.05239134"
           id="path5156" />
        <path
           d="m 122.33965,110.84167 c 0,0.64632 0.53226,1.17858 1.17858,1.17858 0.64632,0 1.17859,-0.53226 1.17859,-1.17858 v -7.70514 c 0,-0.64632 -0.53227,-1.17858 -1.17859,-1.17858 -0.64632,0 -1.17858,0.53226 -1.17858,1.17858 z"
           style="font-style:normal;font-variant:normal;font-weight:normal;font-stretch:normal;font-family:Jellee;-inkscape-font-specification:Jellee;fill:#6a951f;fill-opacity:1;stroke-width:0.05239134"
           id="path5158" />
        <path
           d="m 126.3443,110.84167 c 0,0.64632 0.53226,1.17858 1.17858,1.17858 0.64632,0 1.17858,-0.53226 1.17858,-1.17858 v -7.70514 c 0,-0.64632 -0.53226,-1.17858 -1.17858,-1.17858 -0.64632,0 -1.17858,0.53226 -1.17858,1.17858 z"
           style="font-style:normal;font-variant:normal;font-weight:normal;font-stretch:normal;font-family:Jellee;-inkscape-font-specification:Jellee;fill:#6a951f;fill-opacity:1;stroke-width:0.05239134"
           id="path5160" />
        <path
           d="m 129.96876,109.97991 c 0,1.356 1.0772,2.10371 2.35716,2.10371 0.91245,0 1.62214,-0.25346 2.16707,-1.00116 0.076,0.53226 0.53227,0.93779 1.08987,0.93779 0.62098,0 1.08988,-0.50691 1.08988,-1.12789 v -3.1809 c 0,-2.11638 -1.2166,-2.87676 -3.20625,-2.87676 -1.21661,0 -3.05418,0.34217 -3.05418,1.5461 0,0.57028 0.45622,0.92512 1.01383,0.92512 0.77305,0 0.9378,-0.79839 2.015,-0.79839 0.8871,0 0.96314,0.49424 0.96314,1.22927 h -0.86176 c -1.57144,0 -3.57376,0.24079 -3.57376,2.24311 z m 2.30647,-0.1394 c 0,-0.7477 0.81107,-0.84909 1.39402,-0.84909 h 0.7477 v 0.11406 c 0,0.81107 -0.45622,1.47006 -1.31798,1.47006 -0.45623,0 -0.82374,-0.25346 -0.82374,-0.73503 z"
           style="font-style:normal;font-variant:normal;font-weight:normal;font-stretch:normal;font-family:Jellee;-inkscape-font-specification:Jellee;fill:#6a951f;fill-opacity:1;stroke-width:0.05239134"
           id="path5162" />
        <path
           d="m 138.28219,110.84167 c 0,0.64632 0.53226,1.17858 1.17858,1.17858 0.64632,0 1.17859,-0.53226 1.17859,-1.17858 v -2.07836 c 0,-0.91245 0.29147,-1.8249 1.34333,-1.8249 0.62097,0 0.98849,-0.51959 0.98849,-1.00116 0,-0.40554 -0.25346,-1.02651 -1.10255,-1.02651 -0.76038,0 -1.08987,0.78572 -1.34333,1.39402 h -0.0507 v -0.30415 c 0,-0.59563 -0.49425,-1.08987 -1.10255,-1.08987 -0.59562,0 -1.08987,0.49424 -1.08987,1.08987 z"
           style="font-style:normal;font-variant:normal;font-weight:normal;font-stretch:normal;font-family:Jellee;-inkscape-font-specification:Jellee;fill:#6a951f;fill-opacity:1;stroke-width:0.05239134"
           id="path5164" />
      </g>
    </g>
    <rect
       style="fill:#fcc325;fill-opacity:1;stroke:none;stroke-width:1.95799994;stroke-miterlimit:4;stroke-dasharray:none;stroke-opacity:1"
       id="rect831"
       width="2.5"
       height="16"
       x="85.101578"
       y="99.66851"
       ry="1.25" />
    <g
       id="g5130"
       transform="matrix(0.32304166,0,0,0.32304166,56.582167,98.020161)">
      <path
         id="path5066"
         d="M 5.09,30.562 1,10.042 56.265,1 58.496,14.332 Z"
         inkscape:connector-curvature="0"
         style="fill:#fbe41a" />
      <path
         id="path5068"
         d="M 5.275,28.725 5.155,13 61.138,14.398 60.106,25.55 Z"
         inkscape:connector-curvature="0"
         style="fill:#91b472" />
      <path
         id="path5070"
         d="M 1,52.273 7.571,17.39 63,26 55.858,63.125 Z"
         inkscape:connector-curvature="0"
         style="fill:#6a951f" />
      <ellipse
         id="ellipse5072"
         transform="matrix(0.175,-0.985,0.985,0.175,-23.025,42.157)"
         ry="4.2259998"
         rx="4.2490001"
         cy="34.810001"
         cx="13.63"
         style="fill:#fbe41a" />
      <ellipse
         id="ellipse5074"
         transform="matrix(0.175,-0.985,0.985,0.175,0.467,86.178)"
         ry="4.2259998"
         rx="4.2490001"
         cy="42.810001"
         cx="51.630001"
         style="fill:#fbe41a" />
      <ellipse
         id="ellipse5076"
         transform="matrix(0.175,-0.985,0.985,0.175,-12.908,64.606)"
         ry="11.094"
         rx="11.154"
         cy="40.000999"
         cx="32.077999"
         style="fill:#fcc325" />
      <g
         id="g5080"
         style="opacity:0.2">
        <path
           id="path5078"
           d="M 58.131,51.307 63,26 7.571,17.39 l -2.2,11.7 c 9.369,6.392 32.275,20.587 52.76,22.217 z"
           inkscape:connector-curvature="0"
           style="fill:#ffffff" />
      </g>
      <g
         id="g5102"
         style="fill:#043c49">
        <path
           id="path5082"
           d="M 31.726,47.015 A 3.015,3.015 0 0 1 30.665,46.823 L 28.957,46.184 A 3.04,3.04 0 0 1 27.175,42.27 l 0.368,-0.983 a 1,1 0 1 1 1.873,0.7 l -0.368,0.983 a 1.041,1.041 0 0 0 0.61,1.34 l 1.707,0.639 a 1.043,1.043 0 0 0 1.34,-0.61 l 0.271,-0.724 a 1.04,1.04 0 0 0 -0.111,-0.944 l -2.97,-3.9 a 3.04,3.04 0 0 1 3.554,-4.593 l 1.709,0.64 a 3.039,3.039 0 0 1 1.781,3.913 l -0.1,0.257 a 1.0007029,1.0007029 0 1 1 -1.875,-0.7 l 0.1,-0.261 a 1.039,1.039 0 0 0 -0.608,-1.341 l -1.709,-0.64 a 1.04,1.04 0 0 0 -1.228,1.555 l 2.97,3.9 a 3.064,3.064 0 0 1 0.359,2.81 l -0.271,0.725 a 3.048,3.048 0 0 1 -2.851,1.979 z"
           inkscape:connector-curvature="0" />
        <path
           id="path5084"
           d="m 33.931,36.329 a 1,1 0 0 1 -0.937,-1.351 l 0.7,-1.873 a 1,1 0 0 1 1.873,0.7 l -0.7,1.873 a 1,1 0 0 1 -0.936,0.651 z"
           inkscape:connector-curvature="0" />
        <path
           id="path5086"
           d="m 29.375,48.5 a 1,1 0 0 1 -0.937,-1.351 l 0.7,-1.873 a 1,1 0 1 1 1.873,0.7 l -0.7,1.873 A 1,1 0 0 1 29.375,48.5 Z"
           inkscape:connector-curvature="0" />
        <path
           id="path5088"
           d="m 13.634,40.06 a 5.237,5.237 0 0 1 -0.92,-0.081 5.192,5.192 0 1 1 0.92,0.081 z m 0,-8.5 a 3.19,3.19 0 0 0 -1.844,0.588 3.264,3.264 0 0 0 -0.8,4.527 3.207,3.207 0 0 0 4.487,0.795 3.234,3.234 0 0 0 1.334,-2.1 3.239,3.239 0 0 0 -0.531,-2.429 3.193,3.193 0 0 0 -2.08,-1.33 3.262,3.262 0 0 0 -0.568,-0.049 z"
           inkscape:connector-curvature="0" />
        <path
           id="path5090"
           d="m 51.634,48.06 a 5.237,5.237 0 0 1 -0.92,-0.081 5.192,5.192 0 1 1 0.92,0.081 z m 0,-8.5 a 3.19,3.19 0 0 0 -1.844,0.588 3.264,3.264 0 0 0 -0.8,4.527 3.207,3.207 0 0 0 4.487,0.795 3.234,3.234 0 0 0 1.334,-2.1 3.239,3.239 0 0 0 -0.531,-2.429 3.193,3.193 0 0 0 -2.08,-1.33 3.262,3.262 0 0 0 -0.568,-0.049 z"
           inkscape:connector-curvature="0" />
        <path
           id="path5092"
           d="M 55.858,64.125 A 1.034,1.034 0 0 1 55.67,64.107 l -43.857,-8.39 a 1.0002312,1.0002312 0 0 1 0.375,-1.965 l 42.877,8.2 6.758,-35.126 -53.447,-8.3 -6.219,33.007 5.935,1.5 A 1,1 0 1 1 7.6,54.97 L 0.756,53.242 A 1,1 0 0 1 0.018,52.087 L 6.589,17.2 a 1,1 0 0 1 1.136,-0.8 l 55.429,8.61 a 1,1 0 0 1 0.829,1.177 L 56.84,63.313 a 1,1 0 0 1 -0.982,0.812 z"
           inkscape:connector-curvature="0" />
        <path
           id="path5094"
           d="M 5.089,31.562 A 1,1 0 0 1 4.11,30.762 L 0.02,10.237 A 1,1 0 0 1 0.839,9.055 L 56.1,0.013 a 1,1 0 0 1 1.147,0.822 l 2.23,13.332 a 1.0002036,1.0002036 0 0 1 -1.973,0.33 l -2.061,-12.35 -53.26,8.714 3.888,19.5 a 1,1 0 0 1 -0.785,1.176 0.963,0.963 0 0 1 -0.197,0.025 z"
           inkscape:connector-curvature="0" />
        <path
           id="path5096"
           d="m 60.106,26.551 c -0.03,0 -0.062,0 -0.093,0 a 1,1 0 0 1 -0.9,-1.088 L 60.047,15.374 45.183,15 A 1,1 0 0 1 44.208,13.975 0.986,0.986 0 0 1 45.233,13 l 15.93,0.4 a 1,1 0 0 1 0.971,1.092 L 61.1,25.643 a 1,1 0 0 1 -0.994,0.908 z"
           inkscape:connector-curvature="0" />
        <path
           id="path5098"
           d="m 5.275,29.725 a 1,1 0 0 1 -1,-0.992 L 4.155,13.008 A 1,1 0 0 1 4.455,12.287 1.054,1.054 0 0 1 5.181,12 l 34.845,0.87 a 1.0000781,1.0000781 0 0 1 -0.025,2 H 39.976 L 6.163,14.025 6.275,28.716 a 1,1 0 0 1 -0.992,1.008 z"
           inkscape:connector-curvature="0" />
        <path
           id="path5100"
           d="M 32.062,52.155 A 12.008,12.008 0 0 1 29.956,51.968 12.154,12.154 0 1 1 43.985,42.112 12.158,12.158 0 0 1 32.062,52.155 Z M 32.093,29.848 A 10.091,10.091 0 1 0 33.85,30 10.154,10.154 0 0 0 32.094,29.849 Z"
           inkscape:connector-curvature="0" />
      </g>
    </g>
  </g>
  <g
     inkscape:groupmode="layer"
     id="layer2"
     inkscape:label="Layer 2"
     style="display:none">
    <path
       style="fill:none;stroke:#000000;stroke-width:0.26458332px;stroke-linecap:butt;stroke-linejoin:miter;stroke-opacity:1"
       d="M 0,0 128,42"
       id="path881"
       inkscape:connector-curvature="0" />
    <path
       style="fill:none;stroke:#000000;stroke-width:0.26458332px;stroke-linecap:butt;stroke-linejoin:miter;stroke-opacity:1"
       d="M 0,42 128,1.5894571e-7"
       id="path883"
       inkscape:connector-curvature="0" />
  </g>
</svg>
