<?xml version="1.0" encoding="UTF-8" standalone="no"?>
<!-- Created with Inkscape (http://www.inkscape.org/) -->

<svg
   xmlns:dc="http://purl.org/dc/elements/1.1/"
   xmlns:cc="http://creativecommons.org/ns#"
   xmlns:rdf="http://www.w3.org/1999/02/22-rdf-syntax-ns#"
   xmlns:svg="http://www.w3.org/2000/svg"
   xmlns="http://www.w3.org/2000/svg"
   xmlns:sodipodi="http://sodipodi.sourceforge.net/DTD/sodipodi-0.dtd"
   xmlns:inkscape="http://www.inkscape.org/namespaces/inkscape"
   width="128mm"
   height="42mm"
   viewBox="0 0 128 42"
   version="1.1"
   id="svg8"
   inkscape:version="0.92.4 (5da689c313, 2019-01-14)"
   sodipodi:docname="email.svg">
  <defs
     id="defs2">
    <linearGradient
       y2="180"
       x2="100.008"
       y1="40.007999"
       x1="160.008"
       id="b"
       gradientUnits="userSpaceOnUse">
      <stop
         id="stop817"
         offset="0"
         stop-color="#37aee2" />
      <stop
         id="stop819"
         offset="1"
         stop-color="#1e96c8" />
    </linearGradient>
    <linearGradient
       y2="174.70815"
       x2="146.52715"
       y1="131.02763"
       x1="123.64119"
       id="w"
       gradientTransform="scale(1.0919081,0.91582798)"
       gradientUnits="userSpaceOnUse">
      <stop
         id="stop822"
         offset="0"
         stop-color="#eff7fc" />
      <stop
         id="stop824"
         offset="1"
         stop-color="#fff" />
    </linearGradient>
  </defs>
  <sodipodi:namedview
     id="base"
     pagecolor="#ffffff"
     bordercolor="#666666"
     borderopacity="1.0"
     inkscape:pageopacity="0.0"
     inkscape:pageshadow="2"
     inkscape:zoom="1.979899"
     inkscape:cx="158.91063"
     inkscape:cy="76.985189"
     inkscape:document-units="mm"
     inkscape:current-layer="layer6"
     showgrid="false"
     fit-margin-top="0"
     fit-margin-left="0"
     fit-margin-right="0"
     fit-margin-bottom="0"
     inkscape:window-width="1600"
     inkscape:window-height="836"
     inkscape:window-x="0"
     inkscape:window-y="27"
     inkscape:window-maximized="1"
     inkscape:snap-bbox="true"
     inkscape:bbox-paths="true"
     inkscape:bbox-nodes="true"
     inkscape:snap-bbox-edge-midpoints="true"
     inkscape:snap-bbox-midpoints="true"
     inkscape:object-paths="true"
     inkscape:snap-intersection-paths="true"
     inkscape:snap-smooth-nodes="true"
     inkscape:snap-midpoints="true"
     inkscape:snap-object-midpoints="true"
     inkscape:snap-center="true"
     inkscape:snap-text-baseline="true"
     inkscape:snap-page="true"
     showguides="true"
     inkscape:guide-bbox="true"
     inkscape:snap-global="true">
    <sodipodi:guide
       position="12.000744,50.270832"
       orientation="1,0"
       id="guide842"
       inkscape:locked="false" />
  </sodipodi:namedview>
  <metadata
     id="metadata5">
    <rdf:RDF>
      <cc:Work
         rdf:about="">
        <dc:format>image/svg+xml</dc:format>
        <dc:type
           rdf:resource="http://purl.org/dc/dcmitype/StillImage" />
        <dc:title />
      </cc:Work>
    </rdf:RDF>
  </metadata>
  <g
     inkscape:label="Layer 1"
     inkscape:groupmode="layer"
     id="layer1"
     transform="translate(-45.130598,-86.649168)"
     style="display:inline;opacity:1">
    <rect
       id="rect10"
       width="128"
       height="41.999996"
       x="45.130596"
       y="86.64917"
       style="fill:#ffbd07;fill-opacity:0.29411765;stroke:none;stroke-width:2.00099587;stroke-miterlimit:4;stroke-dasharray:none;stroke-opacity:1" />
    <g
       aria-label="E-mail"
       style="font-style:normal;font-variant:normal;font-weight:normal;font-stretch:normal;font-size:12.69999981px;line-height:1.25;font-family:'Old Standard TT';-inkscape-font-specification:'Old Standard TT';letter-spacing:0px;word-spacing:0px;fill:#ffbd07;fill-opacity:1;stroke:none;stroke-width:0.26458332"
       id="text857"
       transform="translate(-1.0583333)">
      <path
         d="m 105.29388,111.14591 c 0,0.6985 0.381,1.0795 1.0795,1.0795 h 4.9276 c 0.5334,0 0.9779,-0.4445 0.9779,-0.9906 0,-0.5334 -0.4445,-0.9779 -0.9779,-0.9779 h -3.5941 v -1.8669 h 2.7559 c 0.5207,0 0.9525,-0.4318 0.9525,-0.9652 0,-0.5207 -0.4318,-0.9525 -0.9525,-0.9525 h -2.7559 v -1.8669 h 3.3401 c 0.5334,0 0.9779,-0.4445 0.9779,-0.9779 0,-0.5461 -0.4445,-0.9906 -0.9779,-0.9906 h -4.6736 c -0.6985,0 -1.0795,0.381 -1.0795,1.0795 z"
         style="font-style:normal;font-variant:normal;font-weight:normal;font-stretch:normal;font-family:Jellee;-inkscape-font-specification:Jellee;fill:#ffbd07;fill-opacity:1;stroke-width:0.26458332"
         id="path840"
         inkscape:connector-curvature="0" />
      <path
         d="m 113.14565,108.39001 c 0,0.5334 0.4191,0.9525 0.9398,0.9525 h 2.7305 c 0.5207,0 0.9398,-0.4191 0.9398,-0.9525 0,-0.5207 -0.4191,-0.9398 -0.9398,-0.9398 h -2.7305 c -0.5207,0 -0.9398,0.4191 -0.9398,0.9398 z"
         style="font-style:normal;font-variant:normal;font-weight:normal;font-stretch:normal;font-family:Jellee;-inkscape-font-specification:Jellee;fill:#ffbd07;fill-opacity:1;stroke-width:0.26458332"
         id="path842"
         inkscape:connector-curvature="0" />
      <path
         d="m 119.0575,111.14591 c 0,0.6477 0.5334,1.1811 1.1811,1.1811 0.6477,0 1.1811,-0.5334 1.1811,-1.1811 v -2.6416 c 0,-1.2954 0.6604,-1.5494 1.143,-1.5494 0.4064,0 1.0033,0.2032 1.0033,1.2573 v 2.9337 c 0,0.6477 0.5334,1.1811 1.1811,1.1811 0.6477,0 1.1811,-0.5334 1.1811,-1.1811 v -2.6416 c 0,-1.2954 0.6604,-1.5494 1.143,-1.5494 0.4064,0 1.0033,0.2032 1.0033,1.2573 v 2.9337 c 0,0.6477 0.5334,1.1811 1.1811,1.1811 0.6477,0 1.1811,-0.5334 1.1811,-1.1811 v -3.2893 c 0,-1.5875 -0.6731,-2.6924 -2.4384,-2.6924 -1.1684,0 -1.8796,0.5715 -2.2733,1.3716 -0.3683,-0.9779 -1.1684,-1.3716 -2.2352,-1.3716 -1.1811,0 -1.8923,0.635 -2.2352,1.3081 v -0.1778 c 0,-0.5969 -0.4953,-1.0922 -1.1049,-1.0922 -0.5969,0 -1.0922,0.4953 -1.0922,1.0922 z"
         style="font-style:normal;font-variant:normal;font-weight:normal;font-stretch:normal;font-family:Jellee;-inkscape-font-specification:Jellee;fill:#ffbd07;fill-opacity:1;stroke-width:0.26458332"
         id="path844"
         inkscape:connector-curvature="0" />
      <path
         d="m 131.64935,110.28231 c 0,1.3589 1.0795,2.1082 2.3622,2.1082 0.9144,0 1.6256,-0.254 2.1717,-1.0033 0.0762,0.5334 0.5334,0.9398 1.0922,0.9398 0.6223,0 1.0922,-0.508 1.0922,-1.1303 v -3.1877 c 0,-2.1209 -1.2192,-2.8829 -3.2131,-2.8829 -1.2192,0 -3.0607,0.3429 -3.0607,1.5494 0,0.5715 0.4572,0.9271 1.016,0.9271 0.7747,0 0.9398,-0.8001 2.0193,-0.8001 0.889,0 0.9652,0.4953 0.9652,1.2319 h -0.8636 c -1.5748,0 -3.5814,0.2413 -3.5814,2.2479 z m 2.3114,-0.1397 c 0,-0.7493 0.8128,-0.8509 1.397,-0.8509 h 0.7493 v 0.1143 c 0,0.8128 -0.4572,1.4732 -1.3208,1.4732 -0.4572,0 -0.8255,-0.254 -0.8255,-0.7366 z"
         style="font-style:normal;font-variant:normal;font-weight:normal;font-stretch:normal;font-family:Jellee;-inkscape-font-specification:Jellee;fill:#ffbd07;fill-opacity:1;stroke-width:0.26458332"
         id="path846"
         inkscape:connector-curvature="0" />
      <path
         d="m 139.89106,103.33541 c 0,0.5461 0.4445,0.9906 0.9906,0.9906 h 0.5842 c 0.5461,0 0.9906,-0.4445 0.9906,-0.9906 0,-0.5461 -0.4445,-0.9906 -0.9906,-0.9906 h -0.5842 c -0.5461,0 -0.9906,0.4445 -0.9906,0.9906 z m 0.1016,7.8105 c 0,0.6477 0.5334,1.1811 1.1811,1.1811 0.6477,0 1.1811,-0.5334 1.1811,-1.1811 v -4.7625 c 0,-0.6477 -0.5334,-1.1811 -1.1811,-1.1811 -0.6477,0 -1.1811,0.5334 -1.1811,1.1811 z"
         style="font-style:normal;font-variant:normal;font-weight:normal;font-stretch:normal;font-family:Jellee;-inkscape-font-specification:Jellee;fill:#ffbd07;fill-opacity:1;stroke-width:0.26458332"
         id="path848"
         inkscape:connector-curvature="0" />
      <path
         d="m 144.01102,111.14591 c 0,0.6477 0.5334,1.1811 1.1811,1.1811 0.6477,0 1.1811,-0.5334 1.1811,-1.1811 v -7.7216 c 0,-0.6477 -0.5334,-1.1811 -1.1811,-1.1811 -0.6477,0 -1.1811,0.5334 -1.1811,1.1811 z"
         style="font-style:normal;font-variant:normal;font-weight:normal;font-stretch:normal;font-family:Jellee;-inkscape-font-specification:Jellee;fill:#ffbd07;fill-opacity:1;stroke-width:0.26458332"
         id="path850"
         inkscape:connector-curvature="0" />
    </g>
  </g>
  <g
     inkscape:groupmode="layer"
     id="layer2"
     inkscape:label="Layer 2"
     style="display:none"
     sodipodi:insensitive="true">
    <path
       style="fill:none;stroke:#000000;stroke-width:0.26458332px;stroke-linecap:butt;stroke-linejoin:miter;stroke-opacity:1"
       d="M 0,0 128,42"
       id="path881"
       inkscape:connector-curvature="0" />
    <path
       style="fill:none;stroke:#000000;stroke-width:0.26458332px;stroke-linecap:butt;stroke-linejoin:miter;stroke-opacity:1"
       d="M 0,42 128,1.5894571e-7"
       id="path883"
       inkscape:connector-curvature="0" />
  </g>
  <g
     inkscape:groupmode="layer"
     id="layer3"
     inkscape:label="Layer 3"
     style="display:inline">
    <path
       style="fill:#ef7109;fill-opacity:1;stroke:none;stroke-width:0.24046737px;stroke-linecap:butt;stroke-linejoin:miter;stroke-opacity:1"
       d="m 20.789524,11.528907 c -2.869597,2.077641 -6.985899,4.986001 -8.114303,5.757305 -0.786919,0.595736 -0.653384,0.845488 -0.633409,1.826617 -0.0014,2.675875 -0.01937,6.996915 -0.02919,9.098474 -0.0098,0.94216 0.680523,1.457719 2.01637,1.423787 4.284958,0.02442 12.631809,8.49e-4 16.14193,-0.01178 1.383658,-0.005 1.807156,-0.862635 1.797502,-1.712592 -0.01492,-1.313045 0.01191,-6.915771 0.03183,-8.651565 0.01992,-1.735793 -0.565861,-1.825248 -1.03159,-2.178711 -0.46573,-0.353464 -6.263964,-4.488507 -7.834579,-5.557138 -0.937176,-0.74371 -1.365667,-0.85512 -2.344592,0.0057 z"
       id="path831"
       inkscape:connector-curvature="0"
       sodipodi:nodetypes="cccccsszzccc" />
  </g>
  <g
     inkscape:groupmode="layer"
     id="layer4"
     inkscape:label="Layer 4"
     style="display:inline">
    <path
       style="fill:#dedede;fill-opacity:1;stroke:none;stroke-width:1.88742173;stroke-miterlimit:4;stroke-dasharray:none;stroke-opacity:1"
       d="m 14.580142,12.172446 h 14.723831 c 0.744738,0 1.344293,0.653664 1.344293,1.465616 v 5.308394 c -7.856372,-0.0061 -9.884839,-0.01511 -17.348005,0.01171 l -0.06441,-5.320099 c -0.0098,-0.811882 0.599555,-1.465617 1.344293,-1.465617 z"
       id="rect835"
       inkscape:connector-curvature="0"
       sodipodi:nodetypes="cssccssc" />
    <path
       sodipodi:nodetypes="cssccssc"
       inkscape:connector-curvature="0"
       id="path841"
       d="m 14.580142,24.819219 h 14.723831 c 0.744738,0 1.344293,-0.599554 1.344293,-1.344293 v -5.089227 c -8.283139,-0.02147 -9.248023,-0.0222 -17.348005,0.01074 l -0.06441,4.879696 c -0.0098,0.744675 0.599555,1.543093 1.344293,1.543093 z"
       style="fill:#e9e9e9;fill-opacity:1;stroke:none;stroke-width:1.80761337;stroke-miterlimit:4;stroke-dasharray:none;stroke-opacity:1" />
  </g>
  <g
     inkscape:groupmode="layer"
     id="layer5"
     inkscape:label="Layer 5"
     style="display:inline" />
  <g
     inkscape:groupmode="layer"
     id="layer7"
     inkscape:label="Layer 7"
     style="display:inline">
    <path
       style="display:inline;fill:#ffbd07;fill-opacity:1;stroke:none;stroke-width:0.24046737px;stroke-linecap:butt;stroke-linejoin:miter;stroke-opacity:1"
       d="m 12.025907,18.176217 18.357554,11.416731 -16.354476,0.04214 c -1.845462,-0.05479 -2.101379,-0.594403 -2.013312,-2.293416 z"
       id="path845"
       inkscape:connector-curvature="0"
       sodipodi:nodetypes="ccccc" />
  </g>
  <g
     inkscape:groupmode="layer"
     id="layer6"
     inkscape:label="Layer 6"
     style="display:inline">
    <path
       style="fill:#ffcd41;fill-opacity:1;stroke:none;stroke-width:0.24046737px;stroke-linecap:butt;stroke-linejoin:miter;stroke-opacity:1"
       d="m 31.909165,18.219934 -18.664028,11.359744 17.138324,0.01328 c 1.083621,-0.01374 1.556682,-0.709822 1.584956,-1.682229 0,0 0.01824,-8.7045 0.0204,-9.093282 0.0022,-0.388782 -0.07965,-0.597512 -0.07965,-0.597512 z"
       id="path849"
       inkscape:connector-curvature="0"
       sodipodi:nodetypes="cccczc" />
  </g>
  <g
     inkscape:groupmode="layer"
     id="layer8"
     inkscape:label="Layer 8">
    <g
       aria-label="@"
       style="font-style:normal;font-variant:normal;font-weight:normal;font-stretch:normal;font-size:7.41741705px;line-height:1.25;font-family:'Old Standard TT';-inkscape-font-specification:'Old Standard TT';letter-spacing:0px;word-spacing:0px;fill:#4d4d4d;fill-opacity:1;stroke:none;stroke-width:0.15452953"
       id="text856"
       transform="matrix(0.90885313,0,0,0.90885313,0.09602541,1.7402449)">
      <path
         d="m 20.369516,18.0119 c 0,1.995285 1.416727,3.38976 3.441681,3.38976 1.097778,0 1.780181,-0.252192 2.366156,-0.652733 0.06676,-0.0445 0.111262,-0.118679 0.111262,-0.207688 0,-0.133513 -0.111262,-0.244774 -0.252192,-0.244774 -0.05192,0 -0.08901,0.0074 -0.200271,0.08159 -0.519219,0.326367 -1.142282,0.482132 -1.943363,0.482132 -1.639249,0 -2.848288,-1.045855 -2.848288,-2.907627 0,-1.757928 1.194204,-3.152402 3.018889,-3.152402 1.757927,0 2.766696,1.06069 2.766696,2.588678 0,0.912342 -0.474715,1.624415 -1.001351,1.624415 -0.378288,0 -0.445045,-0.222523 -0.378288,-0.571142 l 0.326366,-1.772762 c 0.06676,-0.393123 -0.207688,-0.682403 -0.571141,-0.682403 -0.25961,0 -0.48955,0.178018 -0.556306,0.422793 h -0.02967 c -0.170601,-0.304114 -0.467297,-0.474715 -0.882673,-0.474715 -1.031021,0 -1.787597,0.912343 -1.787597,2.254895 0,0.94943 0.548889,1.438979 1.231291,1.438979 0.474715,0 0.786246,-0.133513 1.105195,-0.541471 h 0.02967 c 0.1706,0.452462 0.526636,0.63048 1.082943,0.63048 1.105195,0 2.069459,-0.86042 2.069459,-2.373573 0,-1.654084 -1.186787,-3.070811 -3.345255,-3.070811 -2.136216,0 -3.753213,1.513153 -3.753213,3.738378 z m 2.796366,0.178018 c 0,-0.771411 0.363454,-1.409309 0.815916,-1.409309 0.348619,0 0.482132,0.274444 0.482132,0.63048 0,0.674985 -0.281862,1.394475 -0.815916,1.394475 -0.274444,0 -0.482132,-0.178018 -0.482132,-0.615646 z"
         style="font-style:normal;font-variant:normal;font-weight:normal;font-stretch:normal;font-family:Jellee;-inkscape-font-specification:Jellee;fill:#4d4d4d;stroke-width:0.15452953"
         id="path858"
         inkscape:connector-curvature="0" />
    </g>
  </g>
</svg>
