<?xml version="1.0" encoding="UTF-8" standalone="no"?>
<!-- Created with Inkscape (http://www.inkscape.org/) -->

<svg
   width="135mm"
   height="42mm"
   viewBox="0 0 135 42"
   version="1.1"
   id="svg8"
   inkscape:version="1.2.2 (b0a8486541, 2022-12-01)"
   sodipodi:docname="matrix.svg"
   xmlns:inkscape="http://www.inkscape.org/namespaces/inkscape"
   xmlns:sodipodi="http://sodipodi.sourceforge.net/DTD/sodipodi-0.dtd"
   xmlns="http://www.w3.org/2000/svg"
   xmlns:svg="http://www.w3.org/2000/svg"
   xmlns:rdf="http://www.w3.org/1999/02/22-rdf-syntax-ns#"
   xmlns:cc="http://creativecommons.org/ns#"
   xmlns:dc="http://purl.org/dc/elements/1.1/">
  <defs
     id="defs2">
    <linearGradient
       y2="180"
       x2="100.008"
       y1="40.007999"
       x1="160.008"
       id="b"
       gradientUnits="userSpaceOnUse">
      <stop
         id="stop817"
         offset="0"
         stop-color="#37aee2" />
      <stop
         id="stop819"
         offset="1"
         stop-color="#1e96c8" />
    </linearGradient>
    <linearGradient
       y2="174.70815"
       x2="146.52715"
       y1="131.02763"
       x1="123.64119"
       id="w"
       gradientTransform="scale(1.0919081,0.91582798)"
       gradientUnits="userSpaceOnUse">
      <stop
         id="stop822"
         offset="0"
         stop-color="#eff7fc" />
      <stop
         id="stop824"
         offset="1"
         stop-color="#fff" />
    </linearGradient>
  </defs>
  <sodipodi:namedview
     id="base"
     pagecolor="#ffffff"
     bordercolor="#666666"
     borderopacity="1.0"
     inkscape:pageopacity="0.0"
     inkscape:pageshadow="2"
     inkscape:zoom="31.678384"
     inkscape:cx="314.83614"
     inkscape:cy="69.874145"
     inkscape:document-units="mm"
     inkscape:current-layer="layer1"
     showgrid="false"
     fit-margin-top="0"
     fit-margin-left="0"
     fit-margin-right="0"
     fit-margin-bottom="0"
     inkscape:window-width="1920"
     inkscape:window-height="1005"
     inkscape:window-x="0"
     inkscape:window-y="0"
     inkscape:window-maximized="1"
     inkscape:snap-bbox="true"
     inkscape:bbox-paths="true"
     inkscape:bbox-nodes="true"
     inkscape:snap-bbox-edge-midpoints="true"
     inkscape:snap-bbox-midpoints="true"
     inkscape:object-paths="true"
     inkscape:snap-intersection-paths="true"
     inkscape:snap-smooth-nodes="true"
     inkscape:snap-midpoints="true"
     inkscape:snap-object-midpoints="true"
     inkscape:snap-center="true"
     inkscape:snap-text-baseline="true"
     inkscape:snap-page="true"
     showguides="true"
     inkscape:guide-bbox="true"
     inkscape:snap-global="false"
     inkscape:pagecheckerboard="0"
     inkscape:showpageshadow="2"
     inkscape:deskcolor="#d1d1d1">
    <sodipodi:guide
       position="11.99372,45.43582"
       orientation="1,0"
       id="guide836"
       inkscape:locked="false" />
    <sodipodi:guide
       position="31.986235,94.541294"
       orientation="1,0"
       id="guide840"
       inkscape:locked="false" />
    <sodipodi:guide
       position="39.994605,103.48279"
       orientation="1,0"
       id="guide842"
       inkscape:locked="false" />
    <sodipodi:guide
       position="22.568615,21.068672"
       orientation="0,1"
       id="guide850"
       inkscape:locked="false" />
    <sodipodi:guide
       position="50.507067,78.288319"
       orientation="1,0"
       id="guide852"
       inkscape:locked="false" />
    <sodipodi:guide
       position="83.154764,25.25093"
       orientation="1,0"
       id="guide10026"
       inkscape:locked="false" />
    <sodipodi:guide
       position="85.587986,25.121001"
       orientation="1,0"
       id="guide10028"
       inkscape:locked="false" />
  </sodipodi:namedview>
  <metadata
     id="metadata5">
    <rdf:RDF>
      <cc:Work
         rdf:about="">
        <dc:format>image/svg+xml</dc:format>
        <dc:type
           rdf:resource="http://purl.org/dc/dcmitype/StillImage" />
        <dc:title />
      </cc:Work>
    </rdf:RDF>
  </metadata>
  <g
     inkscape:label="Layer 1"
     inkscape:groupmode="layer"
     id="layer1"
     transform="translate(-45.130598,-86.649168)"
     style="display:inline">
    <g
       aria-label="Matrix"
       id="text8461"
       style="font-size:13.0801px;line-height:1.25;font-family:Jellee;-inkscape-font-specification:Jellee;stroke-width:0.327004;fill:#1a1a1a"
       transform="translate(0,-0.52916667)">
      <path
         d="m 95.535558,111.9757 c 0,0.64092 0.523204,1.16413 1.177209,1.16413 0.640925,0 1.164129,-0.52321 1.164129,-1.16413 v -5.61136 h 0.07848 c 0.02616,0.17004 0.0654,0.35316 0.104641,0.53628 0.0654,0.31392 0.183121,0.74557 0.327002,1.16413 l 1.478052,4.19871 c 0.170039,0.49704 0.654009,0.87637 1.229529,0.87637 0.56244,0 1.05949,-0.37933 1.22953,-0.87637 l 1.46497,-4.19871 c 0.14388,-0.41856 0.2616,-0.83713 0.327,-1.16413 l 0.10464,-0.53628 h 0.0785 v 5.55904 c 0,0.66708 0.54937,1.21645 1.21645,1.21645 0.68017,0 1.22953,-0.54937 1.22953,-1.21645 v -7.01094 c 0,-1.02024 -0.83712,-1.85737 -1.85737,-1.85737 -0.81097,0 -1.51729,0.5232 -1.76581,1.24261 l -1.55654,4.46031 c -0.1308,0.36625 -0.1962,0.65401 -0.24852,0.87637 l -0.0654,0.36624 h -0.0785 l -0.0654,-0.36624 c -0.0392,-0.22236 -0.11772,-0.5232 -0.23544,-0.87637 L 99.315707,104.35 c -0.261602,-0.75865 -0.981008,-1.29493 -1.831214,-1.29493 -1.072569,0 -1.948935,0.87637 -1.948935,1.94894 z"
         id="path9371"
         style="fill:#1a1a1a" />
      <path
         d="m 108.18401,111.03393 c 0,1.39957 1.11181,2.1713 2.4329,2.1713 0.94177,0 1.67426,-0.2616 2.2367,-1.03333 0.0785,0.54936 0.54936,0.96793 1.12489,0.96793 0.64092,0 1.12489,-0.52321 1.12489,-1.16413 v -3.28311 c 0,-2.18437 -1.25569,-2.96918 -3.30927,-2.96918 -1.25569,0 -3.1523,0.35316 -3.1523,1.59577 0,0.58861 0.47088,0.95485 1.04641,0.95485 0.79788,0 0.96792,-0.82405 2.07973,-0.82405 0.91561,0 0.99409,0.51013 0.99409,1.26877 h -0.88945 c -1.62193,0 -3.68859,0.24853 -3.68859,2.31518 z m 2.38058,-0.14388 c 0,-0.77173 0.83713,-0.87637 1.43881,-0.87637 h 0.77173 v 0.11772 c 0,0.83713 -0.47088,1.5173 -1.36033,1.5173 -0.47088,0 -0.85021,-0.26161 -0.85021,-0.75865 z"
         id="path9373"
         style="fill:#1a1a1a" />
      <path
         d="m 116.00591,106.7175 c 0,0.43164 0.35316,0.79788 0.79788,0.79788 h 0.36624 l -0.0131,3.12615 c -0.0131,1.68733 0.57553,2.55062 2.28902,2.55062 0.82405,0 1.7789,-0.0262 1.7789,-0.99409 0,-0.4578 -0.39241,-0.62784 -0.94177,-0.78481 -0.30084,-0.0785 -0.70633,-0.23544 -0.70633,-0.981 v -2.91687 h 0.71941 c 0.44472,0 0.79788,-0.36624 0.79788,-0.81096 0,-0.43164 -0.35316,-0.79789 -0.79788,-0.79789 h -0.77173 v -0.90252 c 0,-0.61477 -0.49704,-1.11181 -1.11181,-1.11181 -0.5886,0 -1.08564,0.47088 -1.1118,1.0464 l -0.0523,0.96793 h -0.44472 c -0.44472,0 -0.79788,0.36625 -0.79788,0.81097 z"
         id="path9375"
         style="fill:#1a1a1a" />
      <path
         d="m 122.36283,111.92338 c 0,0.66708 0.54936,1.21645 1.21645,1.21645 0.66708,0 1.21645,-0.54937 1.21645,-1.21645 v -2.14514 c 0,-0.94177 0.30084,-1.88353 1.38649,-1.88353 0.64092,0 1.02025,-0.53629 1.02025,-1.03333 0,-0.41856 -0.26161,-1.05949 -1.13797,-1.05949 -0.78481,0 -1.12489,0.81097 -1.38649,1.43881 h -0.0523 v -0.31392 c 0,-0.61476 -0.51013,-1.12489 -1.13797,-1.12489 -0.61477,0 -1.12489,0.51013 -1.12489,1.12489 z"
         id="path9377"
         style="fill:#1a1a1a" />
      <path
         d="m 128.2881,111.92338 c 0,0.66708 0.54937,1.21645 1.21645,1.21645 0.66709,0 1.21645,-0.54937 1.21645,-1.21645 v -4.90504 c 0,-0.66708 -0.54936,-1.21645 -1.21645,-1.21645 -0.66708,0 -1.21645,0.54937 -1.21645,1.21645 z"
         id="path9379"
         sodipodi:nodetypes="sssssss"
         style="fill:#1a1a1a" />
      <path
         d="m 132.01593,112.1719 c 0,0.53628 0.43164,0.96793 0.96793,0.96793 0.35316,0 0.654,-0.17004 0.82404,-0.44473 l 1.04641,-1.62193 1.05949,1.58269 c 0.1962,0.30085 0.53628,0.48397 0.91561,0.48397 0.61476,0 1.1118,-0.49705 1.1118,-1.09873 0,-0.23544 -0.0916,-0.47088 -0.20928,-0.64093 l -1.43881,-2.05357 1.39957,-1.98818 c 0.10464,-0.15696 0.18312,-0.35316 0.18312,-0.57552 0,-0.53629 -0.44472,-0.98101 -0.981,-0.98101 -0.35317,0 -0.66709,0.18312 -0.83713,0.4578 l -0.88945,1.41266 -0.88944,-1.36033 c -0.19621,-0.31393 -0.54937,-0.51013 -0.92869,-0.51013 -0.62785,0 -1.12489,0.49705 -1.12489,1.11181 0,0.24852 0.0785,0.4578 0.20928,0.64092 l 1.30801,1.87046 -1.54345,2.18438 c -0.10464,0.15696 -0.18312,0.35316 -0.18312,0.56244 z"
         id="path9381"
         style="fill:#1a1a1a" />
    </g>
    <rect
       style="display:inline;fill:#ff8080;fill-opacity:1;stroke:none;stroke-width:1.95799994;stroke-miterlimit:4;stroke-dasharray:none;stroke-opacity:1"
       id="rect831"
       width="2.5"
       height="16"
       x="85.125206"
       y="99.576996"
       ry="1.25" />
    <circle
       style="fill:#1a1a1a;fill-rule:evenodd;stroke-width:0.499133"
       id="path9922"
       cx="129.50844"
       cy="103.43772"
       r="1.2180642" />
    <g
       aria-label="[M]"
       id="text12694"
       style="font-size:10.5833px;line-height:1.25;font-family:Jellee;-inkscape-font-specification:Jellee;stroke-width:0.264583;fill:#1a1a1a"
       transform="matrix(1.2779554,0,0,1.2779554,-132.52232,-11.314513)">
      <path
         d="m 148.23532,88.364212 v 9.42972 c 0,0.232833 0.13758,0.370416 0.37042,0.370416 h 2.01082 c 0.23284,0 0.37042,-0.137583 0.37042,-0.370416 v -0.285749 c 0,-0.232832 -0.13758,-0.370415 -0.37042,-0.370415 h -0.61383 c -0.23283,0 -0.37041,-0.137583 -0.37041,-0.370416 v -7.37656 c 0,-0.232832 0.13758,-0.370415 0.37041,-0.370415 h 0.61383 c 0.23284,0 0.37042,-0.137583 0.37042,-0.370416 v -0.285749 c 0,-0.232832 -0.13758,-0.370415 -0.37042,-0.370415 h -2.01082 c -0.23284,0 -0.37042,0.137583 -0.37042,0.370415 z"
         id="path20568"
         style="fill:#1a1a1a" />
      <path
         d="m 164.50184,88.364212 c 0,-0.232832 -0.13758,-0.370415 -0.37041,-0.370415 h -2.01083 c -0.23283,0 -0.37041,0.137583 -0.37041,0.370415 v 0.285749 c 0,0.232833 0.13758,0.370416 0.37041,0.370416 h 0.61383 c 0.23284,0 0.37042,0.137583 0.37042,0.370415 v 7.37656 c 0,0.232833 -0.13758,0.370416 -0.37042,0.370416 h -0.61383 c -0.23283,0 -0.37041,0.137583 -0.37041,0.370415 v 0.285749 c 0,0.232833 0.13758,0.370416 0.37041,0.370416 h 2.01083 c 0.23283,0 0.37041,-0.137583 0.37041,-0.370416 z"
         id="path20572"
         style="fill:#1a1a1a" />
    </g>
    <g
       aria-label="m"
       id="text22160"
       style="font-size:13.0927px;line-height:1.25;font-family:Jellee;-inkscape-font-specification:Jellee;stroke-width:0.327318;fill:#1a1a1a"
       transform="matrix(1.0330192,0,0,1.0330192,-2.0274994,-3.9989102)">
      <path
         d="m 62.29053,110.0548 c 0,0.5507 0.453515,1.00421 1.004211,1.00421 0.550696,0 1.004212,-0.45351 1.004212,-1.00421 v -2.24598 c 0,-1.10139 0.561494,-1.31735 0.971817,-1.31735 0.345535,0 0.85304,0.17276 0.85304,1.069 v 2.49433 c 0,0.5507 0.453515,1.00421 1.004211,1.00421 0.550697,0 1.004211,-0.45351 1.004211,-1.00421 v -2.24598 c 0,-1.10139 0.561495,-1.31735 0.971818,-1.31735 0.345536,0 0.85304,0.17276 0.85304,1.069 v 2.49433 c 0,0.5507 0.453515,1.00421 1.004212,1.00421 0.550696,0 1.004211,-0.45351 1.004211,-1.00421 v -2.79668 c 0,-1.34974 -0.572292,-2.28916 -2.073211,-2.28916 -0.993413,0 -1.5981,0.4859 -1.932837,1.16618 -0.313141,-0.83145 -0.993413,-1.16618 -1.900443,-1.16618 -1.004211,0 -1.608898,0.53989 -1.900443,1.11219 v -0.15117 c 0,-0.50751 -0.421121,-0.92863 -0.939424,-0.92863 -0.507504,0 -0.928625,0.42112 -0.928625,0.92863 z"
         id="path24923"
         style="stroke-width:0.26995;fill:#1a1a1a" />
    </g>
  </g>
  <g
     inkscape:groupmode="layer"
     id="layer2"
     inkscape:label="Layer 2"
     style="display:none">
    <path
       style="fill:none;stroke:#000000;stroke-width:0.26458332px;stroke-linecap:butt;stroke-linejoin:miter;stroke-opacity:1"
       d="M 0,0 128,42"
       id="path881"
       inkscape:connector-curvature="0" />
    <path
       style="fill:none;stroke:#000000;stroke-width:0.26458332px;stroke-linecap:butt;stroke-linejoin:miter;stroke-opacity:1"
       d="M 0,42 128,1.5894571e-7"
       id="path883"
       inkscape:connector-curvature="0" />
  </g>
</svg>
