<?xml version="1.0" encoding="UTF-8" standalone="no"?>
<!-- Created with Inkscape (http://www.inkscape.org/) -->

<svg
   xmlns:dc="http://purl.org/dc/elements/1.1/"
   xmlns:cc="http://creativecommons.org/ns#"
   xmlns:rdf="http://www.w3.org/1999/02/22-rdf-syntax-ns#"
   xmlns:svg="http://www.w3.org/2000/svg"
   xmlns="http://www.w3.org/2000/svg"
   xmlns:sodipodi="http://sodipodi.sourceforge.net/DTD/sodipodi-0.dtd"
   xmlns:inkscape="http://www.inkscape.org/namespaces/inkscape"
   width="135mm"
   height="42mm"
   viewBox="0 0 135 42"
   version="1.1"
   id="svg8"
   inkscape:version="0.92.4 (5da689c313, 2019-01-14)"
   sodipodi:docname="messenger.svg">
  <defs
     id="defs2">
    <linearGradient
       y2="180"
       x2="100.008"
       y1="40.007999"
       x1="160.008"
       id="b"
       gradientUnits="userSpaceOnUse">
      <stop
         id="stop817"
         offset="0"
         stop-color="#37aee2" />
      <stop
         id="stop819"
         offset="1"
         stop-color="#1e96c8" />
    </linearGradient>
    <linearGradient
       y2="174.70815"
       x2="146.52715"
       y1="131.02763"
       x1="123.64119"
       id="w"
       gradientTransform="scale(1.0919081,0.91582798)"
       gradientUnits="userSpaceOnUse">
      <stop
         id="stop822"
         offset="0"
         stop-color="#eff7fc" />
      <stop
         id="stop824"
         offset="1"
         stop-color="#fff" />
    </linearGradient>
  </defs>
  <sodipodi:namedview
     id="base"
     pagecolor="#ffffff"
     bordercolor="#666666"
     borderopacity="1.0"
     inkscape:pageopacity="0.0"
     inkscape:pageshadow="2"
     inkscape:zoom="1.4"
     inkscape:cx="204.11432"
     inkscape:cy="129.82838"
     inkscape:document-units="mm"
     inkscape:current-layer="layer1"
     showgrid="false"
     fit-margin-top="0"
     fit-margin-left="0"
     fit-margin-right="0"
     fit-margin-bottom="0"
     inkscape:window-width="1600"
     inkscape:window-height="836"
     inkscape:window-x="0"
     inkscape:window-y="27"
     inkscape:window-maximized="1"
     inkscape:snap-bbox="true"
     inkscape:bbox-paths="true"
     inkscape:bbox-nodes="true"
     inkscape:snap-bbox-edge-midpoints="true"
     inkscape:snap-bbox-midpoints="true"
     inkscape:object-paths="true"
     inkscape:snap-intersection-paths="true"
     inkscape:snap-smooth-nodes="true"
     inkscape:snap-midpoints="true"
     inkscape:snap-object-midpoints="true"
     inkscape:snap-center="true"
     inkscape:snap-text-baseline="true"
     inkscape:snap-page="true"
     showguides="true"
     inkscape:guide-bbox="true"
     inkscape:snap-global="false">
    <sodipodi:guide
       position="11.99372,45.43582"
       orientation="1,0"
       id="guide836"
       inkscape:locked="false" />
    <sodipodi:guide
       position="31.986235,94.541294"
       orientation="1,0"
       id="guide840"
       inkscape:locked="false" />
    <sodipodi:guide
       position="39.994605,103.48279"
       orientation="1,0"
       id="guide842"
       inkscape:locked="false" />
    <sodipodi:guide
       position="113.20387,21.072172"
       orientation="0,1"
       id="guide850"
       inkscape:locked="false" />
    <sodipodi:guide
       position="50.507067,78.288319"
       orientation="1,0"
       id="guide852"
       inkscape:locked="false" />
  </sodipodi:namedview>
  <metadata
     id="metadata5">
    <rdf:RDF>
      <cc:Work
         rdf:about="">
        <dc:format>image/svg+xml</dc:format>
        <dc:type
           rdf:resource="http://purl.org/dc/dcmitype/StillImage" />
        <dc:title></dc:title>
      </cc:Work>
    </rdf:RDF>
  </metadata>
  <g
     inkscape:label="Layer 1"
     inkscape:groupmode="layer"
     id="layer1"
     transform="translate(-45.130598,-86.649168)"
     style="display:inline">
    <rect
       style="display:inline;fill:#ff7b00;fill-opacity:1;stroke:none;stroke-width:1.95799994;stroke-miterlimit:4;stroke-dasharray:none;stroke-opacity:1"
       id="rect831"
       width="2.5"
       height="16"
       x="85.125206"
       y="99.576996"
       ry="1.25" />
    <path
       id="path841"
       d="m 67.084194,97.78967 c -5.500697,0 -9.959876,4.15452 -9.959876,9.27941 0,2.92022 1.448326,5.525 3.711754,7.22599 v 3.5381 l 3.391247,-1.87277 c 0.90505,0.25203 1.863857,0.38807 2.856875,0.38807 5.500699,0 9.959878,-4.15451 9.959878,-9.27939 0,-5.12489 -4.459179,-9.27941 -9.959878,-9.27941 z m 0.989803,12.49626 -2.536368,-2.72195 -4.949006,2.72195 5.443907,-5.81509 2.59823,2.72196 4.887145,-2.72196 z"
       inkscape:connector-curvature="0"
       style="fill:#0084ff;stroke-width:0.06186259" />
    <g
       aria-label="Messenger"
       style="font-style:normal;font-variant:normal;font-weight:normal;font-stretch:normal;font-size:12.83430576px;line-height:1.25;font-family:Jellee;-inkscape-font-specification:Jellee;letter-spacing:0px;word-spacing:0px;fill:#0084ff;fill-opacity:1;stroke:none;stroke-width:0.26738137"
       id="text854">
      <path
         d="m 95.661601,111.80952 c 0,0.62888 0.513372,1.14225 1.155087,1.14225 0.628881,0 1.142254,-0.51337 1.142254,-1.14225 v -5.50592 h 0.07701 c 0.02567,0.16685 0.06417,0.34653 0.102674,0.52621 0.06417,0.30802 0.17968,0.73155 0.320858,1.14225 l 1.450276,4.11981 c 0.16684,0.48771 0.64171,0.8599 1.20642,0.8599 0.55188,0 1.03958,-0.37219 1.20643,-0.8599 l 1.43744,-4.11981 c 0.14118,-0.4107 0.25668,-0.82139 0.32086,-1.14225 l 0.10267,-0.52621 h 0.077 v 5.45458 c 0,0.65455 0.53904,1.19359 1.19359,1.19359 0.66738,0 1.20642,-0.53904 1.20642,-1.19359 v -6.87919 c 0,-1.00107 -0.82139,-1.82247 -1.82247,-1.82247 -0.79573,0 -1.48878,0.51338 -1.73263,1.21926 l -1.52728,4.3765 c -0.12835,0.35936 -0.19252,0.64172 -0.24386,0.8599 l -0.0642,0.35936 h -0.077 l -0.0642,-0.35936 c -0.0385,-0.21818 -0.11551,-0.51337 -0.23102,-0.8599 l -1.527281,-4.32516 c -0.256686,-0.74439 -0.962573,-1.2706 -1.796802,-1.2706 -1.052414,0 -1.912312,0.8599 -1.912312,1.91231 z"
         style="fill:#0084ff;fill-opacity:1;stroke-width:0.26738137"
         id="path856"
         inkscape:connector-curvature="0" />
      <path
         d="m 108.0828,109.371 c 0,2.246 1.48878,3.67061 3.91447,3.67061 1.25776,0 2.63103,-0.41069 2.63103,-1.46311 0,-0.55187 -0.43637,-0.98824 -0.96257,-0.98824 -0.79573,0 -0.89841,0.77006 -1.86098,0.77006 -0.80856,0 -1.3476,-0.53904 -1.43744,-1.37327 h 3.78612 c 0.8214,0 1.05241,-0.4107 1.05241,-1.12942 0,-1.50161 -1.23209,-3.18291 -3.50376,-3.18291 -2.23317,0 -3.61928,1.56579 -3.61928,3.69628 z m 2.29734,-0.78289 c 0.0898,-0.8214 0.56471,-1.33477 1.28343,-1.33477 0.71873,0 1.20643,0.51337 1.24493,1.33477 z"
         style="fill:#0084ff;fill-opacity:1;stroke-width:0.26738137"
         id="path858"
         inkscape:connector-curvature="0" />
      <path
         d="m 119.16001,113.06728 c 2.43852,0 3.19574,-0.88557 3.19574,-2.32301 0,-1.15509 -0.65454,-1.88664 -2.19466,-2.2075 l -1.00108,-0.20535 c -0.56471,-0.11551 -0.79572,-0.24385 -0.79572,-0.53904 0,-0.37219 0.34652,-0.59038 0.80856,-0.59038 1.33476,0 1.18075,0.84707 2.11766,0.84707 0.43636,0 0.74439,-0.3722 0.74439,-0.77006 0,-0.98824 -1.54012,-1.60429 -2.74654,-1.60429 -1.89948,0 -3.17008,0.78289 -3.17008,2.27167 0,1.14226 0.75723,1.87381 2.33585,2.19467 l 0.87273,0.17968 c 0.62888,0.12834 0.74439,0.29519 0.74439,0.55188 0,0.42353 -0.33369,0.61604 -0.8214,0.61604 -1.24492,0 -1.45027,-1.00107 -2.33584,-1.00107 -0.62888,0 -0.94974,0.34652 -0.94974,1.05241 0,1.06525 1.38611,1.52728 3.19574,1.52728 z"
         style="fill:#0084ff;fill-opacity:1;stroke-width:0.26738137"
         id="path860"
         inkscape:connector-curvature="0" />
      <path
         d="m 126.40438,113.06728 c 2.43851,0 3.19574,-0.88557 3.19574,-2.32301 0,-1.15509 -0.65455,-1.88664 -2.19467,-2.2075 l -1.00107,-0.20535 c -0.56471,-0.11551 -0.79573,-0.24385 -0.79573,-0.53904 0,-0.37219 0.34653,-0.59038 0.80856,-0.59038 1.33477,0 1.18076,0.84707 2.11766,0.84707 0.43637,0 0.74439,-0.3722 0.74439,-0.77006 0,-0.98824 -1.54012,-1.60429 -2.74654,-1.60429 -1.89948,0 -3.17007,0.78289 -3.17007,2.27167 0,1.14226 0.75722,1.87381 2.33584,2.19467 l 0.87273,0.17968 c 0.62888,0.12834 0.74439,0.29519 0.74439,0.55188 0,0.42353 -0.33369,0.61604 -0.82139,0.61604 -1.24493,0 -1.45028,-1.00107 -2.33585,-1.00107 -0.62888,0 -0.94974,0.34652 -0.94974,1.05241 0,1.06525 1.38611,1.52728 3.19575,1.52728 z"
         style="fill:#0084ff;fill-opacity:1;stroke-width:0.26738137"
         id="path862"
         inkscape:connector-curvature="0" />
      <path
         d="m 130.54284,109.371 c 0,2.246 1.48878,3.67061 3.91446,3.67061 1.25776,0 2.63103,-0.41069 2.63103,-1.46311 0,-0.55187 -0.43636,-0.98824 -0.96257,-0.98824 -0.79573,0 -0.8984,0.77006 -1.86098,0.77006 -0.80856,0 -1.3476,-0.53904 -1.43744,-1.37327 h 3.78612 c 0.8214,0 1.05242,-0.4107 1.05242,-1.12942 0,-1.50161 -1.2321,-3.18291 -3.50377,-3.18291 -2.23317,0 -3.61927,1.56579 -3.61927,3.69628 z m 2.29734,-0.78289 c 0.0898,-0.8214 0.56471,-1.33477 1.28343,-1.33477 0.71872,0 1.20642,0.51337 1.24493,1.33477 z"
         style="fill:#0084ff;fill-opacity:1;stroke-width:0.26738137"
         id="path864"
         inkscape:connector-curvature="0" />
      <path
         d="m 138.89918,111.75818 c 0,0.65455 0.53904,1.19359 1.19359,1.19359 0.65455,0 1.19359,-0.53904 1.19359,-1.19359 v -2.6567 c 0,-1.33477 0.66738,-1.57862 1.15508,-1.57862 0.4107,0 1.01391,0.20535 1.01391,1.28343 v 2.95189 c 0,0.65455 0.53904,1.19359 1.19359,1.19359 0.65455,0 1.19359,-0.53904 1.19359,-1.19359 v -3.32408 c 0,-1.60429 -0.68021,-2.72088 -2.46418,-2.72088 -1.19359,0 -1.91231,0.64172 -2.25884,1.32194 v -0.17968 c 0,-0.60321 -0.50054,-1.10375 -1.11658,-1.10375 -0.60322,0 -1.10375,0.50054 -1.10375,1.10375 z"
         style="fill:#0084ff;fill-opacity:1;stroke-width:0.26738137"
         id="path866"
         inkscape:connector-curvature="0" />
      <path
         d="m 147.1005,109.28116 c 0,1.83531 0.82139,3.52944 2.91338,3.52944 1.09092,0 1.62996,-0.42354 2.02782,-0.92407 v 0.77005 c 0,1.01391 -0.50053,1.52729 -1.4246,1.52729 -0.46204,0 -0.7829,-0.12835 -1.05242,-0.46204 -0.17968,-0.21818 -0.46203,-0.35936 -0.77006,-0.35936 -0.53904,0 -0.98824,0.4492 -0.98824,1.00108 0,0.33369 0.15402,0.65455 0.39787,0.83423 0.55187,0.39786 1.3091,0.62888 2.2845,0.62888 2.81072,0 3.91447,-1.37327 3.91447,-3.79896 v -5.18506 c 0,-0.60321 -0.48771,-1.09091 -1.10375,-1.09091 -0.52621,0 -1.00108,0.38503 -1.09092,0.88556 -0.35936,-0.5262 -0.94974,-0.92407 -1.93798,-0.92407 -1.88664,0 -3.17007,1.37327 -3.17007,3.56794 z m 2.40001,-0.0128 c 0,-1.15509 0.43637,-1.97649 1.29627,-1.97649 0.8599,0 1.28343,0.80857 1.28343,1.97649 0,1.16792 -0.42353,1.97648 -1.28343,1.97648 -0.8599,0 -1.29627,-0.80856 -1.29627,-1.97648 z"
         style="fill:#0084ff;fill-opacity:1;stroke-width:0.26738137"
         id="path868"
         inkscape:connector-curvature="0" />
      <path
         d="m 155.68504,109.371 c 0,2.246 1.48878,3.67061 3.91446,3.67061 1.25777,0 2.63104,-0.41069 2.63104,-1.46311 0,-0.55187 -0.43637,-0.98824 -0.96258,-0.98824 -0.79572,0 -0.8984,0.77006 -1.86097,0.77006 -0.80856,0 -1.3476,-0.53904 -1.43744,-1.37327 h 3.78612 c 0.82139,0 1.05241,-0.4107 1.05241,-1.12942 0,-1.50161 -1.23209,-3.18291 -3.50377,-3.18291 -2.23316,0 -3.61927,1.56579 -3.61927,3.69628 z m 2.29734,-0.78289 c 0.0898,-0.8214 0.56471,-1.33477 1.28343,-1.33477 0.71872,0 1.20643,0.51337 1.24493,1.33477 z"
         style="fill:#0084ff;fill-opacity:1;stroke-width:0.26738137"
         id="path870"
         inkscape:connector-curvature="0" />
      <path
         d="m 164.04138,111.75818 c 0,0.65455 0.53904,1.19359 1.19359,1.19359 0.65455,0 1.19359,-0.53904 1.19359,-1.19359 v -2.10482 c 0,-0.92407 0.29519,-1.84814 1.36043,-1.84814 0.62888,0 1.00108,-0.52621 1.00108,-1.01391 0,-0.4107 -0.25669,-1.03958 -1.11659,-1.03958 -0.77005,0 -1.10375,0.79572 -1.36043,1.41177 h -0.0513 v -0.30802 c 0,-0.60321 -0.50054,-1.10375 -1.11658,-1.10375 -0.60322,0 -1.10375,0.50054 -1.10375,1.10375 z"
         style="fill:#0084ff;fill-opacity:1;stroke-width:0.26738137"
         id="path872"
         inkscape:connector-curvature="0" />
    </g>
  </g>
  <g
     inkscape:groupmode="layer"
     id="layer2"
     inkscape:label="Layer 2"
     style="display:none">
    <path
       style="fill:none;stroke:#000000;stroke-width:0.26458332px;stroke-linecap:butt;stroke-linejoin:miter;stroke-opacity:1"
       d="M 0,0 128,42"
       id="path881"
       inkscape:connector-curvature="0" />
    <path
       style="fill:none;stroke:#000000;stroke-width:0.26458332px;stroke-linecap:butt;stroke-linejoin:miter;stroke-opacity:1"
       d="M 0,42 128,1.5894571e-7"
       id="path883"
       inkscape:connector-curvature="0" />
  </g>
</svg>
