<?xml version="1.0" encoding="UTF-8" standalone="no"?>
<svg
   xmlns:dc="http://purl.org/dc/elements/1.1/"
   xmlns:cc="http://creativecommons.org/ns#"
   xmlns:rdf="http://www.w3.org/1999/02/22-rdf-syntax-ns#"
   xmlns:svg="http://www.w3.org/2000/svg"
   xmlns="http://www.w3.org/2000/svg"
   xmlns:sodipodi="http://sodipodi.sourceforge.net/DTD/sodipodi-0.dtd"
   xmlns:inkscape="http://www.inkscape.org/namespaces/inkscape"
   id="Capa_1"
   enable-background="new 0 0 512 512"
   height="512"
   viewBox="0 0 512 512"
   width="512"
   version="1.1"
   sodipodi:docname="money.svg"
   inkscape:version="0.92.5 (2060ec1f9f, 2020-04-08)">
  <metadata
     id="metadata15">
    <rdf:RDF>
      <cc:Work
         rdf:about="">
        <dc:format>image/svg+xml</dc:format>
        <dc:type
           rdf:resource="http://purl.org/dc/dcmitype/StillImage" />
      </cc:Work>
    </rdf:RDF>
  </metadata>
  <defs
     id="defs13" />
  <sodipodi:namedview
     pagecolor="#ffffff"
     bordercolor="#666666"
     borderopacity="1"
     objecttolerance="10"
     gridtolerance="10"
     guidetolerance="10"
     inkscape:pageopacity="0"
     inkscape:pageshadow="2"
     inkscape:window-width="1600"
     inkscape:window-height="836"
     id="namedview11"
     showgrid="false"
     inkscape:zoom="0.65186406"
     inkscape:cx="165.67168"
     inkscape:cy="185.09489"
     inkscape:window-x="0"
     inkscape:window-y="27"
     inkscape:window-maximized="1"
     inkscape:current-layer="Capa_1" />
  <g
     id="g8"
     style="fill:#4b4b4b;fill-opacity:1"
     transform="matrix(2.2018765,0,0,2.2018765,538.49815,-95.656327)">
    <path
       d="m -95.74916,154.42927 c -8.007,-4.273 -17.246,-5.987 -26.181,-7.645 -6.692,-1.242 -13.613,-2.525 -17.527,-4.614 -1.996,-1.066 -1.996,-1.342 -1.996,-3.138 0,-1.063 1.73,-3.003 5.038,-4.657 8.19,-4.094 19.74,-3.759 25.749,0.748 6.629,4.971 16.029,3.627 21,-3 4.971,-6.627 3.628,-16.029 -3,-21 -4.932997,-3.7 -10.755,-6.344 -17,-7.917 v -3.673002 c 0,-8.283996 -6.716,-14.999996 -15,-14.999996 -8.284,0 -15,6.716 -15,14.999996 v 4.123002 c -3.494,0.969 -6.908,2.258 -10.165,3.887 -13.741,6.87 -21.622,18.348 -21.622,31.49 0,13.127 6.18,23.364 17.871,29.604 8.006,4.273 17.245,5.987 26.18,7.645 6.693,1.242 13.613,2.525 17.527,4.614 1.996,1.065 1.996,1.342 1.996,3.137 0,1.028 -1.775,3.007 -5.064,4.652 -8.183,4.092 -30.78807,-0.3186 -36.78807,-4.8186 -6.627,-4.971 -15.8834,-3.48041 -20.8544,3.14559 -4.971,6.628 -3.91819,16.61237 2.70881,21.58237 4.933,3.7 21.96666,9.69064 28.21066,11.26264 v 3.676 c 0,8.284 6.716,15 15,15 8.284,0 15,-6.716 15,-15 v -4.145 c 3.485,-0.968 6.891,-2.246 10.140003,-3.871 13.756997,-6.879 21.646997,-18.354 21.646997,-31.485 0,-13.126 -6.179,-23.363 -17.87,-29.603 z"
       id="path6"
       style="fill:#4b4b4b;fill-opacity:1"
       inkscape:connector-curvature="0"
       sodipodi:nodetypes="cccsccsccsssccscccscccccsssccsc" />
  </g>
  <circle
     style="fill:none;fill-opacity:1;stroke:#4b4b4b;stroke-width:50.12628937;stroke-linecap:round;stroke-linejoin:round;stroke-miterlimit:4;stroke-dasharray:none;stroke-dashoffset:0;stroke-opacity:1"
     id="path821"
     cx="263.09167"
     cy="258.11273"
     r="218.89334" />
</svg>
