<?xml version="1.0" encoding="UTF-8" standalone="no"?>
<!-- Created with Inkscape (http://www.inkscape.org/) -->

<svg
   xmlns:dc="http://purl.org/dc/elements/1.1/"
   xmlns:cc="http://creativecommons.org/ns#"
   xmlns:rdf="http://www.w3.org/1999/02/22-rdf-syntax-ns#"
   xmlns:svg="http://www.w3.org/2000/svg"
   xmlns="http://www.w3.org/2000/svg"
   xmlns:sodipodi="http://sodipodi.sourceforge.net/DTD/sodipodi-0.dtd"
   xmlns:inkscape="http://www.inkscape.org/namespaces/inkscape"
   width="135mm"
   height="42mm"
   viewBox="0 0 135 42"
   version="1.1"
   id="svg8"
   inkscape:version="0.92.4 (5da689c313, 2019-01-14)"
   sodipodi:docname="reddit.svg">
  <defs
     id="defs2">
    <linearGradient
       y2="180"
       x2="100.008"
       y1="40.007999"
       x1="160.008"
       id="b"
       gradientUnits="userSpaceOnUse">
      <stop
         id="stop817"
         offset="0"
         stop-color="#37aee2" />
      <stop
         id="stop819"
         offset="1"
         stop-color="#1e96c8" />
    </linearGradient>
    <linearGradient
       y2="174.70815"
       x2="146.52715"
       y1="131.02763"
       x1="123.64119"
       id="w"
       gradientTransform="scale(1.0919081,0.91582798)"
       gradientUnits="userSpaceOnUse">
      <stop
         id="stop822"
         offset="0"
         stop-color="#eff7fc" />
      <stop
         id="stop824"
         offset="1"
         stop-color="#fff" />
    </linearGradient>
  </defs>
  <sodipodi:namedview
     id="base"
     pagecolor="#ffffff"
     bordercolor="#666666"
     borderopacity="1.0"
     inkscape:pageopacity="0.0"
     inkscape:pageshadow="2"
     inkscape:zoom="2"
     inkscape:cx="66.49973"
     inkscape:cy="207.27069"
     inkscape:document-units="mm"
     inkscape:current-layer="layer1"
     showgrid="false"
     fit-margin-top="0"
     fit-margin-left="0"
     fit-margin-right="0"
     fit-margin-bottom="0"
     inkscape:window-width="1600"
     inkscape:window-height="836"
     inkscape:window-x="0"
     inkscape:window-y="27"
     inkscape:window-maximized="1"
     inkscape:snap-bbox="true"
     inkscape:bbox-paths="true"
     inkscape:bbox-nodes="true"
     inkscape:snap-bbox-edge-midpoints="true"
     inkscape:snap-bbox-midpoints="true"
     inkscape:object-paths="true"
     inkscape:snap-intersection-paths="true"
     inkscape:snap-smooth-nodes="true"
     inkscape:snap-midpoints="true"
     inkscape:snap-object-midpoints="true"
     inkscape:snap-center="true"
     inkscape:snap-text-baseline="true"
     inkscape:snap-page="true"
     showguides="true"
     inkscape:guide-bbox="true"
     inkscape:snap-global="true">
    <sodipodi:guide
       position="12.000744,91.02139"
       orientation="1,0"
       id="guide846"
       inkscape:locked="false" />
    <sodipodi:guide
       position="32.009858,61.114024"
       orientation="1,0"
       id="guide847"
       inkscape:locked="false" />
    <sodipodi:guide
       position="111.69196,20.977678"
       orientation="0,1"
       id="guide849"
       inkscape:locked="false" />
    <sodipodi:guide
       position="39.998554,76.819107"
       orientation="1,0"
       id="guide851"
       inkscape:locked="false" />
    <sodipodi:guide
       position="50.502246,58.126111"
       orientation="1,0"
       id="guide861"
       inkscape:locked="false" />
  </sodipodi:namedview>
  <metadata
     id="metadata5">
    <rdf:RDF>
      <cc:Work
         rdf:about="">
        <dc:format>image/svg+xml</dc:format>
        <dc:type
           rdf:resource="http://purl.org/dc/dcmitype/StillImage" />
        <dc:title></dc:title>
      </cc:Work>
    </rdf:RDF>
  </metadata>
  <g
     inkscape:label="Layer 1"
     inkscape:groupmode="layer"
     id="layer1"
     transform="translate(-45.130598,-86.649168)"
     style="display:inline">
    <g
       aria-label="Reddit"
       style="font-style:normal;font-variant:normal;font-weight:normal;font-stretch:normal;font-size:12.69999981px;line-height:1.25;font-family:'Old Standard TT';-inkscape-font-specification:'Old Standard TT';letter-spacing:0px;word-spacing:0px;fill:#4b4b4b;fill-opacity:1;stroke:none;stroke-width:0.26458332"
       id="text857"
       transform="translate(-9.2339852,0.78854634)">
      <path
         d="m 104.86683,111.10781 c 0,0.6731 0.5461,1.2192 1.2192,1.2192 0.6731,0 1.2192,-0.5461 1.2192,-1.2192 v -2.159 h 1.2827 l 1.4224,2.7432 c 0.1905,0.381 0.5969,0.635 1.0414,0.635 0.6604,0 1.1811,-0.5207 1.1811,-1.1684 0,-0.2032 -0.0508,-0.3937 -0.1397,-0.5461 l -1.1938,-2.2987 v -0.0254 c 1.0541,-0.5207 1.7018,-1.4478 1.7018,-2.7178 0,-1.8796 -1.3589,-2.9337 -3.5433,-2.9337 h -3.1115 c -0.6985,0 -1.0795,0.381 -1.0795,1.0795 z m 2.4384,-4.0894 v -2.5908 h 1.2319 c 0.8255,0 1.5621,0.2286 1.5621,1.3081 0,1.0541 -0.7366,1.2827 -1.5621,1.2827 z"
         style="font-style:normal;font-variant:normal;font-weight:normal;font-stretch:normal;font-family:Jellee;-inkscape-font-specification:Jellee;fill:#4b4b4b;fill-opacity:1;stroke-width:0.26458332"
         id="path867"
         inkscape:connector-curvature="0" />
      <path
         d="m 113.03451,108.78371 c 0,2.2225 1.4732,3.6322 3.8735,3.6322 1.2446,0 2.6035,-0.4064 2.6035,-1.4478 0,-0.5461 -0.4318,-0.9779 -0.9525,-0.9779 -0.7874,0 -0.889,0.762 -1.8415,0.762 -0.8001,0 -1.3335,-0.5334 -1.4224,-1.3589 h 3.7465 c 0.8128,0 1.0414,-0.4064 1.0414,-1.1176 0,-1.4859 -1.2192,-3.1496 -3.4671,-3.1496 -2.2098,0 -3.5814,1.5494 -3.5814,3.6576 z m 2.2733,-0.7747 c 0.0889,-0.8128 0.5588,-1.3208 1.27,-1.3208 0.7112,0 1.1938,0.508 1.2319,1.3208 z"
         style="font-style:normal;font-variant:normal;font-weight:normal;font-stretch:normal;font-family:Jellee;-inkscape-font-specification:Jellee;fill:#4b4b4b;fill-opacity:1;stroke-width:0.26458332"
         id="path869"
         inkscape:connector-curvature="0" />
      <path
         d="m 120.96646,108.85991 c 0,2.1209 1.0922,3.5052 2.9591,3.5052 0.9906,0 1.6764,-0.3937 2.0955,-0.9144 0.1016,0.5207 0.5461,0.9017 1.0795,0.9017 0.6731,0 1.0922,-0.5715 1.0922,-1.3462 v -7.5819 c 0,-0.6477 -0.5334,-1.1811 -1.1811,-1.1811 -0.6477,0 -1.1811,0.5334 -1.1811,1.1811 v 2.4892 c -0.2794,-0.3048 -0.7239,-0.7493 -1.778,-0.7493 -1.9685,0 -3.0861,1.5494 -3.0861,3.6957 z m 2.3749,-0.0508 c 0,-1.1811 0.4191,-1.9939 1.2954,-1.9939 0.8763,0 1.2573,0.8128 1.2573,1.9812 0,1.1811 -0.3937,1.9939 -1.27,1.9939 -0.8763,0 -1.2827,-0.8255 -1.2827,-1.9812 z"
         style="font-style:normal;font-variant:normal;font-weight:normal;font-stretch:normal;font-family:Jellee;-inkscape-font-specification:Jellee;fill:#4b4b4b;fill-opacity:1;stroke-width:0.26458332"
         id="path871"
         inkscape:connector-curvature="0" />
      <path
         d="m 129.49927,108.85991 c 0,2.1209 1.0922,3.5052 2.9591,3.5052 0.9906,0 1.6764,-0.3937 2.0955,-0.9144 0.1016,0.5207 0.5461,0.9017 1.0795,0.9017 0.6731,0 1.0922,-0.5715 1.0922,-1.3462 v -7.5819 c 0,-0.6477 -0.5334,-1.1811 -1.1811,-1.1811 -0.6477,0 -1.1811,0.5334 -1.1811,1.1811 v 2.4892 c -0.2794,-0.3048 -0.7239,-0.7493 -1.778,-0.7493 -1.9685,0 -3.0861,1.5494 -3.0861,3.6957 z m 2.3749,-0.0508 c 0,-1.1811 0.4191,-1.9939 1.2954,-1.9939 0.8763,0 1.2573,0.8128 1.2573,1.9812 0,1.1811 -0.3937,1.9939 -1.27,1.9939 -0.8763,0 -1.2827,-0.8255 -1.2827,-1.9812 z"
         style="font-style:normal;font-variant:normal;font-weight:normal;font-stretch:normal;font-family:Jellee;-inkscape-font-specification:Jellee;fill:#4b4b4b;fill-opacity:1;stroke-width:0.26458332"
         id="path873"
         inkscape:connector-curvature="0" />
      <path
         d="m 138.27338,103.33541 c 0,0.5461 0.4445,0.9906 0.9906,0.9906 h 0.5842 c 0.5461,0 0.9906,-0.4445 0.9906,-0.9906 0,-0.5461 -0.4445,-0.9906 -0.9906,-0.9906 h -0.5842 c -0.5461,0 -0.9906,0.4445 -0.9906,0.9906 z m 0.1016,7.8105 c 0,0.6477 0.5334,1.1811 1.1811,1.1811 0.6477,0 1.1811,-0.5334 1.1811,-1.1811 v -4.7625 c 0,-0.6477 -0.5334,-1.1811 -1.1811,-1.1811 -0.6477,0 -1.1811,0.5334 -1.1811,1.1811 z"
         style="font-style:normal;font-variant:normal;font-weight:normal;font-stretch:normal;font-family:Jellee;-inkscape-font-specification:Jellee;fill:#4b4b4b;fill-opacity:1;stroke-width:0.26458332"
         id="path875"
         inkscape:connector-curvature="0" />
      <path
         d="m 141.65674,106.09131 c 0,0.4191 0.3429,0.7747 0.7747,0.7747 h 0.3556 l -0.0127,3.0353 c -0.0127,1.6383 0.5588,2.4765 2.2225,2.4765 0.8001,0 1.7272,-0.0254 1.7272,-0.9652 0,-0.4445 -0.381,-0.6096 -0.9144,-0.762 -0.2921,-0.0762 -0.6858,-0.2286 -0.6858,-0.9525 v -2.8321 h 0.6985 c 0.4318,0 0.7747,-0.3556 0.7747,-0.7874 0,-0.4191 -0.3429,-0.7747 -0.7747,-0.7747 h -0.7493 v -0.8763 c 0,-0.5969 -0.4826,-1.0795 -1.0795,-1.0795 -0.5715,0 -1.0541,0.4572 -1.0795,1.016 l -0.0508,0.9398 h -0.4318 c -0.4318,0 -0.7747,0.3556 -0.7747,0.7874 z"
         style="font-style:normal;font-variant:normal;font-weight:normal;font-stretch:normal;font-family:Jellee;-inkscape-font-specification:Jellee;fill:#4b4b4b;fill-opacity:1;stroke-width:0.26458332"
         id="path877"
         inkscape:connector-curvature="0" />
    </g>
    <g
       id="g888"
       transform="matrix(0.07149292,0,0,0.07829371,57.131342,94.891903)"
       style="fill:#4b4b4b;fill-opacity:1">
      <path
         id="path833"
         d="m 279.748,133.142 c 0,-19.299 -15.701,-35 -35,-35 -10.768,0 -20.674,4.812 -27.279,13.064 -18.532,-8.431 -39.663,-13.626 -62.015,-15.271 l 19.206,-60.692 42.895,9.294 c 3.285,12.782 14.901,22.258 28.693,22.258 16.336,0 29.627,-13.29 29.627,-29.626 0,-16.336 -13.291,-29.627 -29.627,-29.627 -11.801,0 -21.999,6.941 -26.759,16.95 L 169.992,13.767 c -5.041,-1.092 -10.094,1.833 -11.651,6.756 L 134.636,95.43 C 108.472,96.068 83.648,101.483 62.28,111.205 55.674,102.954 45.768,98.142 35,98.142 c -19.299,0 -35,15.701 -35,35 0,9.373 3.683,18.173 10.222,24.709 -3.9,8.37 -5.875,17.076 -5.875,25.936 0,24.048 14.396,46.492 40.538,63.199 25.447,16.264 59.183,25.221 94.989,25.221 35.808,0 69.542,-8.957 94.989,-25.221 26.142,-16.707 40.538,-39.151 40.538,-63.199 0,-8.859 -1.975,-17.565 -5.875,-25.936 6.539,-6.537 10.222,-15.336 10.222,-24.709 z M 15.369,145.139 C 13.157,141.549 12,137.451 12,133.142 c 0,-12.682 10.317,-23 23,-23 5.444,0 10.558,1.851 14.649,5.258 -14.622,8.302 -26.132,18.289 -34.28,29.739 z m 52.671,20.266 c 0,-13.785 11.215,-25 25,-25 13.785,0 25,11.215 25,25 0,13.785 -11.215,25 -25,25 -13.785,0 -25,-11.215 -25,-25 z m 123.119,57.054 c -9.745,10.637 -29.396,17.244 -51.285,17.244 -21.888,0 -41.539,-6.607 -51.284,-17.244 -1.805,-1.97 -2.733,-4.525 -2.617,-7.192 0.116,-2.669 1.266,-5.133 3.235,-6.937 1.849,-1.694 4.247,-2.627 6.754,-2.627 2.797,0 5.484,1.183 7.373,3.244 5.803,6.333 20.827,10.756 36.539,10.756 15.712,0 30.737,-4.423 36.539,-10.756 1.889,-2.062 4.576,-3.244 7.374,-3.244 2.508,0 4.906,0.933 6.755,2.627 1.97,1.804 3.118,4.268 3.234,6.937 0.117,2.667 -0.812,5.222 -2.617,7.192 z m -4.451,-32.054 c -13.785,0 -25,-11.215 -25,-25 0,-13.785 11.215,-25 25,-25 13.785,0 25,11.215 25,25 0,13.785 -11.215,25 -25,25 z m 77.671,-45.266 c -8.147,-11.45 -19.657,-21.436 -34.28,-29.739 4.092,-3.408 9.205,-5.258 14.649,-5.258 12.683,0 23,10.318 23,23 0,4.309 -1.157,8.407 -3.369,11.997 z"
         inkscape:connector-curvature="0"
         style="fill:#4b4b4b;fill-opacity:1" />
      <g
         id="g835"
         style="fill:#4b4b4b;fill-opacity:1" />
      <g
         id="g837"
         style="fill:#4b4b4b;fill-opacity:1" />
      <g
         id="g839"
         style="fill:#4b4b4b;fill-opacity:1" />
      <g
         id="g841"
         style="fill:#4b4b4b;fill-opacity:1" />
      <g
         id="g843"
         style="fill:#4b4b4b;fill-opacity:1" />
      <g
         id="g845"
         style="fill:#4b4b4b;fill-opacity:1" />
      <g
         id="g847"
         style="fill:#4b4b4b;fill-opacity:1" />
      <g
         id="g849"
         style="fill:#4b4b4b;fill-opacity:1" />
      <g
         id="g851"
         style="fill:#4b4b4b;fill-opacity:1" />
      <g
         id="g853"
         style="fill:#4b4b4b;fill-opacity:1" />
      <g
         id="g855"
         style="fill:#4b4b4b;fill-opacity:1" />
      <g
         id="g857"
         style="fill:#4b4b4b;fill-opacity:1" />
      <g
         id="g859"
         style="fill:#4b4b4b;fill-opacity:1" />
      <g
         id="g861"
         style="fill:#4b4b4b;fill-opacity:1" />
      <g
         id="g863"
         style="fill:#4b4b4b;fill-opacity:1" />
    </g>
    <rect
       style="fill:#4b4b4b;fill-opacity:1;stroke:none;stroke-width:1.95799994;stroke-miterlimit:4;stroke-dasharray:none;stroke-opacity:1"
       id="rect831"
       width="2.5"
       height="16"
       x="85.12915"
       y="99.671486"
       ry="1.25" />
  </g>
  <g
     inkscape:groupmode="layer"
     id="layer2"
     inkscape:label="Layer 2"
     style="display:none">
    <path
       style="fill:none;stroke:#000000;stroke-width:0.26458332px;stroke-linecap:butt;stroke-linejoin:miter;stroke-opacity:1"
       d="M 0,0 128,42"
       id="path881"
       inkscape:connector-curvature="0" />
    <path
       style="fill:none;stroke:#000000;stroke-width:0.26458332px;stroke-linecap:butt;stroke-linejoin:miter;stroke-opacity:1"
       d="M 0,42 128,1.5894571e-7"
       id="path883"
       inkscape:connector-curvature="0" />
  </g>
</svg>
