<?xml version="1.0" encoding="UTF-8" standalone="no"?>
<!-- Created with Inkscape (http://www.inkscape.org/) -->

<svg
   xmlns:dc="http://purl.org/dc/elements/1.1/"
   xmlns:cc="http://creativecommons.org/ns#"
   xmlns:rdf="http://www.w3.org/1999/02/22-rdf-syntax-ns#"
   xmlns:svg="http://www.w3.org/2000/svg"
   xmlns="http://www.w3.org/2000/svg"
   xmlns:sodipodi="http://sodipodi.sourceforge.net/DTD/sodipodi-0.dtd"
   xmlns:inkscape="http://www.inkscape.org/namespaces/inkscape"
   width="128mm"
   height="25mm"
   viewBox="0 0 128 25"
   version="1.1"
   id="svg8"
   inkscape:version="0.92.4 (5da689c313, 2019-01-14)"
   sodipodi:docname="ru.svg">
  <defs
     id="defs2">
    <linearGradient
       y2="180"
       x2="100.008"
       y1="40.007999"
       x1="160.008"
       id="b"
       gradientUnits="userSpaceOnUse">
      <stop
         id="stop817"
         offset="0"
         stop-color="#37aee2" />
      <stop
         id="stop819"
         offset="1"
         stop-color="#1e96c8" />
    </linearGradient>
    <linearGradient
       y2="174.70815"
       x2="146.52715"
       y1="131.02763"
       x1="123.64119"
       id="w"
       gradientTransform="scale(1.0919081,0.91582798)"
       gradientUnits="userSpaceOnUse">
      <stop
         id="stop822"
         offset="0"
         stop-color="#eff7fc" />
      <stop
         id="stop824"
         offset="1"
         stop-color="#fff" />
    </linearGradient>
  </defs>
  <sodipodi:namedview
     id="base"
     pagecolor="#ffffff"
     bordercolor="#666666"
     borderopacity="1.0"
     inkscape:pageopacity="0.0"
     inkscape:pageshadow="2"
     inkscape:zoom="11.2"
     inkscape:cx="252.36027"
     inkscape:cy="56.878563"
     inkscape:document-units="mm"
     inkscape:current-layer="layer1"
     showgrid="false"
     fit-margin-top="0"
     fit-margin-left="0"
     fit-margin-right="0"
     fit-margin-bottom="0"
     inkscape:window-width="1600"
     inkscape:window-height="836"
     inkscape:window-x="0"
     inkscape:window-y="27"
     inkscape:window-maximized="1"
     inkscape:snap-bbox="true"
     inkscape:bbox-paths="true"
     inkscape:bbox-nodes="true"
     inkscape:snap-bbox-edge-midpoints="true"
     inkscape:snap-bbox-midpoints="true"
     inkscape:object-paths="true"
     inkscape:snap-intersection-paths="true"
     inkscape:snap-smooth-nodes="true"
     inkscape:snap-midpoints="true"
     inkscape:snap-object-midpoints="true"
     inkscape:snap-center="true"
     inkscape:snap-text-baseline="true"
     inkscape:snap-page="true"
     showguides="true"
     inkscape:guide-bbox="true"
     inkscape:snap-global="false">
    <sodipodi:guide
       position="-59.333834,64.411955"
       orientation="1,0"
       id="guide867"
       inkscape:locked="false" />
    <sodipodi:guide
       position="-45.435819,65.748302"
       orientation="1,0"
       id="guide871"
       inkscape:locked="false" />
    <sodipodi:guide
       position="121.474,20.980658"
       orientation="0,1"
       id="guide879"
       inkscape:locked="false" />
    <sodipodi:guide
       position="-31.537804,73.499118"
       orientation="1,0"
       id="guide881"
       inkscape:locked="false" />
    <sodipodi:guide
       position="10.022607,13.363476"
       orientation="1,0"
       id="guide835"
       inkscape:locked="false" />
  </sodipodi:namedview>
  <metadata
     id="metadata5">
    <rdf:RDF>
      <cc:Work
         rdf:about="">
        <dc:format>image/svg+xml</dc:format>
        <dc:type
           rdf:resource="http://purl.org/dc/dcmitype/StillImage" />
        <dc:title></dc:title>
      </cc:Work>
    </rdf:RDF>
  </metadata>
  <g
     inkscape:label="Layer 1"
     inkscape:groupmode="layer"
     id="layer1"
     transform="translate(-45.130598,-103.64917)"
     style="display:inline">
    <g
       aria-label="Pycckuu"
       style="font-style:normal;font-variant:normal;font-weight:normal;font-stretch:normal;font-size:12.69999981px;line-height:1.25;font-family:'Old Standard TT';-inkscape-font-specification:'Old Standard TT';letter-spacing:0px;word-spacing:0px;fill:#5f5f5f;fill-opacity:1;stroke:none;stroke-width:0.26458332"
       id="text876"
       transform="translate(-27.567354,8.899884)" />
    <path
       id="rect844"
       style="fill:#5f5f5f;fill-opacity:1;stroke:none;stroke-width:2.02084851;stroke-linecap:round;stroke-linejoin:round;stroke-miterlimit:3.5;stroke-dasharray:none;stroke-dashoffset:81.86456299;stroke-opacity:1"
       d="m 103.1546,110.69415 c 1.08238,0.48749 1.85448,0.49807 3.04159,0 0.0888,-0.0372 0.20445,-0.0476 0.28604,-0.0188 0.23926,0.0851 0.39721,0.41961 0.39721,0.70187 v 0.0882 c 0,0.37852 -0.37193,0.63187 -0.71869,0.78365 -0.98365,0.43057 -2.22084,0.44487 -3.04159,0 -0.33278,-0.18038 -0.64781,-0.40513 -0.64781,-0.78365 v -0.0882 c 0,-0.30252 0.11292,-0.66431 0.37531,-0.71401 0.0993,-0.0208 0.25545,0.007 0.30794,0.0309 z m 25.10714,-12.850041 h 3.40178 c 0.0131,0 0.0236,0.01054 0.0236,0.02362 0,0.01309 -0.0105,0.02362 -0.0236,0.02362 h -3.40178 c -0.0131,0 -0.0236,-0.01054 -0.0236,-0.02362 0,-0.01309 0.0105,-0.02362 0.0236,-0.02362 z m -26.91427,19.727581 c 0,1.4986 0.5969,2.6924 2.4384,2.6924 1.1303,0 1.7653,-0.6731 2.1082,-1.4224 v 0.2667 c 0,0.5969 0.4953,1.0922 1.0922,1.0922 0.6096,0 1.1049,-0.4953 1.1049,-1.0922 v -4.8514 c 0,-0.6477 -0.5334,-1.1811 -1.1811,-1.1811 -0.6477,0 -1.1811,0.5334 -1.1811,1.1811 v 2.6924 c 0,1.0287 -0.4318,1.5367 -1.0795,1.5367 -0.3683,0 -0.9398,-0.2159 -0.9398,-1.2827 v -2.9464 c 0,-0.6477 -0.5334,-1.1811 -1.1811,-1.1811 -0.6477,0 -1.1811,0.5334 -1.1811,1.1811 z m -8.334374,0 c 0,1.4986 0.5969,2.6924 2.4384,2.6924 1.1303,0 1.7653,-0.6731 2.1082,-1.4224 v 0.2667 c 0,0.5969 0.4953,1.0922 1.0922,1.0922 0.6096,0 1.1049,-0.4953 1.1049,-1.0922 v -4.8514 c 0,-0.6477 -0.5334,-1.1811 -1.1811,-1.1811 -0.6477,0 -1.1811,0.5334 -1.1811,1.1811 v 2.6924 c 0,1.0287 -0.4318,1.5367 -1.0795,1.5367 -0.3683,0 -0.9398,-0.2159 -0.9398,-1.2827 v -2.9464 c 0,-0.6477 -0.5334,-1.1811 -1.1811,-1.1811 -0.6477,0 -1.1811,0.5334 -1.1811,1.1811 z m -7.45232,1.4605 c 0,0.6477 0.5207,1.1684 1.1684,1.1684 0.6604,0 1.01683,-0.52389 1.08107,-1.1684 v -1.0033 l 0.50915,-0.48624 1.61018,2.12454 c 0.1905,0.3175 0.5461,0.5334 0.9525,0.5334 0.6096,0 1.1049,-0.4953 1.1049,-1.1049 0,-0.2159 -0.0635,-0.4191 -0.1651,-0.5842 l -1.83878,-2.44204 1.27998,-1.39336 c 0.1524,-0.1778 0.254,-0.3937 0.254,-0.6477 0,-0.5207 -0.4318,-0.9525 -0.9525,-0.9525 -0.2921,0 -0.5588,0.1143 -0.7366,0.3302 l -2.01773,2.2606 v -1.43544 c 0,-0.6477 -0.42067,-1.1684 -1.06837,-1.1684 -0.6604,0 -1.1811,0.5207 -1.1811,1.1684 z m -7.71524,-2.3749 c 0,2.2098 1.143,3.6322 3.5687,3.6322 1.3081,0 2.921,-0.4699 2.921,-1.6891 0,-0.6096 -0.3683,-0.9652 -0.9652,-0.9652 -0.9017,0 -0.9271,0.9652 -1.9431,0.9652 -0.6731,0 -1.2192,-0.5334 -1.2192,-1.9558 0,-1.3716 0.5207,-1.9558 1.2192,-1.9558 1.016,0 0.9906,0.8509 1.8796,0.8509 0.5715,0 0.9144,-0.3302 0.9144,-0.9144 0,-1.1811 -1.4986,-1.6256 -2.7051,-1.6256 -2.4003,0 -3.6703,1.6256 -3.6703,3.6576 z m -6.95624,0 c 0,2.2098 1.143,3.6322 3.5687,3.6322 1.3081,0 2.921,-0.4699 2.921,-1.6891 0,-0.6096 -0.3683,-0.9652 -0.9652,-0.9652 -0.9017,0 -0.9271,0.9652 -1.9431,0.9652 -0.6731,0 -1.2192,-0.5334 -1.2192,-1.9558 0,-1.3716 0.5207,-1.9558 1.2192,-1.9558 1.016,0 0.9906,0.8509 1.8796,0.8509 0.5715,0 0.9144,-0.3302 0.9144,-0.9144 0,-1.1811 -1.4986,-1.6256 -2.7051,-1.6256 -2.4003,0 -3.6703,1.6256 -3.6703,3.6576 z m -7.229076,-2.4384 c 0,0.1397 0.0254,0.2794 0.0762,0.3937 l 2.0955,5.588 -0.508,1.3716 c -0.0381,0.1143 -0.0762,0.2413 -0.0762,0.381 0,0.5842 0.4826,1.0668 1.0668,1.0668 0.4699,0 0.8509,-0.2921 1.0033,-0.6985 l 2.921,-7.8105 c 0.0381,-0.1143 0.0635,-0.2413 0.0635,-0.3683 0,-0.5969 -0.4699,-1.0668 -1.0541,-1.0668 -0.4826,0 -0.8763,0.3175 -1.016,0.7366 l -0.8128,2.5527 c -0.1143,0.3429 -0.1905,0.6858 -0.2413,0.9398 -0.0381,0.1524 -0.0635,0.2921 -0.0762,0.4318 h -0.0762 c -0.0127,-0.1397 -0.0254,-0.2794 -0.0508,-0.4318 -0.0381,-0.2667 -0.1143,-0.5715 -0.2413,-0.9398 l -0.8509,-2.5146 c -0.1524,-0.4572 -0.5842,-0.7747 -1.0795,-0.7747 -0.635,0 -1.143,0.508 -1.143,1.143 z m -8.507015,4.7625 c 0,0.6731 0.5461,1.2192 1.2192,1.2192 0.6731,0 1.2192,-0.5461 1.2192,-1.2192 v -1.8161 h 1.4732 c 2.2733,0 3.7465,-1.2827 3.7465,-3.3401 0,-2.1209 -1.5367,-3.3147 -3.7338,-3.3147 h -2.8448 c -0.6985,0 -1.0795,0.381 -1.0795,1.0795 z m 2.4384,-3.683 v -2.921 h 1.143 c 0.9779,0 1.6764,0.4318 1.6764,1.4859 0,1.0541 -0.7112,1.4351 -1.6891,1.4351 z" />
  </g>
  <g
     inkscape:groupmode="layer"
     id="layer2"
     inkscape:label="Layer 2"
     style="display:none"
     transform="translate(0,-17)">
    <path
       style="fill:none;stroke:#000000;stroke-width:0.26458332px;stroke-linecap:butt;stroke-linejoin:miter;stroke-opacity:1"
       d="M 0,0 128,42"
       id="path881"
       inkscape:connector-curvature="0" />
    <path
       style="fill:none;stroke:#000000;stroke-width:0.26458332px;stroke-linecap:butt;stroke-linejoin:miter;stroke-opacity:1"
       d="M 0,42 128,1.5894571e-7"
       id="path883"
       inkscape:connector-curvature="0" />
  </g>
</svg>
