<?xml version="1.0" encoding="UTF-8" standalone="no"?>
<!-- Created with Inkscape (http://www.inkscape.org/) -->

<svg
   xmlns:dc="http://purl.org/dc/elements/1.1/"
   xmlns:cc="http://creativecommons.org/ns#"
   xmlns:rdf="http://www.w3.org/1999/02/22-rdf-syntax-ns#"
   xmlns:svg="http://www.w3.org/2000/svg"
   xmlns="http://www.w3.org/2000/svg"
   xmlns:sodipodi="http://sodipodi.sourceforge.net/DTD/sodipodi-0.dtd"
   xmlns:inkscape="http://www.inkscape.org/namespaces/inkscape"
   width="135mm"
   height="42mm"
   viewBox="0 0 135 42"
   version="1.1"
   id="svg8"
   inkscape:version="0.92.4 (5da689c313, 2019-01-14)"
   sodipodi:docname="twitter.svg">
  <defs
     id="defs2">
    <linearGradient
       y2="180"
       x2="100.008"
       y1="40.007999"
       x1="160.008"
       id="b"
       gradientUnits="userSpaceOnUse">
      <stop
         id="stop817"
         offset="0"
         stop-color="#37aee2" />
      <stop
         id="stop819"
         offset="1"
         stop-color="#1e96c8" />
    </linearGradient>
    <linearGradient
       y2="174.70815"
       x2="146.52715"
       y1="131.02763"
       x1="123.64119"
       id="w"
       gradientTransform="scale(1.0919081,0.91582798)"
       gradientUnits="userSpaceOnUse">
      <stop
         id="stop822"
         offset="0"
         stop-color="#eff7fc" />
      <stop
         id="stop824"
         offset="1"
         stop-color="#fff" />
    </linearGradient>
  </defs>
  <sodipodi:namedview
     id="base"
     pagecolor="#ffffff"
     bordercolor="#666666"
     borderopacity="1.0"
     inkscape:pageopacity="0.0"
     inkscape:pageshadow="2"
     inkscape:zoom="2.8"
     inkscape:cx="136.13988"
     inkscape:cy="45.608598"
     inkscape:document-units="mm"
     inkscape:current-layer="layer1"
     showgrid="false"
     fit-margin-top="0"
     fit-margin-left="0"
     fit-margin-right="0"
     fit-margin-bottom="0"
     inkscape:window-width="1600"
     inkscape:window-height="836"
     inkscape:window-x="0"
     inkscape:window-y="27"
     inkscape:window-maximized="1"
     inkscape:snap-bbox="true"
     inkscape:bbox-paths="true"
     inkscape:bbox-nodes="true"
     inkscape:snap-bbox-edge-midpoints="true"
     inkscape:snap-bbox-midpoints="true"
     inkscape:object-paths="true"
     inkscape:snap-intersection-paths="true"
     inkscape:snap-smooth-nodes="true"
     inkscape:snap-midpoints="true"
     inkscape:snap-object-midpoints="true"
     inkscape:snap-center="true"
     inkscape:snap-text-baseline="true"
     inkscape:snap-page="true"
     showguides="true"
     inkscape:guide-bbox="true"
     inkscape:snap-global="false">
    <sodipodi:guide
       position="11.99372,45.43582"
       orientation="1,0"
       id="guide836"
       inkscape:locked="false" />
    <sodipodi:guide
       position="31.986235,94.541294"
       orientation="1,0"
       id="guide840"
       inkscape:locked="false" />
    <sodipodi:guide
       position="39.994605,103.48279"
       orientation="1,0"
       id="guide842"
       inkscape:locked="false" />
    <sodipodi:guide
       position="113.20387,21.072172"
       orientation="0,1"
       id="guide850"
       inkscape:locked="false" />
    <sodipodi:guide
       position="50.507067,78.288319"
       orientation="1,0"
       id="guide852"
       inkscape:locked="false" />
  </sodipodi:namedview>
  <metadata
     id="metadata5">
    <rdf:RDF>
      <cc:Work
         rdf:about="">
        <dc:format>image/svg+xml</dc:format>
        <dc:type
           rdf:resource="http://purl.org/dc/dcmitype/StillImage" />
        <dc:title />
      </cc:Work>
    </rdf:RDF>
  </metadata>
  <g
     inkscape:label="Layer 1"
     inkscape:groupmode="layer"
     id="layer1"
     transform="translate(-45.130598,-86.649168)"
     style="display:inline">
    <rect
       style="display:inline;fill:#f26e1d;fill-opacity:1;stroke:none;stroke-width:1.95799994;stroke-miterlimit:4;stroke-dasharray:none;stroke-opacity:1"
       id="rect831"
       width="2.5"
       height="16"
       x="85.125206"
       y="99.576996"
       ry="1.25" />
    <g
       aria-label="Twitter"
       style="font-style:normal;font-variant:normal;font-weight:normal;font-stretch:normal;font-size:12.69999981px;line-height:1.25;font-family:'Old Standard TT';-inkscape-font-specification:'Old Standard TT';letter-spacing:0px;word-spacing:0px;display:inline;fill:#1da1f2;fill-opacity:1;stroke:none;stroke-width:0.26458332"
       id="text857-3">
      <path
         d="m 94.418397,104.15858 c 0,0.5334 0.4318,0.9652 0.9652,0.9652 h 1.8288 v 6.5405 c 0,0.6731 0.5461,1.2192 1.2192,1.2192 0.6731,0 1.2192,-0.5461 1.2192,-1.2192 v -6.5405 h 1.828803 c 0.5334,0 0.9652,-0.4318 0.9652,-0.9652 0,-0.5334 -0.4318,-0.9652 -0.9652,-0.9652 h -6.096003 c -0.5334,0 -0.9652,0.4318 -0.9652,0.9652 z"
         style="font-style:normal;font-variant:normal;font-weight:normal;font-stretch:normal;font-family:Jellee;-inkscape-font-specification:Jellee;fill:#1da1f2;fill-opacity:1;stroke-width:0.26458332"
         id="path858"
         inkscape:connector-curvature="0" />
      <path
         d="m 102.94446,106.86368 c 0,0.0889 0.0254,0.1778 0.0381,0.254 l 1.0668,4.4323 c 0.1778,0.762 0.8636,1.3335 1.6891,1.3335 0.8255,0 1.5113,-0.5715 1.6891,-1.3589 l 0.381,-1.7018 c 0.0762,-0.3429 0.1397,-0.7366 0.1905,-1.0414 l 0.0889,-0.5334 h 0.0889 c 0.0127,0.1778 0.0381,0.3556 0.0762,0.5334 0.0508,0.3048 0.1143,0.7112 0.1905,1.0541 l 0.3683,1.6637 c 0.1778,0.8001 0.8763,1.3843 1.7272,1.3843 0.8255,0 1.524,-0.5715 1.7145,-1.3462 l 1.0795,-4.4831 c 0.0127,-0.0762 0.0381,-0.1651 0.0381,-0.2413 0,-0.5842 -0.4699,-1.0541 -1.0541,-1.0541 -0.508,0 -0.9398,0.3556 -1.0287,0.8509 l -0.4445,2.3495 c -0.0762,0.4191 -0.1524,0.9398 -0.2159,1.3843 l -0.1016,0.762 h -0.0762 l -0.127,-0.762 c -0.0762,-0.4445 -0.1651,-0.9652 -0.2667,-1.3843 l -0.4826,-2.0955 c -0.1397,-0.6223 -0.7112,-1.1049 -1.3843,-1.1049 -0.6731,0 -1.2446,0.4826 -1.3843,1.1049 l -0.4826,2.0955 c -0.1016,0.4191 -0.1905,0.889 -0.254,1.2827 l -0.1143,0.6604 h -0.0762 l -0.0889,-0.6604 c -0.0635,-0.3937 -0.1397,-0.8636 -0.2159,-1.2827 l -0.4445,-2.3114 c -0.1016,-0.508 -0.5461,-0.889 -1.0795,-0.889 -0.6096,0 -1.1049,0.4953 -1.1049,1.1049 z"
         style="font-style:normal;font-variant:normal;font-weight:normal;font-stretch:normal;font-family:Jellee;-inkscape-font-specification:Jellee;fill:#1da1f2;fill-opacity:1;stroke-width:0.26458332"
         id="path860"
         inkscape:connector-curvature="0" />
      <path
         d="m 114.46217,103.89188 c 0,0.5461 0.4445,0.9906 0.9906,0.9906 h 0.5842 c 0.5461,0 0.9906,-0.4445 0.9906,-0.9906 0,-0.5461 -0.4445,-0.9906 -0.9906,-0.9906 h -0.5842 c -0.5461,0 -0.9906,0.4445 -0.9906,0.9906 z m 0.1016,7.8105 c 0,0.6477 0.5334,1.1811 1.1811,1.1811 0.6477,0 1.1811,-0.5334 1.1811,-1.1811 v -4.7625 c 0,-0.6477 -0.5334,-1.1811 -1.1811,-1.1811 -0.6477,0 -1.1811,0.5334 -1.1811,1.1811 z"
         style="font-style:normal;font-variant:normal;font-weight:normal;font-stretch:normal;font-family:Jellee;-inkscape-font-specification:Jellee;fill:#1da1f2;fill-opacity:1;stroke-width:0.26458332"
         id="path862"
         inkscape:connector-curvature="0" />
      <path
         d="m 117.84553,106.64778 c 0,0.4191 0.3429,0.7747 0.7747,0.7747 h 0.3556 l -0.0127,3.0353 c -0.0127,1.6383 0.5588,2.4765 2.2225,2.4765 0.8001,0 1.7272,-0.0254 1.7272,-0.9652 0,-0.4445 -0.381,-0.6096 -0.9144,-0.762 -0.2921,-0.0762 -0.6858,-0.2286 -0.6858,-0.9525 v -2.8321 h 0.6985 c 0.4318,0 0.7747,-0.3556 0.7747,-0.7874 0,-0.4191 -0.3429,-0.7747 -0.7747,-0.7747 h -0.7493 v -0.8763 c 0,-0.5969 -0.4826,-1.0795 -1.0795,-1.0795 -0.5715,0 -1.0541,0.4572 -1.0795,1.016 l -0.0508,0.9398 h -0.4318 c -0.4318,0 -0.7747,0.3556 -0.7747,0.7874 z"
         style="font-style:normal;font-variant:normal;font-weight:normal;font-stretch:normal;font-family:Jellee;-inkscape-font-specification:Jellee;fill:#1da1f2;fill-opacity:1;stroke-width:0.26458332"
         id="path864"
         inkscape:connector-curvature="0" />
      <path
         d="m 123.27776,106.64778 c 0,0.4191 0.3429,0.7747 0.7747,0.7747 h 0.3556 l -0.0127,3.0353 c -0.0127,1.6383 0.5588,2.4765 2.2225,2.4765 0.8001,0 1.7272,-0.0254 1.7272,-0.9652 0,-0.4445 -0.381,-0.6096 -0.9144,-0.762 -0.2921,-0.0762 -0.6858,-0.2286 -0.6858,-0.9525 v -2.8321 h 0.6985 c 0.4318,0 0.7747,-0.3556 0.7747,-0.7874 0,-0.4191 -0.3429,-0.7747 -0.7747,-0.7747 h -0.7493 v -0.8763 c 0,-0.5969 -0.4826,-1.0795 -1.0795,-1.0795 -0.5715,0 -1.0541,0.4572 -1.0795,1.016 l -0.0508,0.9398 h -0.4318 c -0.4318,0 -0.7747,0.3556 -0.7747,0.7874 z"
         style="font-style:normal;font-variant:normal;font-weight:normal;font-stretch:normal;font-family:Jellee;-inkscape-font-specification:Jellee;fill:#1da1f2;fill-opacity:1;stroke-width:0.26458332"
         id="path866"
         inkscape:connector-curvature="0" />
      <path
         d="m 129.06559,109.34018 c 0,2.2225 1.4732,3.6322 3.8735,3.6322 1.2446,0 2.6035,-0.4064 2.6035,-1.4478 0,-0.5461 -0.4318,-0.9779 -0.9525,-0.9779 -0.7874,0 -0.889,0.762 -1.8415,0.762 -0.8001,0 -1.3335,-0.5334 -1.4224,-1.3589 h 3.7465 c 0.8128,0 1.0414,-0.4064 1.0414,-1.1176 0,-1.4859 -1.2192,-3.1496 -3.4671,-3.1496 -2.2098,0 -3.5814,1.5494 -3.5814,3.6576 z m 2.2733,-0.7747 c 0.0889,-0.8128 0.5588,-1.3208 1.27,-1.3208 0.7112,0 1.1938,0.508 1.2319,1.3208 z"
         style="font-style:normal;font-variant:normal;font-weight:normal;font-stretch:normal;font-family:Jellee;-inkscape-font-specification:Jellee;fill:#1da1f2;fill-opacity:1;stroke-width:0.26458332"
         id="path868"
         inkscape:connector-curvature="0" />
      <path
         d="m 137.33448,111.70238 c 0,0.6477 0.5334,1.1811 1.1811,1.1811 0.6477,0 1.1811,-0.5334 1.1811,-1.1811 v -2.0828 c 0,-0.9144 0.2921,-1.8288 1.3462,-1.8288 0.6223,0 0.9906,-0.5207 0.9906,-1.0033 0,-0.4064 -0.254,-1.0287 -1.1049,-1.0287 -0.762,0 -1.0922,0.7874 -1.3462,1.397 h -0.0508 v -0.3048 c 0,-0.5969 -0.4953,-1.0922 -1.1049,-1.0922 -0.5969,0 -1.0922,0.4953 -1.0922,1.0922 z"
         style="font-style:normal;font-variant:normal;font-weight:normal;font-stretch:normal;font-family:Jellee;-inkscape-font-specification:Jellee;fill:#1da1f2;fill-opacity:1;stroke-width:0.26458332"
         id="path870"
         inkscape:connector-curvature="0" />
    </g>
    <g
       id="layer1-6"
       transform="matrix(0.06711408,0,0,0.06711408,20.77515,60.844357)"
       style="fill:#1da1f2;fill-opacity:1">
      <path
         d="m 633.89823,812.04479 c 112.46038,0 173.95627,-93.16765 173.95627,-173.95625 0,-2.64628 -0.0539,-5.28062 -0.1726,-7.90305 11.93799,-8.63016 22.31446,-19.39999 30.49762,-31.65984 -10.95459,4.86937 -22.74358,8.14741 -35.11071,9.62551 12.62341,-7.56929 22.31446,-19.54304 26.88583,-33.81739 -11.81284,7.00307 -24.89517,12.09297 -38.82383,14.84055 -11.15723,-11.88436 -27.04079,-19.31655 -44.62892,-19.31655 -33.76374,0 -61.14426,27.38052 -61.14426,61.13233 0,4.79784 0.5364,9.46458 1.58538,13.94057 -50.81546,-2.55686 -95.87353,-26.88582 -126.02546,-63.87991 -5.25082,9.03545 -8.27852,19.53111 -8.27852,30.73006 0,21.21186 10.79366,39.93837 27.20766,50.89296 -10.03077,-0.30992 -19.45363,-3.06348 -27.69044,-7.64676 -0.009,0.25652 -0.009,0.50661 -0.009,0.78077 0,29.60957 21.07478,54.3319 49.0513,59.93435 -5.13757,1.40062 -10.54335,2.15158 -16.12196,2.15158 -3.93364,0 -7.76596,-0.38716 -11.49099,-1.1026 7.78383,24.2932 30.35457,41.97073 57.11525,42.46543 -20.92578,16.40207 -47.28712,26.17062 -75.93712,26.17062 -4.92898,0 -9.79834,-0.28036 -14.58427,-0.84634 27.05868,17.34379 59.18936,27.46396 93.72193,27.46396"
         style="fill:#1da1f2;fill-opacity:1;fill-rule:nonzero;stroke:none"
         id="path3611"
         inkscape:connector-curvature="0" />
    </g>
  </g>
  <g
     inkscape:groupmode="layer"
     id="layer2"
     inkscape:label="Layer 2"
     style="display:none">
    <path
       style="fill:none;stroke:#000000;stroke-width:0.26458332px;stroke-linecap:butt;stroke-linejoin:miter;stroke-opacity:1"
       d="M 0,0 128,42"
       id="path881"
       inkscape:connector-curvature="0" />
    <path
       style="fill:none;stroke:#000000;stroke-width:0.26458332px;stroke-linecap:butt;stroke-linejoin:miter;stroke-opacity:1"
       d="M 0,42 128,1.5894571e-7"
       id="path883"
       inkscape:connector-curvature="0" />
  </g>
</svg>
