<?xml version="1.0" encoding="UTF-8" standalone="no"?>
<!-- Created with Inkscape (http://www.inkscape.org/) -->

<svg
   xmlns:dc="http://purl.org/dc/elements/1.1/"
   xmlns:cc="http://creativecommons.org/ns#"
   xmlns:rdf="http://www.w3.org/1999/02/22-rdf-syntax-ns#"
   xmlns:svg="http://www.w3.org/2000/svg"
   xmlns="http://www.w3.org/2000/svg"
   xmlns:sodipodi="http://sodipodi.sourceforge.net/DTD/sodipodi-0.dtd"
   xmlns:inkscape="http://www.inkscape.org/namespaces/inkscape"
   width="128mm"
   height="25mm"
   viewBox="0 0 128 25"
   version="1.1"
   id="svg8"
   inkscape:version="0.92.4 (5da689c313, 2019-01-14)"
   sodipodi:docname="uk.svg">
  <defs
     id="defs2">
    <linearGradient
       y2="180"
       x2="100.008"
       y1="40.007999"
       x1="160.008"
       id="b"
       gradientUnits="userSpaceOnUse">
      <stop
         id="stop817"
         offset="0"
         stop-color="#37aee2" />
      <stop
         id="stop819"
         offset="1"
         stop-color="#1e96c8" />
    </linearGradient>
    <linearGradient
       y2="174.70815"
       x2="146.52715"
       y1="131.02763"
       x1="123.64119"
       id="w"
       gradientTransform="scale(1.0919081,0.91582798)"
       gradientUnits="userSpaceOnUse">
      <stop
         id="stop822"
         offset="0"
         stop-color="#eff7fc" />
      <stop
         id="stop824"
         offset="1"
         stop-color="#fff" />
    </linearGradient>
  </defs>
  <sodipodi:namedview
     id="base"
     pagecolor="#ffffff"
     bordercolor="#666666"
     borderopacity="1.0"
     inkscape:pageopacity="0.0"
     inkscape:pageshadow="2"
     inkscape:zoom="1.979899"
     inkscape:cx="75.91204"
     inkscape:cy="-34.857408"
     inkscape:document-units="mm"
     inkscape:current-layer="layer1"
     showgrid="false"
     fit-margin-top="0"
     fit-margin-left="0"
     fit-margin-right="0"
     fit-margin-bottom="0"
     inkscape:window-width="1600"
     inkscape:window-height="836"
     inkscape:window-x="0"
     inkscape:window-y="27"
     inkscape:window-maximized="1"
     inkscape:snap-bbox="true"
     inkscape:bbox-paths="true"
     inkscape:bbox-nodes="true"
     inkscape:snap-bbox-edge-midpoints="true"
     inkscape:snap-bbox-midpoints="true"
     inkscape:object-paths="true"
     inkscape:snap-intersection-paths="true"
     inkscape:snap-smooth-nodes="true"
     inkscape:snap-midpoints="true"
     inkscape:snap-object-midpoints="true"
     inkscape:snap-center="true"
     inkscape:snap-text-baseline="true"
     inkscape:snap-page="true"
     showguides="true"
     inkscape:guide-bbox="true"
     inkscape:snap-global="true">
    <sodipodi:guide
       position="-59.333834,64.411955"
       orientation="1,0"
       id="guide867"
       inkscape:locked="false" />
    <sodipodi:guide
       position="-45.435819,65.748302"
       orientation="1,0"
       id="guide871"
       inkscape:locked="false" />
    <sodipodi:guide
       position="121.474,20.980658"
       orientation="0,1"
       id="guide879"
       inkscape:locked="false" />
    <sodipodi:guide
       position="-31.537804,73.499118"
       orientation="1,0"
       id="guide881"
       inkscape:locked="false" />
    <sodipodi:guide
       position="10.022607,12.828937"
       orientation="1,0"
       id="guide827"
       inkscape:locked="false" />
  </sodipodi:namedview>
  <metadata
     id="metadata5">
    <rdf:RDF>
      <cc:Work
         rdf:about="">
        <dc:format>image/svg+xml</dc:format>
        <dc:type
           rdf:resource="http://purl.org/dc/dcmitype/StillImage" />
        <dc:title></dc:title>
      </cc:Work>
    </rdf:RDF>
  </metadata>
  <g
     inkscape:label="Layer 1"
     inkscape:groupmode="layer"
     id="layer1"
     transform="translate(-45.130598,-103.64917)"
     style="display:inline">
    <g
       aria-label="ykpaiHcpka"
       style="font-style:normal;font-variant:normal;font-weight:normal;font-stretch:normal;font-size:12.69999981px;line-height:1.25;font-family:'Old Standard TT';-inkscape-font-specification:'Old Standard TT';letter-spacing:0px;word-spacing:0px;fill:#5f5f5f;fill-opacity:1;stroke:none;stroke-width:0.26458332"
       id="text876" />
    <path
       id="path869"
       style="font-style:normal;font-variant:normal;font-weight:normal;font-stretch:normal;font-size:12.69999981px;line-height:1.25;font-family:Jellee;-inkscape-font-specification:Jellee;letter-spacing:0px;word-spacing:0px;display:inline;fill:#5f5f5f;fill-opacity:1;stroke:none;stroke-width:0.26458332"
       d="m 113.68437,118.18308 c 0,0.6477 0.5207,1.1684 1.1684,1.1684 0.6604,0 1.01683,-0.52389 1.08107,-1.1684 v -1.0033 l 0.50915,-0.48624 1.61018,2.12454 c 0.1905,0.3175 0.5461,0.5334 0.9525,0.5334 0.6096,0 1.1049,-0.4953 1.1049,-1.1049 0,-0.2159 -0.0635,-0.4191 -0.1651,-0.5842 l -1.83878,-2.44204 1.27998,-1.39336 c 0.1524,-0.1778 0.254,-0.3937 0.254,-0.6477 0,-0.5207 -0.4318,-0.9525 -0.9525,-0.9525 -0.2921,0 -0.5588,0.1143 -0.7366,0.3302 l -2.01773,2.2606 v -1.43544 c 0,-0.6477 -0.42067,-1.1684 -1.06837,-1.1684 -0.6604,0 -1.1811,0.5207 -1.1811,1.1684 z m -25.936802,-7.60191 c 0,0.5461 0.4445,0.9906 0.9906,0.9906 h 0.0844 c 0.5461,0 0.9906,-0.4445 0.9906,-0.9906 0,-0.5461 -0.4445,-0.9906 -0.9906,-0.9906 h -0.0844 c -0.5461,0 -0.9906,0.4445 -0.9906,0.9906 z m -25.847769,7.60191 c 0,0.6477 0.5207,1.1684 1.1684,1.1684 0.6604,0 1.01683,-0.52389 1.08107,-1.1684 v -1.0033 l 0.50915,-0.48624 1.61018,2.12454 c 0.1905,0.3175 0.5461,0.5334 0.9525,0.5334 0.6096,0 1.1049,-0.4953 1.1049,-1.1049 0,-0.2159 -0.0635,-0.4191 -0.1651,-0.5842 l -1.83878,-2.44204 1.27998,-1.39336 c 0.1524,-0.1778 0.254,-0.3937 0.254,-0.6477 0,-0.5207 -0.4318,-0.9525 -0.9525,-0.9525 -0.2921,0 -0.5588,0.1143 -0.7366,0.3302 l -2.01773,2.2606 v -1.43544 c 0,-0.6477 -0.42067,-1.1684 -1.06837,-1.1684 -0.6604,0 -1.1811,0.5207 -1.1811,1.1684 z m 59.417571,-0.8788 c 0,1.3589 1.0795,2.1082 2.3622,2.1082 0.9144,0 1.6256,-0.254 2.1717,-1.0033 0.0762,0.5334 0.5334,0.9398 1.0922,0.9398 0.6223,0 1.0922,-0.508 1.0922,-1.1303 v -3.1877 c 0,-2.1209 -1.2192,-2.8829 -3.2131,-2.8829 -1.2192,0 -3.0607,0.3429 -3.0607,1.5494 0,0.5715 0.4572,0.9271 1.016,0.9271 0.7747,0 0.9398,-0.8001 2.0193,-0.8001 0.889,0 0.9652,0.4953 0.9652,1.2319 h -0.8636 c -1.5748,0 -3.5814,0.2413 -3.5814,2.2479 z m 2.3114,-0.1397 c 0,-0.7493 0.8128,-0.8509 1.397,-0.8509 h 0.7493 v 0.1143 c 0,0.8128 -0.4572,1.4732 -1.3208,1.4732 -0.4572,0 -0.8255,-0.254 -0.8255,-0.7366 z m -17.17821,-3.89762 c -10e-4,-0.6477 0.5334,-1.1811 1.1811,-1.1811 0.6477,0 1.18108,0.5334 1.1811,1.1811 l 5e-5,1.38952 c 0.254,-0.2286 0.66996,-0.50375 1.39321,-0.42818 0.72325,0.0756 1.5587,0.31307 1.9603,1.42145 0.38241,1.05543 0.13047,2.44455 -0.58224,3.08134 -0.48871,0.43664 -1.22674,0.69884 -1.8824,0.71565 -1.61188,0.0413 -3.01726,-0.3739 -3.24277,-1.97298 z m 1.86876,3.53268 c -0.005,1.43222 2.08651,1.42475 2.05298,-3.2e-4 -0.0335,-1.42507 -2.04834,-1.4319 -2.05298,3.2e-4 z m -9.591952,-0.99396 c 0,2.2098 1.143005,3.6322 3.568702,3.6322 1.3081,0 2.921,-0.4699 2.921,-1.6891 0,-0.6096 -0.3683,-0.9652 -0.9652,-0.9652 -0.9017,0 -0.9271,0.9652 -1.9431,0.9652 -0.6731,0 -1.2192,-0.5334 -1.2192,-1.9558 0,-1.3716 0.5207,-1.9558 1.2192,-1.9558 1.016,0 0.9906,0.8509 1.8796,0.8509 0.5715,0 0.9144,-0.3302 0.9144,-0.9144 0,-1.1811 -1.4986,-1.6256 -2.7051,-1.6256 -2.400297,0 -3.670302,1.6256 -3.670302,3.6576 z m -8.28639,2.3241 c 6e-5,0.6731 0.5461,1.2192 1.2192,1.2192 0.6731,0 1.2192,-0.5461 1.2192,-1.2192 v -1.4067 h 2.10499 v 1.4067 c 0,0.6731 0.5461,1.2192 1.2192,1.2192 0.6731,0 1.21926,-0.5461 1.2192,-1.2192 l -4.1e-4,-4.8367 c -5e-5,-0.6731 -0.5461,-1.2192 -1.2192,-1.2192 -0.6731,0 -1.26574,0.54771 -1.2192,1.2192 l 4.1e-4,1.4488 h -2.10499 l -4.1e-4,-1.4488 c -1.9e-4,-0.6731 -0.5461,-1.2192 -1.2192,-1.2192 -0.6731,0 -1.21926,0.5461 -1.2192,1.2192 z m -5.17641,-7.57237 c 0,0.5461 0.4445,0.9906 0.9906,0.9906 h 0.0844 c 0.5461,0 0.9906,-0.4445 0.9906,-0.9906 0,-0.5461 -0.4445,-0.9906 -0.9906,-0.9906 h -0.0844 c -0.5461,0 -0.9906,0.4445 -0.9906,0.9906 z m 1.03106,7.61047 c 0,0.6477 0.5334,1.1811 1.1811,1.1811 0.6477,0 1.1811,-0.5334 1.1811,-1.1811 v -4.7625 c 0,-0.6477 -0.5334,-1.1811 -1.1811,-1.1811 -0.6477,0 -1.1811,0.5334 -1.1811,1.1811 z m -8.343306,-0.8636 c 0,1.3589 1.0795,2.1082 2.362196,2.1082 0.9144,0 1.6256,-0.254 2.1717,-1.0033 0.0762,0.5334 0.5334,0.9398 1.0922,0.9398 0.6223,0 1.0922,-0.508 1.0922,-1.1303 v -3.1877 c 0,-2.1209 -1.2192,-2.8829 -3.2131,-2.8829 -1.2192,0 -3.060696,0.3429 -3.060696,1.5494 0,0.5715 0.4572,0.9271 1.016,0.9271 0.774696,0 0.939796,-0.8001 2.019296,-0.8001 0.889,0 0.9652,0.4953 0.9652,1.2319 h -0.8636 c -1.5748,0 -3.581396,0.2413 -3.581396,2.2479 z m 2.311396,-0.1397 c 0,-0.7493 0.8128,-0.8509 1.397,-0.8509 h 0.7493 v 0.1143 c 0,0.8128 -0.4572,1.4732 -1.3208,1.4732 -0.4572,0 -0.8255,-0.254 -0.8255,-0.7366 z m -10.463209,3.8354 c 0,0.6477 0.5334,1.1811 1.1811,1.1811 0.6477,0 1.1811,-0.5334 1.1811,-1.1811 v -2.2479 c 0.254,0.2286 0.787403,0.6477 1.701803,0.6477 1.8288,0 3.1623,-1.4097 3.1623,-3.7465 0,-1.8923 -0.9017,-3.4671 -2.794,-3.4671 -1.1938,0 -1.778003,0.5334 -2.260603,1.1938 v -0.0762 c 0,-0.5969 -0.4826,-1.0795 -1.0922,-1.0795 -0.5969,0 -1.0795,0.4826 -1.0795,1.0795 z m 2.2987,-5.2197 c 0,-1.3589 0.5715,-1.9431 1.320803,-1.9431 0.6477,0 1.2319,0.508 1.2319,1.9431 0,1.4351 -0.5969,2.032 -1.2827,2.032 -0.685803,0 -1.270003,-0.5207 -1.270003,-2.032 z m -17.475171,-5.1779 c 0,0.1397 0.0254,0.2794 0.0762,0.3937 l 2.429587,4.60244 -0.842087,2.35716 c -0.0381,0.1143 -0.0762,0.2413 -0.0762,0.381 0,0.5842 0.4826,1.0668 1.0668,1.0668 0.4699,0 0.8509,-0.2921 1.0033,-0.6985 l 2.921,-7.8105 c 0.0381,-0.1143 0.0635,-0.2413 0.0635,-0.3683 0,-0.5969 -0.4699,-1.0668 -1.0541,-1.0668 -0.4826,0 -0.763068,0.56839 -0.832918,0.77794 -0.06985,0.20955 -0.54005,1.26584 -0.612771,1.49397 -0.07272,0.22812 -0.274464,0.71847 -0.500582,1.33026 h -0.0762 c -0.215815,-0.43638 -0.51967,-1.00068 -0.676596,-1.29959 -0.156927,-0.29891 -0.448492,-0.88587 -0.784551,-1.48063 -0.336058,-0.59477 -0.607823,-0.82195 -1.103123,-0.82195 -0.635,0 -1.001259,0.508 -1.001259,1.143 z"
       inkscape:connector-curvature="0"
       sodipodi:nodetypes="ssccccsscccssccsssssssssssssccccsscccssccsssssscssssssscsssscssscscccccccccccssssssssssscssccssccscccssccsssssssssssssssscssssssscsssscsssssscssscsssssssssscccssccssscccccss" />
  </g>
  <g
     inkscape:groupmode="layer"
     id="layer2"
     inkscape:label="Layer 2"
     style="display:none"
     transform="translate(0,-17)">
    <path
       style="fill:none;stroke:#000000;stroke-width:0.26458332px;stroke-linecap:butt;stroke-linejoin:miter;stroke-opacity:1"
       d="M 0,0 128,42"
       id="path881"
       inkscape:connector-curvature="0" />
    <path
       style="fill:none;stroke:#000000;stroke-width:0.26458332px;stroke-linecap:butt;stroke-linejoin:miter;stroke-opacity:1"
       d="M 0,42 128,1.5894571e-7"
       id="path883"
       inkscape:connector-curvature="0" />
  </g>
</svg>
