<?xml version="1.0" encoding="UTF-8" standalone="no"?>
<!-- Created with Inkscape (http://www.inkscape.org/) -->

<svg
   width="135mm"
   height="42mm"
   viewBox="0 0 135 42"
   version="1.1"
   id="svg8"
   inkscape:version="1.2.1 (9c6d41e410, 2022-07-14)"
   sodipodi:docname="wa.svg"
   xml:space="preserve"
   xmlns:inkscape="http://www.inkscape.org/namespaces/inkscape"
   xmlns:sodipodi="http://sodipodi.sourceforge.net/DTD/sodipodi-0.dtd"
   xmlns="http://www.w3.org/2000/svg"
   xmlns:svg="http://www.w3.org/2000/svg"
   xmlns:rdf="http://www.w3.org/1999/02/22-rdf-syntax-ns#"
   xmlns:cc="http://creativecommons.org/ns#"
   xmlns:dc="http://purl.org/dc/elements/1.1/"><defs
     id="defs2"><rect
       x="246.51507"
       y="28.084542"
       width="193.40262"
       height="27.480469"
       id="rect191" /><linearGradient
       y2="180"
       x2="100.008"
       y1="40.007999"
       x1="160.008"
       id="b"
       gradientUnits="userSpaceOnUse"><stop
         id="stop817"
         offset="0"
         stop-color="#37aee2" /><stop
         id="stop819"
         offset="1"
         stop-color="#1e96c8" /></linearGradient><linearGradient
       y2="174.70815"
       x2="146.52715"
       y1="131.02763"
       x1="123.64119"
       id="w"
       gradientTransform="scale(1.0919081,0.91582798)"
       gradientUnits="userSpaceOnUse"><stop
         id="stop822"
         offset="0"
         stop-color="#eff7fc" /><stop
         id="stop824"
         offset="1"
         stop-color="#fff" /></linearGradient></defs><sodipodi:namedview
     id="base"
     pagecolor="#ffffff"
     bordercolor="#666666"
     borderopacity="1.0"
     inkscape:pageopacity="0.0"
     inkscape:pageshadow="2"
     inkscape:zoom="2.8"
     inkscape:cx="216.42857"
     inkscape:cy="90.535714"
     inkscape:document-units="mm"
     inkscape:current-layer="layer1"
     showgrid="false"
     fit-margin-top="0"
     fit-margin-left="0"
     fit-margin-right="0"
     fit-margin-bottom="0"
     inkscape:window-width="1920"
     inkscape:window-height="1005"
     inkscape:window-x="0"
     inkscape:window-y="0"
     inkscape:window-maximized="1"
     inkscape:snap-bbox="true"
     inkscape:bbox-paths="true"
     inkscape:bbox-nodes="true"
     inkscape:snap-bbox-edge-midpoints="true"
     inkscape:snap-bbox-midpoints="true"
     inkscape:object-paths="true"
     inkscape:snap-intersection-paths="true"
     inkscape:snap-smooth-nodes="true"
     inkscape:snap-midpoints="true"
     inkscape:snap-object-midpoints="true"
     inkscape:snap-center="true"
     inkscape:snap-text-baseline="true"
     inkscape:snap-page="true"
     showguides="true"
     inkscape:guide-bbox="true"
     inkscape:snap-global="false"
     inkscape:showpageshadow="2"
     inkscape:pagecheckerboard="0"
     inkscape:deskcolor="#d1d1d1"><sodipodi:guide
       position="11.99372,45.43582"
       orientation="1,0"
       id="guide836"
       inkscape:locked="false" /><sodipodi:guide
       position="31.986235,94.541294"
       orientation="1,0"
       id="guide840"
       inkscape:locked="false" /><sodipodi:guide
       position="39.994605,103.48279"
       orientation="1,0"
       id="guide842"
       inkscape:locked="false" /><sodipodi:guide
       position="113.20387,21.072172"
       orientation="0,1"
       id="guide850"
       inkscape:locked="false" /><sodipodi:guide
       position="50.507067,78.288319"
       orientation="1,0"
       id="guide852"
       inkscape:locked="false" /></sodipodi:namedview><metadata
     id="metadata5"><rdf:RDF><cc:Work
         rdf:about=""><dc:format>image/svg+xml</dc:format><dc:type
           rdf:resource="http://purl.org/dc/dcmitype/StillImage" /><dc:title /></cc:Work></rdf:RDF></metadata><g
     inkscape:label="Layer 1"
     inkscape:groupmode="layer"
     id="layer1"
     transform="translate(-45.130598,-86.649168)"
     style="display:inline"><g
       aria-label="WhatsApp"
       transform="matrix(1.049638,0,0,1.049638,-163.3391,71.909646)"
       id="text189"
       style="white-space:pre;shape-inside:url(#rect191);display:inline;fill:#16ac35;fill-opacity:1"><path
         d="m 246.95962,30.879984 c 0,0.084 0.012,0.156 0.024,0.24 l 1.488,6.552 c 0.168,0.768 0.852,1.344 1.668,1.344 0.804,0 1.476,-0.54 1.668,-1.296 l 1.128,-4.452 1.128,4.452 c 0.192,0.756 0.876,1.296 1.68,1.296 0.828,0 1.524,-0.576 1.69201,-1.344 l 1.5,-6.648 c 0.012,-0.072 0.024,-0.156 0.024,-0.228 0,-0.576 -0.45601,-1.032 -1.03201,-1.032 -0.49199,0 -0.912,0.36 -1.008,0.816 l -1.224,5.736 -1.452,-5.616 c -0.132,-0.528 -0.624,-0.936 -1.2,-0.936 -0.588,0 -1.08,0.408 -1.212,0.936 l -1.464,5.664 -1.212,-5.724 c -0.108,-0.504 -0.552,-0.876 -1.092,-0.876 -0.612,0 -1.104,0.492 -1.104,1.116 z"
         style="font-family:Jellee;-inkscape-font-specification:Jellee;fill:#16ac35;fill-opacity:1"
         id="path353" /><path
         d="m 260.15961,37.899984 c 0,0.612 0.504,1.116 1.116,1.116 0.612,0 1.116,-0.504 1.116,-1.116 v -2.496 c 0,-1.248 0.624,-1.476 1.08,-1.476 0.384,0 0.948,0.192 0.948,1.2 v 2.772 c 0,0.612 0.504,1.116 1.116,1.116 0.612,0 1.116,-0.504 1.116,-1.116 v -3.12 c 0,-1.5 -0.636,-2.544 -2.304,-2.544 -1.056,0 -1.656,0.528 -1.956,1.14 v -2.772 c 0,-0.612 -0.504,-1.116 -1.116,-1.116 -0.612,0 -1.116,0.504 -1.116,1.116 z"
         style="font-family:Jellee;-inkscape-font-specification:Jellee;fill:#16ac35;fill-opacity:1"
         id="path355" /><path
         d="m 267.79159,37.083984 c 0,1.284 1.02,1.992 2.232,1.992 0.864,0 1.536,-0.24 2.052,-0.948 0.072,0.504 0.504,0.888 1.032,0.888 0.588,0 1.032,-0.48 1.032,-1.068 v -3.012 c 0,-2.004 -1.152,-2.724 -3.036,-2.724 -1.152,0 -2.892,0.324 -2.892,1.464 0,0.54 0.432,0.876 0.96,0.876 0.732,0 0.888,-0.756 1.908,-0.756 0.84,0 0.912,0.468 0.912,1.164 h -0.816 c -1.488,0 -3.384,0.228 -3.384,2.124 z m 2.184,-0.132 c 0,-0.708 0.768,-0.804 1.32,-0.804 h 0.708 v 0.108 c 0,0.768 -0.432,1.392 -1.248,1.392 -0.432,0 -0.78,-0.24 -0.78,-0.696 z"
         style="font-family:Jellee;-inkscape-font-specification:Jellee;fill:#16ac35;fill-opacity:1"
         id="path357" /><path
         d="m 274.96758,33.123984 c 0,0.396 0.324,0.732 0.732,0.732 h 0.336 l -0.012,2.868 c -0.012,1.548 0.528,2.34 2.1,2.34 0.756,0 1.632,-0.024 1.632,-0.912 0,-0.42 -0.36,-0.576 -0.864,-0.72 -0.276,-0.072 -0.648,-0.216 -0.648,-0.9 v -2.676 h 0.66 c 0.408,0 0.732,-0.336 0.732,-0.744 0,-0.396 -0.324,-0.732 -0.732,-0.732 h -0.708 v -0.828 c 0,-0.564 -0.456,-1.02 -1.02,-1.02 -0.54,0 -0.996,0.432 -1.02,0.96 l -0.048,0.888 h -0.408 c -0.408,0 -0.732,0.336 -0.732,0.744 z"
         style="font-family:Jellee;-inkscape-font-specification:Jellee;fill:#16ac35;fill-opacity:1"
         id="path359" /><path
         d="m 283.34358,39.123984 c 2.28,0 2.988,-0.828 2.988,-2.172 0,-1.08 -0.612,-1.764 -2.052,-2.064 l -0.936,-0.192 c -0.528,-0.108 -0.744,-0.228 -0.744,-0.504 0,-0.348 0.324,-0.552 0.756,-0.552 1.248,0 1.104,0.792 1.98,0.792 0.408,0 0.696,-0.348 0.696,-0.72 0,-0.924 -1.44,-1.5 -2.568,-1.5 -1.776,0 -2.964,0.732 -2.964,2.124 0,1.068 0.708,1.752 2.184,2.052 l 0.816,0.168 c 0.588,0.12 0.696,0.276 0.696,0.516 0,0.396 -0.312,0.576 -0.768,0.576 -1.164,0 -1.356,-0.936 -2.184,-0.936 -0.588,0 -0.888,0.324 -0.888,0.984 0,0.996 1.296,1.428 2.988,1.428 z"
         style="font-family:Jellee;-inkscape-font-specification:Jellee;fill:#16ac35;fill-opacity:1"
         id="path361" /><path
         d="m 287.12356,37.971984 c 0,0.576 0.468,1.044 1.044,1.044 0.48,0 0.876,-0.3 1.008,-0.732 l 0.396,-1.284 h 3.264 l 0.396,1.26 c 0.144,0.432 0.552,0.756 1.044,0.756 0.6,0 1.092,-0.492 1.092,-1.092 0,-0.12 -0.024,-0.24 -0.06,-0.36 l -2.256,-6.528 c -0.252,-0.744 -0.96,-1.272 -1.788,-1.272 -0.84,0 -1.548,0.528 -1.8,1.272 l -2.28,6.6 c -0.036,0.108 -0.06,0.216 -0.06,0.336 z m 3.012,-2.748 0.576,-1.836 c 0.18,-0.576 0.288,-0.996 0.42,-1.524 h 0.144 c 0.12,0.528 0.228,0.948 0.42,1.524 l 0.576,1.836 z"
         style="font-family:Jellee;-inkscape-font-specification:Jellee;fill:#16ac35;fill-opacity:1"
         id="path363" /><path
         d="m 296.47155,40.575984 c 0,0.612 0.504,1.116 1.116,1.116 0.612,0 1.116,-0.504 1.116,-1.116 v -2.124 c 0.24,0.216 0.744,0.612 1.608,0.612 1.728,0 2.988,-1.332 2.988,-3.54 0,-1.788 -0.852,-3.276 -2.64,-3.276 -1.128,0 -1.68,0.504 -2.136,1.128 v -0.072 c 0,-0.564 -0.456,-1.02 -1.032,-1.02 -0.564,0 -1.02,0.456 -1.02,1.02 z m 2.172,-4.932 c 0,-1.284 0.54,-1.836 1.248,-1.836 0.612,0 1.164,0.48 1.164,1.836 0,1.356 -0.564,1.92 -1.212,1.92 -0.648,0 -1.2,-0.492 -1.2,-1.92 z"
         style="font-family:Jellee;-inkscape-font-specification:Jellee;fill:#16ac35;fill-opacity:1"
         id="path365" /><path
         d="m 304.53554,40.575984 c 0,0.612 0.504,1.116 1.116,1.116 0.612,0 1.116,-0.504 1.116,-1.116 v -2.124 c 0.24,0.216 0.744,0.612 1.608,0.612 1.728,0 2.988,-1.332 2.988,-3.54 0,-1.788 -0.852,-3.276 -2.64,-3.276 -1.128,0 -1.68,0.504 -2.136,1.128 v -0.072 c 0,-0.564 -0.456,-1.02 -1.032,-1.02 -0.564,0 -1.02,0.456 -1.02,1.02 z m 2.172,-4.932 c 0,-1.284 0.54,-1.836 1.248,-1.836 0.612,0 1.164,0.48 1.164,1.836 0,1.356 -0.564,1.92 -1.212,1.92 -0.648,0 -1.2,-0.492 -1.2,-1.92 z"
         style="font-family:Jellee;-inkscape-font-specification:Jellee;fill:#16ac35;fill-opacity:1"
         id="path367" /></g><rect
       style="display:inline;fill:#d71bb1;fill-opacity:1;stroke:none;stroke-width:1.95799994;stroke-miterlimit:4;stroke-dasharray:none;stroke-opacity:1"
       id="rect831"
       width="2.5"
       height="16"
       x="85.125206"
       y="99.576996"
       ry="1.25" /><g
       id="g305"
       transform="matrix(0.06613825,0,0,0.06613825,56.724519,97.066741)"
       style="fill:#16ac35;fill-opacity:1"><g
         id="XMLID_468_"
         style="fill:#16ac35;fill-opacity:1">
	<path
   id="XMLID_469_"
   d="m 227.904,176.981 c -0.6,-0.288 -23.054,-11.345 -27.044,-12.781 -1.629,-0.585 -3.374,-1.156 -5.23,-1.156 -3.032,0 -5.579,1.511 -7.563,4.479 -2.243,3.334 -9.033,11.271 -11.131,13.642 -0.274,0.313 -0.648,0.687 -0.872,0.687 -0.201,0 -3.676,-1.431 -4.728,-1.888 -24.087,-10.463 -42.37,-35.624 -44.877,-39.867 -0.358,-0.61 -0.373,-0.887 -0.376,-0.887 0.088,-0.323 0.898,-1.135 1.316,-1.554 1.223,-1.21 2.548,-2.805 3.83,-4.348 0.607,-0.731 1.215,-1.463 1.812,-2.153 1.86,-2.164 2.688,-3.844 3.648,-5.79 l 0.503,-1.011 c 2.344,-4.657 0.342,-8.587 -0.305,-9.856 -0.531,-1.062 -10.012,-23.944 -11.02,-26.348 -2.424,-5.801 -5.627,-8.502 -10.078,-8.502 -0.413,0 0,0 -1.732,0.073 -2.109,0.089 -13.594,1.601 -18.672,4.802 C 90,87.918 80.89,98.74 80.89,117.772 c 0,17.129 10.87,33.302 15.537,39.453 0.116,0.155 0.329,0.47 0.638,0.922 17.873,26.102 40.154,45.446 62.741,54.469 21.745,8.686 32.042,9.69 37.896,9.69 0.001,0 0.001,0 0.001,0 2.46,0 4.429,-0.193 6.166,-0.364 l 1.102,-0.105 c 7.512,-0.666 24.02,-9.22 27.775,-19.655 2.958,-8.219 3.738,-17.199 1.77,-20.458 -1.348,-2.216 -3.671,-3.331 -6.612,-4.743 z"
   style="fill:#16ac35;fill-opacity:1" />
	<path
   id="XMLID_470_"
   d="M 156.734,0 C 73.318,0 5.454,67.354 5.454,150.143 c 0,26.777 7.166,52.988 20.741,75.928 L 0.212,302.716 c -0.484,1.429 -0.124,3.009 0.933,4.085 C 1.908,307.58 2.943,308 4,308 c 0.405,0 0.813,-0.061 1.211,-0.188 l 79.92,-25.396 c 21.87,11.685 46.588,17.853 71.604,17.853 C 240.143,300.27 308,232.923 308,150.143 308,67.354 240.143,0 156.734,0 Z m 0,268.994 c -23.539,0 -46.338,-6.797 -65.936,-19.657 -0.659,-0.433 -1.424,-0.655 -2.194,-0.655 -0.407,0 -0.815,0.062 -1.212,0.188 L 47.357,261.596 60.281,223.467 C 60.699,222.233 60.49,220.872 59.72,219.82 44.796,199.428 36.907,175.335 36.907,150.143 36.907,84.6 90.661,31.276 156.733,31.276 c 66.064,0 119.812,53.324 119.812,118.867 10e-4,65.535 -53.746,118.851 -119.811,118.851 z"
   style="fill:#16ac35;fill-opacity:1" />
</g><g
         id="g252"
         style="fill:#16ac35;fill-opacity:1">
</g><g
         id="g254"
         style="fill:#16ac35;fill-opacity:1">
</g><g
         id="g256"
         style="fill:#16ac35;fill-opacity:1">
</g><g
         id="g258"
         style="fill:#16ac35;fill-opacity:1">
</g><g
         id="g260"
         style="fill:#16ac35;fill-opacity:1">
</g><g
         id="g262"
         style="fill:#16ac35;fill-opacity:1">
</g><g
         id="g264"
         style="fill:#16ac35;fill-opacity:1">
</g><g
         id="g266"
         style="fill:#16ac35;fill-opacity:1">
</g><g
         id="g268"
         style="fill:#16ac35;fill-opacity:1">
</g><g
         id="g270"
         style="fill:#16ac35;fill-opacity:1">
</g><g
         id="g272"
         style="fill:#16ac35;fill-opacity:1">
</g><g
         id="g274"
         style="fill:#16ac35;fill-opacity:1">
</g><g
         id="g276"
         style="fill:#16ac35;fill-opacity:1">
</g><g
         id="g278"
         style="fill:#16ac35;fill-opacity:1">
</g><g
         id="g280"
         style="fill:#16ac35;fill-opacity:1">
</g></g></g><g
     inkscape:groupmode="layer"
     id="layer2"
     inkscape:label="Layer 2"
     style="display:none"><path
       style="fill:none;stroke:#000000;stroke-width:0.26458332px;stroke-linecap:butt;stroke-linejoin:miter;stroke-opacity:1"
       d="M 0,0 128,42"
       id="path881"
       inkscape:connector-curvature="0" /><path
       style="fill:none;stroke:#000000;stroke-width:0.26458332px;stroke-linecap:butt;stroke-linejoin:miter;stroke-opacity:1"
       d="M 0,42 128,1.5894571e-7"
       id="path883"
       inkscape:connector-curvature="0" /></g></svg>
